<?xml version="1.0" encoding="utf-8"?>
<!-- Generator: Adobe Illustrator 25.0.1, SVG Export Plug-In . SVG Version: 6.00 Build 0)  -->
<svg version="1.1" id="Layer_1" xmlns="http://www.w3.org/2000/svg" xmlns:xlink="http://www.w3.org/1999/xlink" x="0px" y="0px"
	 viewBox="0 0 256 256" style="enable-background:new 0 0 256 256;" xml:space="preserve">
<style type="text/css">
	.st0{fill:url(#SVGID_1_);}
	.st1{fill:#00072E;}
	.st2{fill:url(#SVGID_2_);}
	.st3{fill:url(#SVGID_3_);}
	.st4{fill:url(#SVGID_4_);}
	.st5{fill:url(#SVGID_5_);}
</style>
<g>
	
		<linearGradient id="SVGID_1_" gradientUnits="userSpaceOnUse" x1="56.8947" y1="840.11" x2="221.8363" y2="1095.0197" gradientTransform="matrix(1 0 0 1 0 -822)">
		<stop  offset="1.060000e-02" style="stop-color:#C7C7C7"/>
		<stop  offset="1" style="stop-color:#4A4E54"/>
	</linearGradient>
	<circle class="st0" cx="128" cy="128" r="128"/>
	<g>
		<circle class="st1" cx="128" cy="128" r="117.2"/>
	</g>
	<g>
		
			<radialGradient id="SVGID_2_" cx="87.4302" cy="875.7027" r="187.6675" gradientTransform="matrix(1 0 0 1 0 -822)" gradientUnits="userSpaceOnUse">
			<stop  offset="5.319149e-03" style="stop-color:#DEDEDE"/>
			<stop  offset="1" style="stop-color:#4A4E54"/>
		</radialGradient>
		<polygon class="st2" points="138.2,116.2 185.5,143.2 223.2,107.9 204.7,57.5 194,105.6 		"/>
		
			<radialGradient id="SVGID_3_" cx="87.4302" cy="875.7027" r="187.6675" gradientTransform="matrix(1 0 0 1 0 -822)" gradientUnits="userSpaceOnUse">
			<stop  offset="5.319149e-03" style="stop-color:#DEDEDE"/>
			<stop  offset="1" style="stop-color:#4A4E54"/>
		</radialGradient>
		<path class="st3" d="M136.6,128.2l-4.9,98.8l49.9-76L136.6,128.2z M75.4,151.1l50.5,75.7l-5.6-98.6L75.4,151.1z"/>
		
			<radialGradient id="SVGID_4_" cx="87.4302" cy="875.7027" r="187.6675" gradientTransform="matrix(1 0 0 1 0 -822)" gradientUnits="userSpaceOnUse">
			<stop  offset="5.319149e-03" style="stop-color:#DEDEDE"/>
			<stop  offset="1" style="stop-color:#4A4E54"/>
		</radialGradient>
		<polygon class="st4" points="128.5,42.6 133.5,58.1 149.8,58.1 136.6,67.7 141.6,83.3 128.5,73.7 115.2,83.3 120.2,67.7 
			107.1,58.1 123.3,58.1 		"/>
		
			<radialGradient id="SVGID_5_" cx="87.4302" cy="875.7027" r="187.6675" gradientTransform="matrix(1 0 0 1 0 -822)" gradientUnits="userSpaceOnUse">
			<stop  offset="5.319149e-03" style="stop-color:#DEDEDE"/>
			<stop  offset="1" style="stop-color:#4A4E54"/>
		</radialGradient>
		<polygon class="st5" points="118,116.2 70.5,143.2 32.8,107.9 51.3,57.5 62,105.6 		"/>
	</g>
</g>
</svg>
