<?xml version="1.0" encoding="utf-8"?>
<!-- Generator: Adobe Illustrator 25.0.1, SVG Export Plug-In . SVG Version: 6.00 Build 0)  -->
<svg version="1.1" id="Layer_1" xmlns="http://www.w3.org/2000/svg" xmlns:xlink="http://www.w3.org/1999/xlink" x="0px" y="0px"
	 viewBox="0 0 580 580" style="enable-background:new 0 0 580 580;" xml:space="preserve">
<style type="text/css">
	.st0{fill:#B9B9BB;}
	.st1{fill:#000050;}
</style>
<circle class="st0" cx="290" cy="290" r="269.9"/>
<circle class="st1" cx="290" cy="290" r="243.7"/>
<path class="st0" d="M202,299c0,23.7,0,47.5,0.1,71.2c0,2.8-0.5,3.9-3.6,3.8c-5.6-0.3-11.2,0-16.8-0.1c-4.7-0.1-7.2-2.4-7.2-7.2
	c0-45.4,0-90.7,0-136.1c0-4.7,2.1-6.9,6.9-7c5.6-0.2,11.2,0.1,16.8-0.1c3.1-0.1,4,0.7,4,3.9C201.9,251.3,202,275.2,202,299z"/>
<path class="st0" d="M389.5,299.6c0,22.1,0,44.2,0,66.3c0,6.9-1.9,8.8-8.9,8.8c-4.7,0-9.5-0.2-14.2,0.1c-3.3,0.2-4.4-0.6-4.4-4.2
	c0.2-23.1,0.1-46.2,0.1-69.3c0-24.4,0-48.7-0.1-73.1c0-2.8,0.6-4,3.7-3.8c5.2,0.3,10.5,0,15.7,0.1c6.1,0,8.1,2,8.1,8.1
	C389.5,254.8,389.5,277.2,389.5,299.6z"/>
<path class="st0" d="M282,284.6c23.2,0,46.4,0.1,69.6-0.1c3.4,0,4.2,1,4,4.2c-0.3,6.5-0.2,13,0,19.5c0.1,2.9-0.6,3.8-3.6,3.8
	c-10.2-0.2-20.5-0.1-30.7-0.1c-36.3,0-72.6,0-108.9,0.1c-3.5,0-4.4-0.9-4.3-4.3c0.3-6.5,0.2-13,0-19.5c-0.1-2.8,0.7-3.6,3.5-3.6
	C235.1,284.7,258.6,284.6,282,284.6z"/>
<path class="st0" d="M168.2,298.2c0,16.6-0.1,33.2,0.1,49.8c0.1,3.8-1.1,4.7-4.6,4.4c-3.1-0.3-6.2,0-9.3-0.1
	c-5.5-0.1-7.7-2.2-7.7-7.7c0-15,0-30,0-44.9c0-15.7,0-31.5,0-47.2c0-5.9,2.1-8,8.1-8.1c3.2,0,6.5,0.2,9.7-0.1
	c2.9-0.2,3.8,0.7,3.8,3.7C168.2,264.8,168.2,281.5,168.2,298.2z"/>
<path class="st0" d="M395.8,299.2c0-16.8,0.1-33.7-0.1-50.5c0-2.8,0.7-3.7,3.5-3.5c3.6,0.2,7.2,0,10.8,0.1c4.7,0.2,6.9,2.4,6.9,7
	c0,31.3,0,62.7,0,94c0,4.7-2.1,6.8-6.8,6.9c-3.5,0.1-7-0.2-10.5,0.1c-3.1,0.2-4-0.6-4-3.8C395.9,332.6,395.8,315.9,395.8,299.2z"/>
<path class="st0" d="M423.3,299.5c0-8.7,0.1-17.5-0.1-26.2c-0.1-2.8,0.8-3.8,3.6-3.5c1.5,0.2,3-0.1,4.5,0.1c3.5,0.5,5.8,2.5,5.8,6.2
	c0.1,15.6,0.1,31.2,0,46.8c0,3.5-2.3,5.7-5.8,6.1c-8,0.9-8,0.9-8-7.1C423.3,314.5,423.3,307,423.3,299.5z"/>
<path class="st0" d="M140.6,298.7c0,8.9-0.1,17.7,0.1,26.6c0,2.5-0.7,3.3-3.2,3.1c-1.6-0.2-3.2,0.1-4.9-0.1
	c-3.4-0.3-5.7-2.2-5.7-5.7c-0.1-15.9-0.1-31.7,0-47.6c0-3,1.8-4.8,4.6-5.6c7-2,9.1-0.6,9.1,6.4C140.6,283.5,140.6,291.1,140.6,298.7
	z"/>
</svg>
