<?xml version="1.0" encoding="utf-8"?>
<!-- Generator: Adobe Illustrator 25.0.1, SVG Export Plug-In . SVG Version: 6.00 Build 0)  -->
<svg version="1.1" id="Layer_1" xmlns="http://www.w3.org/2000/svg" xmlns:xlink="http://www.w3.org/1999/xlink" x="0px" y="0px"
	 viewBox="0 0 400 400" style="enable-background:new 0 0 400 400;" xml:space="preserve">
<style type="text/css">
	.st0{fill:none;stroke:#A0A0A0;stroke-width:4;stroke-miterlimit:10;}
</style>
<g>
	<polyline class="st0" points="88.9,355.6 177.8,355.6 177.8,400 0,400 0,0 400,0 400,311.1 311.1,311.1 311.1,355.6 355.6,355.6 	
		"/>
	<polyline class="st0" points="400,355.6 400,400 222.2,400 222.2,311.1 88.9,311.1 88.9,266.7 266.7,266.7 266.7,177.8 
		222.2,177.8 222.2,222.2 	"/>
	<polyline class="st0" points="44.4,355.6 44.4,311.1 0,311.1 	"/>
	<polyline class="st0" points="0,266.7 44.4,266.7 44.4,222.2 133.3,222.2 133.3,133.3 177.8,133.3 177.8,222.2 	"/>
	<polyline class="st0" points="266.7,177.8 266.7,133.3 222.2,133.3 222.2,88.9 88.9,88.9 88.9,44.4 177.8,44.4 	"/>
	<polyline class="st0" points="222.2,0 222.2,44.4 266.7,44.4 	"/>
	<polyline class="st0" points="266.7,133.3 266.7,88.9 311.1,88.9 311.1,44.4 355.6,44.4 355.6,133.3 311.1,133.3 	"/>
	<polyline class="st0" points="400,177.8 311.1,177.8 311.1,266.7 355.6,266.7 355.6,222.2 	"/>
	<line class="st0" x1="222.2" y1="355.6" x2="266.7" y2="355.6"/>
	<line class="st0" x1="44.4" y1="177.8" x2="44.4" y2="0"/>
	<path class="st0" d="M88.9,177.8"/>
	<line class="st0" x1="88.9" y1="177.8" x2="88.9" y2="88.9"/>
</g>
<line class="st0" x1="311.1" y1="311.1" x2="266.7" y2="311.1"/>
</svg>
