<?xml version="1.0" encoding="utf-8"?>
<!-- Generator: Adobe Illustrator 25.0.1, SVG Export Plug-In . SVG Version: 6.00 Build 0)  -->
<svg version="1.1" id="Layer_1" xmlns="http://www.w3.org/2000/svg" xmlns:xlink="http://www.w3.org/1999/xlink" x="0px" y="0px"
	 viewBox="0 0 400 400" style="enable-background:new 0 0 400 400;" xml:space="preserve">
<style type="text/css">
	.st0{fill:none;stroke:#A0A0A0;stroke-width:4;stroke-miterlimit:10;}
	.st1{fill:#FFAB00;}
	.st2{fill:#FFFFFF;}
</style>
<g>
	<polyline class="st0" points="0,133.3 0,400 266.7,400 	"/>
	<polyline class="st0" points="311.1,400 400,400 400,177.8 	"/>
	<polyline class="st0" points="400,177.8 400,0 222.2,0 222.2,44.4 	"/>
	<polyline class="st0" points="177.8,44.4 177.8,0 0,0 0,88.9 	"/>
	<polyline class="st0" points="311.1,221.7 311.1,88.9 222.2,88.9 177.8,88.9 177.8,44.4 	"/>
	<polyline class="st0" points="44.4,355.6 133.3,355.6 133.3,311.1 222.2,311.1 222.2,266.7 311.1,266.7 	"/>
	<polyline class="st0" points="0,311.1 88.9,311.1 88.9,266.7 177.8,266.7 	"/>
	<polyline class="st0" points="177.8,400 177.8,355.6 266.7,355.6 266.7,311.1 311.1,311.1 355.6,311.1 355.6,355.6 311.1,355.6 	
		"/>
	<polyline class="st0" points="400,266.7 355.6,266.7 355.6,44.4 266.7,44.4 	"/>
	<polyline class="st0" points="44.4,266.7 44.4,88.9 133.3,88.9 133.3,44.4 44.4,44.4 44.4,0 	"/>
</g>
<g>
	<path class="st1" d="M123.8,173.9c0.3,0.3,0.5,0.8,0.5,1.3v6c0,0.5-0.2,0.9-0.5,1.3c-0.3,0.3-0.8,0.5-1.3,0.5H118
		c-2.2,0-4.2-0.4-6.2-1.1c-1.9-0.7-3.6-1.6-5-2.5s-3.3-2.4-5.8-4.3l-6.5-5c-1.2-1-2.3-1.7-3.3-2c-1-0.4-2.4-0.6-4.2-0.6
		c-4.1,0-8-1-11.5-3.1c-3.5-2-6.3-4.8-8.3-8.3c-2-3.5-3.1-7.3-3.1-11.4v-18.5c0-4.1,1-8,3.1-11.4c2-3.5,4.8-6.2,8.3-8.3
		c3.5-2,7.3-3.1,11.5-3.1s8,1,11.5,3.1c3.5,2,6.3,4.8,8.3,8.3c2,3.5,3.1,7.3,3.1,11.4v18.5c0,3.6-0.8,6.9-2.3,10
		c-1.6,3.1-3.7,5.7-6.4,7.9l4.5,3.7c-0.1-0.1,0.5,0.4,1.6,1.4c2.5,2,4.4,3.5,5.9,4.3c1.4,0.9,3,1.3,4.8,1.3h4.4
		C123,173.3,123.4,173.5,123.8,173.9z M76.5,151.1c1.1,2,2.6,3.5,4.5,4.7c1.9,1.2,3.9,1.7,6.1,1.7c2.2,0,4.2-0.6,6.1-1.7
		c1.9-1.2,3.4-2.7,4.5-4.7c1.1-2,1.7-4.1,1.7-6.3v-18.5c0-2.2-0.6-4.3-1.7-6.3c-1.1-2-2.6-3.5-4.5-4.7c-1.9-1.2-3.9-1.7-6.1-1.7
		c-2.2,0-4.2,0.6-6.1,1.7c-1.9,1.2-3.4,2.7-4.5,4.7c-1.1,2-1.7,4.1-1.7,6.3v18.5C74.8,147,75.3,149.1,76.5,151.1z"/>
	<path class="st1" d="M121.8,165.3c-0.7-0.7-1.1-1.6-1.1-2.5v-6.9c0-4.5,0.6-8.1,1.8-10.7c1.2-2.6,3.1-4.9,5.6-6.8
		c2.5-1.9,6.8-4.6,12.8-8.1c2.1-1.2,3.6-2.5,4.5-4s1.4-3.1,1.4-4.9c0-2.4-0.8-4.3-2.4-5.8c-1.6-1.4-3.8-2.2-6.6-2.2
		c-3.5,0-7,1.1-10.8,3.3c-0.3,0.2-0.7,0.3-1.1,0.3c-0.7,0-1.2-0.3-1.6-0.9l-2.8-5.2c-0.2-0.3-0.3-0.6-0.3-0.9c0-0.6,0.3-1.1,0.8-1.5
		c2.3-1.6,4.9-2.8,7.8-3.6c2.9-0.9,5.9-1.3,8.9-1.3c5.8,0,10.3,1.6,13.5,4.7c3.2,3.1,4.9,7.4,4.9,12.8c0,4-1,7.3-2.9,10.1
		c-2,2.7-5.2,5.5-9.7,8.4c-1.4,0.9-2.5,1.6-3.5,2.1c-2.5,1.5-4.4,2.7-5.7,3.8c-1.3,1-2.4,2.2-3.3,3.6c-0.9,1.4-1.3,3.1-1.3,5v2.5
		h22.4c0.5,0,0.9,0.2,1.3,0.5c0.3,0.3,0.5,0.8,0.5,1.3v6.4c0,0.5-0.2,0.9-0.5,1.3c-0.3,0.3-0.8,0.5-1.3,0.5h-28.9
		C123.4,166.3,122.5,166,121.8,165.3z"/>
	<path class="st2" d="M61.1,208.6c-0.3-0.3-0.5-0.7-0.5-1.1c0-0.4,0.2-0.8,0.5-1.1s0.7-0.5,1.1-0.5c0.4,0,0.8,0.2,1.1,0.5
		s0.4,0.7,0.4,1.1c0,0.4-0.1,0.8-0.4,1.1s-0.7,0.5-1.1,0.5C61.8,209.1,61.4,208.9,61.1,208.6z"/>
	<path class="st2" d="M76.7,213.9c-0.9-0.5-1.6-1.3-2.1-2.2c-0.5-0.9-0.8-1.9-0.8-3V203c0-1.1,0.3-2.1,0.8-3s1.2-1.6,2.1-2.2
		c0.9-0.5,1.9-0.8,2.9-0.8c0.9,0,1.7,0.2,2.4,0.5c0.8,0.3,1.4,0.7,2,1.3c0.1,0.1,0.1,0.2,0.1,0.3c0,0.1,0,0.2-0.1,0.3
		c-0.3,0.4-0.6,0.6-0.7,0.7c-0.1,0.1-0.2,0.1-0.3,0.1c-0.1,0-0.3-0.1-0.4-0.2c-0.8-0.8-1.8-1.2-3-1.2c-0.7,0-1.3,0.2-1.9,0.6
		c-0.6,0.4-1.1,0.9-1.4,1.5s-0.5,1.3-0.5,2v5.7c0,0.7,0.2,1.4,0.5,2c0.3,0.6,0.8,1.1,1.4,1.5c0.6,0.4,1.2,0.6,1.9,0.6
		c1.2,0,2.2-0.4,3-1.2c0.1-0.1,0.2-0.2,0.4-0.2c0.1,0,0.2,0,0.3,0.1c0.1,0.1,0.3,0.3,0.7,0.7c0.1,0.1,0.1,0.2,0.1,0.3
		c0,0.1,0,0.2-0.1,0.3c-0.6,0.6-1.2,1-2,1.3c-0.8,0.3-1.6,0.5-2.4,0.5C78.6,214.7,77.6,214.4,76.7,213.9z"/>
	<path class="st2" d="M89.6,214c-0.8-0.5-1.5-1.1-1.9-1.9c-0.5-0.8-0.7-1.7-0.7-2.7v-3.8c0-1,0.2-1.9,0.7-2.7
		c0.5-0.8,1.1-1.5,1.9-1.9c0.8-0.5,1.7-0.7,2.7-0.7c1,0,1.9,0.2,2.7,0.7c0.8,0.5,1.5,1.1,1.9,1.9c0.5,0.8,0.7,1.7,0.7,2.7v3.8
		c0,1-0.2,1.9-0.7,2.7c-0.5,0.8-1.1,1.5-1.9,1.9c-0.8,0.5-1.7,0.7-2.7,0.7C91.3,214.7,90.4,214.4,89.6,214z M94,212.4
		c0.5-0.3,0.9-0.7,1.2-1.2c0.3-0.5,0.5-1.1,0.5-1.7v-4.1c0-0.6-0.2-1.2-0.5-1.7c-0.3-0.5-0.7-0.9-1.2-1.2s-1.1-0.5-1.7-0.5
		s-1.2,0.2-1.7,0.5s-0.9,0.7-1.2,1.2c-0.3,0.5-0.5,1.1-0.5,1.7v4.1c0,0.6,0.2,1.2,0.5,1.7c0.3,0.5,0.7,0.9,1.2,1.2
		c0.5,0.3,1.1,0.5,1.7,0.5S93.4,212.7,94,212.4z"/>
	<path class="st2" d="M102.1,214.1c-0.2-0.2-0.3-0.4-0.3-0.6v-15.9h-2.3c-0.1,0-0.2,0-0.2-0.1s-0.1-0.1-0.1-0.2v-1.1
		c0-0.1,0-0.2,0.1-0.2c0.1-0.1,0.1-0.1,0.2-0.1h3.3c0.2,0,0.5,0.1,0.6,0.3c0.2,0.2,0.3,0.4,0.3,0.6v15.9h2.6c0.1,0,0.2,0,0.2,0.1
		c0.1,0.1,0.1,0.1,0.1,0.2v1.1c0,0.1,0,0.2-0.1,0.2c-0.1,0.1-0.1,0.1-0.2,0.1h-3.6C102.5,214.3,102.3,214.3,102.1,214.1z"/>
	<path class="st2" d="M110.6,214.1c-0.2-0.2-0.3-0.4-0.3-0.6v-15.9H108c-0.1,0-0.2,0-0.2-0.1s-0.1-0.1-0.1-0.2v-1.1
		c0-0.1,0-0.2,0.1-0.2c0.1-0.1,0.1-0.1,0.2-0.1h3.3c0.2,0,0.5,0.1,0.6,0.3c0.2,0.2,0.3,0.4,0.3,0.6v15.9h2.6c0.1,0,0.2,0,0.2,0.1
		c0.1,0.1,0.1,0.1,0.1,0.2v1.1c0,0.1,0,0.2-0.1,0.2c-0.1,0.1-0.1,0.1-0.2,0.1h-3.6C111,214.3,110.8,214.3,110.6,214.1z"/>
	<path class="st2" d="M120.1,213.6c-0.8-0.5-1.5-1.1-1.9-1.9c-0.5-0.8-0.7-1.7-0.7-2.7v-3.5c0-1,0.2-1.9,0.7-2.7
		c0.5-0.8,1.1-1.5,1.9-1.9c0.8-0.5,1.7-0.7,2.7-0.7c1,0,1.9,0.2,2.7,0.7c0.8,0.5,1.5,1.1,1.9,1.9c0.5,0.8,0.7,1.7,0.7,2.7v1.7
		c0,0.2-0.1,0.5-0.3,0.6c-0.2,0.2-0.4,0.3-0.6,0.3h-7.8v1.1c0,0.6,0.2,1.2,0.5,1.7c0.3,0.5,0.7,0.9,1.2,1.2s1.1,0.5,1.7,0.5h3.5
		c0.1,0,0.2,0,0.2,0.1c0.1,0.1,0.1,0.1,0.1,0.2v1.1c0,0.1,0,0.2-0.1,0.2c-0.1,0.1-0.1,0.1-0.2,0.1h-3.5
		C121.8,214.3,121,214.1,120.1,213.6z M126.2,206.3v-0.9c0-0.6-0.2-1.2-0.5-1.7c-0.3-0.5-0.7-0.9-1.2-1.2s-1.1-0.5-1.7-0.5
		s-1.2,0.2-1.7,0.5s-0.9,0.7-1.2,1.2c-0.3,0.5-0.5,1.1-0.5,1.7v0.9H126.2z"/>
	<path class="st2" d="M133.8,214c-0.8-0.5-1.5-1.1-1.9-1.9c-0.5-0.8-0.7-1.7-0.7-2.7v-3.8c0-1,0.2-1.9,0.7-2.7
		c0.5-0.8,1.1-1.5,1.9-1.9c0.8-0.5,1.7-0.7,2.7-0.7c0.7,0,1.4,0.1,2,0.4c0.6,0.3,1.2,0.6,1.7,1.1c0.1,0.1,0.1,0.2,0.1,0.3
		c0,0.1,0,0.2-0.1,0.4c-0.2,0.2-0.4,0.4-0.6,0.6c-0.1,0.1-0.2,0.1-0.4,0.1c-0.1,0-0.3-0.1-0.4-0.2c-0.7-0.6-1.4-0.9-2.3-0.9
		c-0.6,0-1.2,0.2-1.7,0.5s-0.9,0.7-1.2,1.2c-0.3,0.5-0.5,1.1-0.5,1.7v4.1c0,0.6,0.2,1.2,0.5,1.7c0.3,0.5,0.7,0.9,1.2,1.2
		c0.5,0.3,1.1,0.5,1.7,0.5c0.9,0,1.7-0.3,2.3-0.9c0.1-0.1,0.2-0.2,0.4-0.2c0.1,0,0.3,0,0.4,0.1c0.2,0.2,0.4,0.4,0.6,0.6
		c0.1,0.1,0.1,0.2,0.1,0.4c0,0.1,0,0.2-0.1,0.3c-0.5,0.5-1,0.8-1.7,1.1s-1.3,0.4-2,0.4C135.5,214.7,134.6,214.4,133.8,214z"/>
	<path class="st2" d="M145.5,213.3c-0.7-0.7-1-1.6-1-2.7v-8.3h-1.6c-0.1,0-0.2,0-0.2-0.1c-0.1-0.1-0.1-0.1-0.1-0.2v-1.1
		c0-0.1,0-0.2,0.1-0.2c0.1-0.1,0.1-0.1,0.2-0.1h1.6v-2.6c0-0.1,0-0.2,0.1-0.2c0.1-0.1,0.1-0.1,0.2-0.1h1.2c0.1,0,0.2,0,0.2,0.1
		c0.1,0.1,0.1,0.1,0.1,0.2v2.6h4.3c0.1,0,0.2,0,0.2,0.1s0.1,0.1,0.1,0.2v1.1c0,0.1,0,0.2-0.1,0.2s-0.1,0.1-0.2,0.1h-4.3v8.1
		c0,0.6,0.2,1.1,0.6,1.5c0.4,0.4,0.9,0.6,1.5,0.6l2.2,0c0.1,0,0.2,0,0.2,0.1s0.1,0.1,0.1,0.2v1.1c0,0.1,0,0.2-0.1,0.2
		s-0.1,0.1-0.2,0.1h-2.4C147.1,214.3,146.2,214,145.5,213.3z"/>
	<path class="st2" d="M156.7,214.1c-0.2-0.2-0.3-0.4-0.3-0.6v-11.2h-2.5c-0.1,0-0.2,0-0.2-0.1s-0.1-0.1-0.1-0.2v-1.1
		c0-0.1,0-0.2,0.1-0.2s0.1-0.1,0.2-0.1h3.6c0.2,0,0.5,0.1,0.6,0.3c0.2,0.2,0.3,0.4,0.3,0.6v11.2h2.5c0.1,0,0.2,0,0.2,0.1
		s0.1,0.1,0.1,0.2v1.1c0,0.1,0,0.2-0.1,0.2s-0.1,0.1-0.2,0.1h-3.5C157,214.3,156.8,214.3,156.7,214.1z M156.5,198.5
		c-0.1-0.1-0.1-0.1-0.1-0.2v-2.1c0-0.1,0-0.2,0.1-0.2c0.1-0.1,0.1-0.1,0.2-0.1h1.2c0.1,0,0.2,0,0.2,0.1c0.1,0.1,0.1,0.1,0.1,0.2v2.1
		c0,0.1,0,0.2-0.1,0.2c-0.1,0.1-0.1,0.1-0.2,0.1h-1.2C156.7,198.6,156.6,198.6,156.5,198.5z"/>
	<path class="st2" d="M166,214c-0.8-0.5-1.5-1.1-1.9-1.9c-0.5-0.8-0.7-1.7-0.7-2.7v-3.8c0-1,0.2-1.9,0.7-2.7
		c0.5-0.8,1.1-1.5,1.9-1.9c0.8-0.5,1.7-0.7,2.7-0.7c1,0,1.9,0.2,2.7,0.7c0.8,0.5,1.5,1.1,1.9,1.9c0.5,0.8,0.7,1.7,0.7,2.7v3.8
		c0,1-0.2,1.9-0.7,2.7c-0.5,0.8-1.1,1.5-1.9,1.9c-0.8,0.5-1.7,0.7-2.7,0.7C167.7,214.7,166.8,214.4,166,214z M170.4,212.4
		c0.5-0.3,0.9-0.7,1.2-1.2c0.3-0.5,0.5-1.1,0.5-1.7v-4.1c0-0.6-0.2-1.2-0.5-1.7c-0.3-0.5-0.7-0.9-1.2-1.2s-1.1-0.5-1.7-0.5
		s-1.2,0.2-1.7,0.5s-0.9,0.7-1.2,1.2c-0.3,0.5-0.5,1.1-0.5,1.7v4.1c0,0.6,0.2,1.2,0.5,1.7c0.3,0.5,0.7,0.9,1.2,1.2
		c0.5,0.3,1.1,0.5,1.7,0.5S169.9,212.7,170.4,212.4z"/>
	<path class="st2" d="M177.9,214.2c-0.1-0.1-0.1-0.1-0.1-0.2v-13.1c0-0.1,0-0.2,0.1-0.2c0.1-0.1,0.1-0.1,0.2-0.1h1.2
		c0.1,0,0.2,0,0.2,0.1s0.1,0.1,0.1,0.2v1.3c0.4-0.7,1-1.2,1.7-1.5s1.4-0.5,2.3-0.5c1.4,0,2.5,0.4,3.4,1.3s1.3,2,1.3,3.4v9.2
		c0,0.1,0,0.2-0.1,0.2s-0.1,0.1-0.2,0.1h-1.2c-0.1,0-0.2,0-0.2-0.1s-0.1-0.1-0.1-0.2v-8.8c0-1-0.3-1.8-0.8-2.4s-1.3-0.8-2.2-0.8
		c-1.1,0-2,0.4-2.6,1.1s-1,1.7-1,3v8c0,0.1,0,0.2-0.1,0.2s-0.1,0.1-0.2,0.1h-1.2C178,214.3,178,214.3,177.9,214.2z"/>
	<path class="st2" d="M199.2,214.1c-0.2-0.2-0.3-0.4-0.3-0.6v-15.8c0-0.1,0-0.2,0.1-0.2c0.1-0.1,0.1-0.1,0.2-0.1h1.3
		c0.1,0,0.2,0,0.2,0.1c0.1,0.1,0.1,0.1,0.1,0.2v14.8h6.2c0.1,0,0.2,0,0.2,0.1c0.1,0.1,0.1,0.1,0.1,0.2v1.2c0,0.1,0,0.2-0.1,0.2
		s-0.1,0.1-0.2,0.1h-7.3C199.6,214.3,199.4,214.3,199.2,214.1z"/>
	<path class="st2" d="M210.9,213.6c-0.8-0.7-1.2-1.6-1.2-2.8c0-1.1,0.4-2,1.1-2.7c0.7-0.7,1.7-1.1,3-1.3l3.2-0.4
		c0.5-0.1,0.8-0.2,1-0.5c0.2-0.3,0.3-0.6,0.3-1.1v-0.2c0-0.8-0.3-1.4-0.9-1.9c-0.6-0.5-1.4-0.7-2.3-0.7c-0.7,0-1.3,0.1-1.9,0.4
		s-1,0.7-1.3,1.2c-0.1,0.2-0.3,0.3-0.5,0.3c-0.1,0-0.2,0-0.3-0.1l-0.7-0.4c-0.1-0.1-0.2-0.3-0.2-0.4c0-0.1,0-0.1,0.1-0.2
		c0.5-0.8,1.1-1.4,1.9-1.8c0.8-0.4,1.8-0.7,2.9-0.7c1,0,1.9,0.2,2.6,0.5c0.8,0.4,1.4,0.9,1.8,1.6s0.6,1.4,0.6,2.3v9.4
		c0,0.1,0,0.2-0.1,0.2s-0.1,0.1-0.2,0.1h-1c-0.1,0-0.2,0-0.2-0.1s-0.1-0.1-0.1-0.2v-1.7c-0.5,0.7-1.2,1.3-1.9,1.7
		c-0.8,0.4-1.7,0.6-2.6,0.6C212.7,214.7,211.7,214.3,210.9,213.6z M216.4,212.3c0.7-0.4,1.2-1,1.5-1.6s0.6-1.3,0.6-1.9v-1
		c-0.4,0-1.6,0.2-3.8,0.5l-0.7,0.1c-1.6,0.2-2.4,1-2.4,2.3c0,0.7,0.2,1.2,0.7,1.6s1.1,0.6,1.9,0.6
		C215,212.9,215.7,212.7,216.4,212.3z"/>
	<path class="st2" d="M225.6,213.4c-0.9-0.8-1.3-2-1.3-3.4v-9.2c0-0.1,0-0.2,0.1-0.2s0.1-0.1,0.2-0.1h1.2c0.1,0,0.2,0,0.2,0.1
		s0.1,0.1,0.1,0.2v8.8c0,1,0.3,1.8,0.8,2.4s1.3,0.8,2.2,0.8c1.1,0,2-0.4,2.6-1.1c0.7-0.7,1-1.7,1-3v-8c0-0.1,0-0.2,0.1-0.2
		s0.1-0.1,0.2-0.1h1.2c0.1,0,0.2,0,0.2,0.1c0.1,0.1,0.1,0.1,0.1,0.2V214c0,0.1,0,0.2-0.1,0.2c-0.1,0.1-0.1,0.1-0.2,0.1h-1.2
		c-0.1,0-0.2,0-0.2-0.1s-0.1-0.1-0.1-0.2v-1.4c-0.4,0.7-1,1.2-1.7,1.5c-0.7,0.3-1.4,0.5-2.3,0.5
		C227.6,214.7,226.4,214.2,225.6,213.4z"/>
	<path class="st2" d="M239.3,214.2c-0.1-0.1-0.1-0.1-0.1-0.2v-13.1c0-0.1,0-0.2,0.1-0.2c0.1-0.1,0.1-0.1,0.2-0.1h1.2
		c0.1,0,0.2,0,0.2,0.1s0.1,0.1,0.1,0.2v1.3c0.4-0.7,1-1.2,1.7-1.5s1.4-0.5,2.3-0.5c1.4,0,2.5,0.4,3.4,1.3s1.3,2,1.3,3.4v9.2
		c0,0.1,0,0.2-0.1,0.2s-0.1,0.1-0.2,0.1h-1.2c-0.1,0-0.2,0-0.2-0.1s-0.1-0.1-0.1-0.2v-8.8c0-1-0.3-1.8-0.8-2.4s-1.3-0.8-2.2-0.8
		c-1.1,0-2,0.4-2.6,1.1s-1,1.7-1,3v8c0,0.1,0,0.2-0.1,0.2s-0.1,0.1-0.2,0.1h-1.2C239.5,214.3,239.4,214.3,239.3,214.2z"/>
	<path class="st2" d="M255.9,214c-0.8-0.5-1.5-1.1-1.9-1.9c-0.5-0.8-0.7-1.7-0.7-2.7v-3.8c0-1,0.2-1.9,0.7-2.7
		c0.5-0.8,1.1-1.5,1.9-1.9c0.8-0.5,1.7-0.7,2.7-0.7c0.7,0,1.4,0.1,2,0.4c0.6,0.3,1.2,0.6,1.7,1.1c0.1,0.1,0.1,0.2,0.1,0.3
		c0,0.1,0,0.2-0.1,0.4c-0.2,0.2-0.4,0.4-0.6,0.6c-0.1,0.1-0.2,0.1-0.4,0.1c-0.1,0-0.3-0.1-0.4-0.2c-0.7-0.6-1.4-0.9-2.3-0.9
		c-0.6,0-1.2,0.2-1.7,0.5s-0.9,0.7-1.2,1.2c-0.3,0.5-0.5,1.1-0.5,1.7v4.1c0,0.6,0.2,1.2,0.5,1.7c0.3,0.5,0.7,0.9,1.2,1.2
		c0.5,0.3,1.1,0.5,1.7,0.5c0.9,0,1.7-0.3,2.3-0.9c0.1-0.1,0.2-0.2,0.4-0.2c0.1,0,0.3,0,0.4,0.1c0.2,0.2,0.4,0.4,0.6,0.6
		c0.1,0.1,0.1,0.2,0.1,0.4c0,0.1,0,0.2-0.1,0.3c-0.5,0.5-1,0.8-1.7,1.1s-1.3,0.4-2,0.4C257.6,214.7,256.7,214.4,255.9,214z"/>
	<path class="st2" d="M266,214.2c-0.1-0.1-0.1-0.1-0.1-0.2v-17.9c0-0.1,0-0.2,0.1-0.2c0.1-0.1,0.1-0.1,0.2-0.1h1.2
		c0.1,0,0.2,0,0.2,0.1c0.1,0.1,0.1,0.1,0.1,0.2v6.1c0.4-0.7,1-1.2,1.7-1.5s1.4-0.5,2.3-0.5c1.4,0,2.5,0.4,3.4,1.3s1.3,2,1.3,3.4v9.2
		c0,0.1,0,0.2-0.1,0.2s-0.1,0.1-0.2,0.1h-1.2c-0.1,0-0.2,0-0.2-0.1s-0.1-0.1-0.1-0.2v-8.8c0-1-0.3-1.8-0.8-2.4s-1.3-0.8-2.2-0.8
		c-1.1,0-2,0.4-2.6,1.1s-1,1.7-1,3v8c0,0.1,0,0.2-0.1,0.2s-0.1,0.1-0.2,0.1h-1.2C266.2,214.3,266.1,214.3,266,214.2z"/>
	<path class="st2" d="M61.1,244.4c-0.3-0.3-0.5-0.7-0.5-1.1c0-0.4,0.2-0.8,0.5-1.1s0.7-0.5,1.1-0.5c0.4,0,0.8,0.2,1.1,0.5
		s0.4,0.7,0.4,1.1c0,0.4-0.1,0.8-0.4,1.1s-0.7,0.5-1.1,0.5C61.8,244.9,61.4,244.7,61.1,244.4z"/>
	<path class="st2" d="M76.7,249.7c-0.9-0.5-1.6-1.3-2.1-2.2c-0.5-0.9-0.8-1.9-0.8-3v-5.7c0-1.1,0.3-2.1,0.8-3s1.2-1.6,2.1-2.2
		c0.9-0.5,1.9-0.8,2.9-0.8c0.9,0,1.7,0.2,2.4,0.5c0.8,0.3,1.4,0.7,2,1.3c0.1,0.1,0.1,0.2,0.1,0.3c0,0.1,0,0.2-0.1,0.3
		c-0.3,0.4-0.6,0.6-0.7,0.7c-0.1,0.1-0.2,0.1-0.3,0.1c-0.1,0-0.3-0.1-0.4-0.2c-0.8-0.8-1.8-1.2-3-1.2c-0.7,0-1.3,0.2-1.9,0.6
		c-0.6,0.4-1.1,0.9-1.4,1.5s-0.5,1.3-0.5,2v5.7c0,0.7,0.2,1.4,0.5,2c0.3,0.6,0.8,1.1,1.4,1.5c0.6,0.4,1.2,0.6,1.9,0.6
		c1.2,0,2.2-0.4,3-1.2c0.1-0.1,0.2-0.2,0.4-0.2c0.1,0,0.2,0,0.3,0.1c0.1,0.1,0.3,0.3,0.7,0.7c0.1,0.1,0.1,0.2,0.1,0.3
		c0,0.1,0,0.2-0.1,0.3c-0.6,0.6-1.2,1-2,1.3c-0.8,0.3-1.6,0.5-2.4,0.5C78.6,250.5,77.6,250.2,76.7,249.7z"/>
	<path class="st2" d="M89.6,249.8c-0.8-0.5-1.5-1.1-1.9-1.9c-0.5-0.8-0.7-1.7-0.7-2.7v-3.8c0-1,0.2-1.9,0.7-2.7
		c0.5-0.8,1.1-1.5,1.9-1.9c0.8-0.5,1.7-0.7,2.7-0.7c1,0,1.9,0.2,2.7,0.7c0.8,0.5,1.5,1.1,1.9,1.9c0.5,0.8,0.7,1.7,0.7,2.7v3.8
		c0,1-0.2,1.9-0.7,2.7c-0.5,0.8-1.1,1.5-1.9,1.9c-0.8,0.5-1.7,0.7-2.7,0.7C91.3,250.5,90.4,250.2,89.6,249.8z M94,248.2
		c0.5-0.3,0.9-0.7,1.2-1.2c0.3-0.5,0.5-1.1,0.5-1.7v-4.1c0-0.6-0.2-1.2-0.5-1.7c-0.3-0.5-0.7-0.9-1.2-1.2s-1.1-0.5-1.7-0.5
		s-1.2,0.2-1.7,0.5s-0.9,0.7-1.2,1.2c-0.3,0.5-0.5,1.1-0.5,1.7v4.1c0,0.6,0.2,1.2,0.5,1.7c0.3,0.5,0.7,0.9,1.2,1.2
		c0.5,0.3,1.1,0.5,1.7,0.5S93.4,248.5,94,248.2z"/>
	<path class="st2" d="M101.4,250.1c-0.1-0.1-0.1-0.1-0.1-0.2v-13.2c0-0.1,0-0.2,0.1-0.2c0.1-0.1,0.1-0.1,0.2-0.1h1.2
		c0.1,0,0.2,0,0.2,0.1s0.1,0.1,0.1,0.2v1.3c0.4-0.7,0.9-1.1,1.6-1.5c0.6-0.3,1.4-0.5,2.1-0.5c1,0,1.9,0.2,2.7,0.7
		c0.8,0.5,1.3,1.1,1.6,2c0.3-0.9,0.9-1.5,1.6-2c0.7-0.5,1.5-0.7,2.4-0.7c1.4,0,2.5,0.4,3.4,1.3s1.3,2,1.3,3.4v9.2
		c0,0.1,0,0.2-0.1,0.2s-0.1,0.1-0.2,0.1h-1.2c-0.1,0-0.2,0-0.2-0.1c-0.1-0.1-0.1-0.1-0.1-0.2V241c0-1-0.3-1.8-0.8-2.4
		s-1.3-0.8-2.2-0.8c-1,0-1.8,0.4-2.5,1.1s-0.9,1.7-0.9,3v8c0,0.1,0,0.2-0.1,0.2c-0.1,0.1-0.1,0.1-0.2,0.1H110c-0.1,0-0.2,0-0.2-0.1
		s-0.1-0.1-0.1-0.2V241c0-1-0.3-1.8-0.8-2.4c-0.5-0.5-1.3-0.8-2.2-0.8c-1,0-1.8,0.4-2.5,1.1c-0.6,0.7-0.9,1.7-0.9,3v8
		c0,0.1,0,0.2-0.1,0.2s-0.1,0.1-0.2,0.1h-1.2C101.6,250.2,101.5,250.1,101.4,250.1z"/>
	<path class="st2" d="M124.1,250.1c-0.1-0.1-0.1-0.1-0.1-0.2v-13.2c0-0.1,0-0.2,0.1-0.2c0.1-0.1,0.1-0.1,0.2-0.1h1.2
		c0.1,0,0.2,0,0.2,0.1s0.1,0.1,0.1,0.2v1.3c0.4-0.7,0.9-1.1,1.6-1.5c0.6-0.3,1.4-0.5,2.1-0.5c1,0,1.9,0.2,2.7,0.7
		c0.8,0.5,1.3,1.1,1.6,2c0.3-0.9,0.9-1.5,1.6-2c0.7-0.5,1.5-0.7,2.4-0.7c1.4,0,2.5,0.4,3.4,1.3s1.3,2,1.3,3.4v9.2
		c0,0.1,0,0.2-0.1,0.2s-0.1,0.1-0.2,0.1H141c-0.1,0-0.2,0-0.2-0.1c-0.1-0.1-0.1-0.1-0.1-0.2V241c0-1-0.3-1.8-0.8-2.4
		s-1.3-0.8-2.2-0.8c-1,0-1.8,0.4-2.5,1.1s-0.9,1.7-0.9,3v8c0,0.1,0,0.2-0.1,0.2c-0.1,0.1-0.1,0.1-0.2,0.1h-1.2c-0.1,0-0.2,0-0.2-0.1
		s-0.1-0.1-0.1-0.2V241c0-1-0.3-1.8-0.8-2.4c-0.5-0.5-1.3-0.8-2.2-0.8c-1,0-1.8,0.4-2.5,1.1c-0.6,0.7-0.9,1.7-0.9,3v8
		c0,0.1,0,0.2-0.1,0.2s-0.1,0.1-0.2,0.1h-1.2C124.2,250.2,124.1,250.1,124.1,250.1z"/>
	<path class="st2" d="M147.8,249.2c-0.9-0.8-1.3-2-1.3-3.4v-9.2c0-0.1,0-0.2,0.1-0.2s0.1-0.1,0.2-0.1h1.2c0.1,0,0.2,0,0.2,0.1
		s0.1,0.1,0.1,0.2v8.8c0,1,0.3,1.8,0.8,2.4s1.3,0.8,2.2,0.8c1.1,0,2-0.4,2.6-1.1c0.7-0.7,1-1.7,1-3v-8c0-0.1,0-0.2,0.1-0.2
		s0.1-0.1,0.2-0.1h1.2c0.1,0,0.2,0,0.2,0.1c0.1,0.1,0.1,0.1,0.1,0.2v13.2c0,0.1,0,0.2-0.1,0.2c-0.1,0.1-0.1,0.1-0.2,0.1h-1.2
		c-0.1,0-0.2,0-0.2-0.1s-0.1-0.1-0.1-0.2v-1.4c-0.4,0.7-1,1.2-1.7,1.5c-0.7,0.3-1.4,0.5-2.3,0.5
		C149.8,250.5,148.6,250.1,147.8,249.2z"/>
	<path class="st2" d="M161.5,250c-0.1-0.1-0.1-0.1-0.1-0.2v-13.1c0-0.1,0-0.2,0.1-0.2c0.1-0.1,0.1-0.1,0.2-0.1h1.2
		c0.1,0,0.2,0,0.2,0.1s0.1,0.1,0.1,0.2v1.3c0.4-0.7,1-1.2,1.7-1.5s1.4-0.5,2.3-0.5c1.4,0,2.5,0.4,3.4,1.3s1.3,2,1.3,3.4v9.2
		c0,0.1,0,0.2-0.1,0.2s-0.1,0.1-0.2,0.1h-1.2c-0.1,0-0.2,0-0.2-0.1s-0.1-0.1-0.1-0.2V241c0-1-0.3-1.8-0.8-2.4s-1.3-0.8-2.2-0.8
		c-1.1,0-2,0.4-2.6,1.1s-1,1.7-1,3v8c0,0.1,0,0.2-0.1,0.2s-0.1,0.1-0.2,0.1h-1.2C161.6,250.1,161.6,250.1,161.5,250z"/>
	<path class="st2" d="M178,249.9c-0.2-0.2-0.3-0.4-0.3-0.6v-11.2h-2.5c-0.1,0-0.2,0-0.2-0.1s-0.1-0.1-0.1-0.2v-1.1
		c0-0.1,0-0.2,0.1-0.2s0.1-0.1,0.2-0.1h3.6c0.2,0,0.5,0.1,0.6,0.3c0.2,0.2,0.3,0.4,0.3,0.6v11.2h2.5c0.1,0,0.2,0,0.2,0.1
		s0.1,0.1,0.1,0.2v1.1c0,0.1,0,0.2-0.1,0.2s-0.1,0.1-0.2,0.1h-3.5C178.4,250.2,178.2,250.1,178,249.9z M177.9,234.3
		c-0.1-0.1-0.1-0.1-0.1-0.2v-2.1c0-0.1,0-0.2,0.1-0.2c0.1-0.1,0.1-0.1,0.2-0.1h1.2c0.1,0,0.2,0,0.2,0.1c0.1,0.1,0.1,0.1,0.1,0.2v2.1
		c0,0.1,0,0.2-0.1,0.2c-0.1,0.1-0.1,0.1-0.2,0.1h-1.2C178,234.4,177.9,234.4,177.9,234.3z"/>
	<path class="st2" d="M186.9,249.1c-0.7-0.7-1-1.6-1-2.7v-8.3h-1.6c-0.1,0-0.2,0-0.2-0.1c-0.1-0.1-0.1-0.1-0.1-0.2v-1.1
		c0-0.1,0-0.2,0.1-0.2c0.1-0.1,0.1-0.1,0.2-0.1h1.6v-2.6c0-0.1,0-0.2,0.1-0.2c0.1-0.1,0.1-0.1,0.2-0.1h1.2c0.1,0,0.2,0,0.2,0.1
		c0.1,0.1,0.1,0.1,0.1,0.2v2.6h4.3c0.1,0,0.2,0,0.2,0.1s0.1,0.1,0.1,0.2v1.1c0,0.1,0,0.2-0.1,0.2s-0.1,0.1-0.2,0.1h-4.3v8.1
		c0,0.6,0.2,1.1,0.6,1.5c0.4,0.4,0.9,0.6,1.5,0.6l2.2,0c0.1,0,0.2,0,0.2,0.1s0.1,0.1,0.1,0.2v1.1c0,0.1,0,0.2-0.1,0.2
		s-0.1,0.1-0.2,0.1h-2.4C188.5,250.2,187.6,249.8,186.9,249.1z"/>
	<path class="st2" d="M198.4,254.7c-0.1-0.1-0.1-0.2,0-0.4l1.4-4.1l-4.9-13.5c0,0,0-0.1,0-0.2c0-0.1,0-0.2,0.1-0.3
		c0.1-0.1,0.2-0.1,0.3-0.1h1.1c0.1,0,0.2,0,0.3,0.1c0.1,0.1,0.2,0.1,0.2,0.2l3.8,11l3.8-11c0-0.1,0.1-0.2,0.2-0.2
		c0.1-0.1,0.2-0.1,0.3-0.1h1.1c0.1,0,0.3,0.1,0.3,0.2c0.1,0.1,0.1,0.2,0,0.4l-6.3,17.7c0,0.1-0.1,0.2-0.2,0.2
		c-0.1,0.1-0.2,0.1-0.3,0.1h-1C198.6,254.9,198.5,254.8,198.4,254.7z"/>
	<path class="st2" d="M218.5,249.7c-0.9-0.5-1.6-1.3-2.1-2.2c-0.5-0.9-0.8-1.9-0.8-3v-5.7c0-1.1,0.3-2.1,0.8-3s1.2-1.6,2.1-2.2
		c0.9-0.5,1.9-0.8,2.9-0.8c0.9,0,1.7,0.2,2.4,0.5c0.8,0.3,1.4,0.7,2,1.3c0.1,0.1,0.1,0.2,0.1,0.3c0,0.1,0,0.2-0.1,0.3
		c-0.3,0.4-0.6,0.6-0.7,0.7c-0.1,0.1-0.2,0.1-0.3,0.1c-0.1,0-0.3-0.1-0.4-0.2c-0.8-0.8-1.8-1.2-3-1.2c-0.7,0-1.3,0.2-1.9,0.6
		c-0.6,0.4-1.1,0.9-1.4,1.5s-0.5,1.3-0.5,2v5.7c0,0.7,0.2,1.4,0.5,2c0.3,0.6,0.8,1.1,1.4,1.5c0.6,0.4,1.2,0.6,1.9,0.6
		c1.2,0,2.2-0.4,3-1.2c0.1-0.1,0.2-0.2,0.4-0.2c0.1,0,0.2,0,0.3,0.1c0.1,0.1,0.3,0.3,0.7,0.7c0.1,0.1,0.1,0.2,0.1,0.3
		c0,0.1,0,0.2-0.1,0.3c-0.6,0.6-1.2,1-2,1.3c-0.8,0.3-1.6,0.5-2.4,0.5C220.4,250.5,219.4,250.2,218.5,249.7z"/>
	<path class="st2" d="M231.4,249.8c-0.8-0.5-1.5-1.1-1.9-1.9c-0.5-0.8-0.7-1.7-0.7-2.7v-3.8c0-1,0.2-1.9,0.7-2.7
		c0.5-0.8,1.1-1.5,1.9-1.9c0.8-0.5,1.7-0.7,2.7-0.7c1,0,1.9,0.2,2.7,0.7c0.8,0.5,1.5,1.1,1.9,1.9c0.5,0.8,0.7,1.7,0.7,2.7v3.8
		c0,1-0.2,1.9-0.7,2.7c-0.5,0.8-1.1,1.5-1.9,1.9c-0.8,0.5-1.7,0.7-2.7,0.7C233.1,250.5,232.2,250.2,231.4,249.8z M235.8,248.2
		c0.5-0.3,0.9-0.7,1.2-1.2c0.3-0.5,0.5-1.1,0.5-1.7v-4.1c0-0.6-0.2-1.2-0.5-1.7c-0.3-0.5-0.7-0.9-1.2-1.2s-1.1-0.5-1.7-0.5
		s-1.2,0.2-1.7,0.5s-0.9,0.7-1.2,1.2c-0.3,0.5-0.5,1.1-0.5,1.7v4.1c0,0.6,0.2,1.2,0.5,1.7c0.3,0.5,0.7,0.9,1.2,1.2
		c0.5,0.3,1.1,0.5,1.7,0.5S235.2,248.5,235.8,248.2z"/>
	<path class="st2" d="M243.3,250c-0.1-0.1-0.1-0.1-0.1-0.2v-13.1c0-0.1,0-0.2,0.1-0.2c0.1-0.1,0.1-0.1,0.2-0.1h1.2
		c0.1,0,0.2,0,0.2,0.1s0.1,0.1,0.1,0.2v1.3c0.4-0.7,1-1.2,1.7-1.5s1.4-0.5,2.3-0.5c1.4,0,2.5,0.4,3.4,1.3s1.3,2,1.3,3.4v9.2
		c0,0.1,0,0.2-0.1,0.2s-0.1,0.1-0.2,0.1h-1.2c-0.1,0-0.2,0-0.2-0.1s-0.1-0.1-0.1-0.2V241c0-1-0.3-1.8-0.8-2.4s-1.3-0.8-2.2-0.8
		c-1.1,0-2,0.4-2.6,1.1s-1,1.7-1,3v8c0,0.1,0,0.2-0.1,0.2s-0.1,0.1-0.2,0.1h-1.2C243.4,250.1,243.3,250.1,243.3,250z"/>
	<path class="st2" d="M259.3,249.1c-0.7-0.7-1-1.6-1-2.7v-8.3h-1.6c-0.1,0-0.2,0-0.2-0.1c-0.1-0.1-0.1-0.1-0.1-0.2v-1.1
		c0-0.1,0-0.2,0.1-0.2c0.1-0.1,0.1-0.1,0.2-0.1h1.6v-2.6c0-0.1,0-0.2,0.1-0.2c0.1-0.1,0.1-0.1,0.2-0.1h1.2c0.1,0,0.2,0,0.2,0.1
		c0.1,0.1,0.1,0.1,0.1,0.2v2.6h4.3c0.1,0,0.2,0,0.2,0.1s0.1,0.1,0.1,0.2v1.1c0,0.1,0,0.2-0.1,0.2s-0.1,0.1-0.2,0.1h-4.3v8.1
		c0,0.6,0.2,1.1,0.6,1.5c0.4,0.4,0.9,0.6,1.5,0.6l2.2,0c0.1,0,0.2,0,0.2,0.1s0.1,0.1,0.1,0.2v1.1c0,0.1,0,0.2-0.1,0.2
		s-0.1,0.1-0.2,0.1h-2.4C260.9,250.2,260,249.8,259.3,249.1z"/>
	<path class="st2" d="M270.1,249.5c-0.8-0.5-1.5-1.1-1.9-1.9c-0.5-0.8-0.7-1.7-0.7-2.7v-3.5c0-1,0.2-1.9,0.7-2.7
		c0.5-0.8,1.1-1.5,1.9-1.9c0.8-0.5,1.7-0.7,2.7-0.7c1,0,1.9,0.2,2.7,0.7c0.8,0.5,1.5,1.1,1.9,1.9c0.5,0.8,0.7,1.7,0.7,2.7v1.7
		c0,0.2-0.1,0.5-0.3,0.6c-0.2,0.2-0.4,0.3-0.6,0.3h-7.8v1.1c0,0.6,0.2,1.2,0.5,1.7c0.3,0.5,0.7,0.9,1.2,1.2s1.1,0.5,1.7,0.5h3.5
		c0.1,0,0.2,0,0.2,0.1c0.1,0.1,0.1,0.1,0.1,0.2v1.1c0,0.1,0,0.2-0.1,0.2c-0.1,0.1-0.1,0.1-0.2,0.1h-3.5
		C271.8,250.2,270.9,249.9,270.1,249.5z M276.1,242.1v-0.9c0-0.6-0.2-1.2-0.5-1.7c-0.3-0.5-0.7-0.9-1.2-1.2s-1.1-0.5-1.7-0.5
		s-1.2,0.2-1.7,0.5s-0.9,0.7-1.2,1.2c-0.3,0.5-0.5,1.1-0.5,1.7v0.9H276.1z"/>
	<path class="st2" d="M282.8,250.1c-0.7-0.2-1.3-0.5-1.9-0.9c-0.1,0-0.1-0.1-0.1-0.2s0-0.2,0-0.2l0.5-1c0.1-0.1,0.2-0.2,0.3-0.2
		c0,0,0.1,0,0.2,0c1.1,0.7,2.2,1,3.3,1c0.9,0,1.5-0.2,2-0.6c0.5-0.4,0.7-0.9,0.7-1.6c0-0.4-0.1-0.8-0.3-1c-0.2-0.3-0.5-0.5-0.9-0.7
		c-0.4-0.2-0.9-0.4-1.7-0.7c-1-0.4-1.8-0.7-2.3-1.1s-1-0.7-1.3-1.2c-0.3-0.5-0.5-1.2-0.5-1.9c0-1.3,0.4-2.2,1.2-2.9
		c0.8-0.7,1.9-1,3.2-1c0.7,0,1.4,0.1,2,0.3c0.7,0.2,1.3,0.5,1.8,0.8c0.1,0,0.1,0.1,0.1,0.2s0,0.2,0,0.2l-0.5,1
		c0,0.1-0.1,0.2-0.2,0.2c-0.1,0-0.2,0-0.3,0c-1-0.6-2-0.9-3-0.9c-0.8,0-1.4,0.2-1.9,0.5c-0.4,0.3-0.7,0.8-0.7,1.5
		c0,0.5,0.1,0.9,0.4,1.2c0.2,0.3,0.5,0.5,0.9,0.7c0.3,0.2,0.9,0.4,1.6,0.6c1,0.3,1.7,0.7,2.3,1c0.6,0.3,1,0.7,1.4,1.2
		c0.4,0.5,0.5,1.1,0.5,1.9c0,1.3-0.4,2.2-1.3,3c-0.9,0.7-2,1.1-3.5,1.1C284.3,250.4,283.5,250.3,282.8,250.1z"/>
	<path class="st2" d="M294.8,249.1c-0.7-0.7-1-1.6-1-2.7v-8.3h-1.6c-0.1,0-0.2,0-0.2-0.1c-0.1-0.1-0.1-0.1-0.1-0.2v-1.1
		c0-0.1,0-0.2,0.1-0.2c0.1-0.1,0.1-0.1,0.2-0.1h1.6v-2.6c0-0.1,0-0.2,0.1-0.2c0.1-0.1,0.1-0.1,0.2-0.1h1.2c0.1,0,0.2,0,0.2,0.1
		c0.1,0.1,0.1,0.1,0.1,0.2v2.6h4.3c0.1,0,0.2,0,0.2,0.1s0.1,0.1,0.1,0.2v1.1c0,0.1,0,0.2-0.1,0.2s-0.1,0.1-0.2,0.1h-4.3v8.1
		c0,0.6,0.2,1.1,0.6,1.5c0.4,0.4,0.9,0.6,1.5,0.6l2.2,0c0.1,0,0.2,0,0.2,0.1s0.1,0.1,0.1,0.2v1.1c0,0.1,0,0.2-0.1,0.2
		s-0.1,0.1-0.2,0.1h-2.4C296.4,250.2,295.5,249.8,294.8,249.1z"/>
	<path class="st2" d="M305,250.1c-0.7-0.2-1.3-0.5-1.9-0.9c-0.1,0-0.1-0.1-0.1-0.2s0-0.2,0-0.2l0.5-1c0.1-0.1,0.2-0.2,0.3-0.2
		c0,0,0.1,0,0.2,0c1.1,0.7,2.2,1,3.3,1c0.9,0,1.5-0.2,2-0.6c0.5-0.4,0.7-0.9,0.7-1.6c0-0.4-0.1-0.8-0.3-1c-0.2-0.3-0.5-0.5-0.9-0.7
		c-0.4-0.2-0.9-0.4-1.7-0.7c-1-0.4-1.8-0.7-2.3-1.1s-1-0.7-1.3-1.2c-0.3-0.5-0.5-1.2-0.5-1.9c0-1.3,0.4-2.2,1.2-2.9
		c0.8-0.7,1.9-1,3.2-1c0.7,0,1.4,0.1,2,0.3c0.7,0.2,1.3,0.5,1.8,0.8c0.1,0,0.1,0.1,0.1,0.2s0,0.2,0,0.2l-0.5,1
		c0,0.1-0.1,0.2-0.2,0.2c-0.1,0-0.2,0-0.3,0c-1-0.6-2-0.9-3-0.9c-0.8,0-1.4,0.2-1.9,0.5c-0.4,0.3-0.7,0.8-0.7,1.5
		c0,0.5,0.1,0.9,0.4,1.2c0.2,0.3,0.5,0.5,0.9,0.7c0.3,0.2,0.9,0.4,1.6,0.6c1,0.3,1.7,0.7,2.3,1c0.6,0.3,1,0.7,1.4,1.2
		c0.4,0.5,0.5,1.1,0.5,1.9c0,1.3-0.4,2.2-1.3,3c-0.9,0.7-2,1.1-3.5,1.1C306.5,250.4,305.7,250.3,305,250.1z"/>
</g>
</svg>
