<?xml version="1.0" encoding="utf-8"?>
<!-- Generator: Adobe Illustrator 25.0.1, SVG Export Plug-In . SVG Version: 6.00 Build 0)  -->
<svg version="1.1" id="Layer_1" xmlns="http://www.w3.org/2000/svg" xmlns:xlink="http://www.w3.org/1999/xlink" x="0px" y="0px"
	 viewBox="0 0 400 400" style="enable-background:new 0 0 400 400;" xml:space="preserve">
<style type="text/css">
	.st0{fill:none;stroke:#A0A0A0;stroke-width:4;stroke-miterlimit:10;}
	.st1{fill:#FFAB00;}
	.st2{fill:#FFFFFF;}
</style>
<g>
	<polyline class="st0" points="0,311.1 0,0 266.7,0 	"/>
	<polyline class="st0" points="311.1,0 400,0 400,400 222.2,400 222.2,355.6 266.7,355.6 	"/>
	<polyline class="st0" points="311.1,355.6 355.6,355.6 355.6,266.7 400,266.7 	"/>
	<polyline class="st0" points="311.1,177.8 311.1,88.9 88.9,88.9 88.9,133.3 	"/>
	<polyline class="st0" points="44.4,222.2 44.4,355.6 177.8,355.6 177.8,311.1 	"/>
	<line class="st0" x1="88.9" y1="355.6" x2="88.9" y2="400"/>
	<polyline class="st0" points="177.8,400 0,400 0,355.6 	"/>
	<polyline class="st0" points="266.7,44.4 355.6,44.4 355.6,222.2 311.1,222.2 311.1,311.1 88.9,311.1 88.9,177.8 44.4,177.8 
		44.4,44.4 222.2,44.4 	"/>
</g>
<g>
	<path class="st1" d="M187.4,195.5c0.3,0.3,0.5,0.8,0.5,1.3v6c0,0.5-0.2,0.9-0.5,1.3c-0.3,0.3-0.8,0.5-1.3,0.5h-4.5
		c-2.2,0-4.2-0.4-6.2-1.1c-1.9-0.7-3.6-1.6-5-2.5s-3.3-2.4-5.8-4.3l-6.5-5c-1.2-1-2.3-1.7-3.3-2c-1-0.4-2.4-0.6-4.2-0.6
		c-4.1,0-8-1-11.5-3.1c-3.5-2-6.3-4.8-8.3-8.3c-2-3.5-3.1-7.3-3.1-11.4v-18.5c0-4.1,1-8,3.1-11.4c2-3.5,4.8-6.2,8.3-8.3
		c3.5-2,7.3-3.1,11.5-3.1s8,1,11.5,3.1c3.5,2,6.3,4.8,8.3,8.3c2,3.5,3.1,7.3,3.1,11.4v18.5c0,3.6-0.8,6.9-2.3,10
		c-1.6,3.1-3.7,5.7-6.4,7.9l4.5,3.7c-0.1-0.1,0.5,0.4,1.6,1.4c2.5,2,4.4,3.5,5.9,4.3c1.4,0.9,3,1.3,4.8,1.3h4.4
		C186.6,195,187,195.2,187.4,195.5z M140,172.7c1.1,2,2.6,3.5,4.5,4.7c1.9,1.2,3.9,1.7,6.1,1.7c2.2,0,4.2-0.6,6.1-1.7
		c1.9-1.2,3.4-2.7,4.5-4.7c1.1-2,1.7-4.1,1.7-6.3v-18.5c0-2.2-0.6-4.3-1.7-6.3c-1.1-2-2.6-3.5-4.5-4.7c-1.9-1.2-3.9-1.7-6.1-1.7
		c-2.2,0-4.2,0.6-6.1,1.7c-1.9,1.2-3.4,2.7-4.5,4.7c-1.1,2-1.7,4.1-1.7,6.3v18.5C138.4,168.7,138.9,170.8,140,172.7z"/>
	<path class="st1" d="M190.7,186.2c-3.6-2-6.5-4.6-8.7-8c-0.2-0.3-0.3-0.7-0.3-1.2c0-0.8,0.3-1.4,0.9-1.9l4.7-3.5
		c0.4-0.3,0.8-0.4,1.1-0.4c0.6,0,1.2,0.3,1.6,0.9c1.6,2.2,3.4,4,5.6,5.3c2.2,1.3,4.4,1.9,6.6,1.9c2.1,0,4-0.5,5.7-1.6
		c1.8-1,3.1-2.5,4.2-4.3c1-1.8,1.6-3.8,1.6-5.9c0-3-1-5.6-3.1-7.8c-2-2.2-4.5-3.4-7.4-3.7l-2.4,3.4c-0.3,0.5-0.8,0.8-1.5,0.8
		c-0.3,0-0.7-0.1-1.1-0.4l-4.9-3.5c-0.5-0.3-0.8-0.8-0.8-1.5c0-0.4,0.1-0.7,0.3-1l12.5-17.6h-17.2c-0.5,0-0.9-0.2-1.3-0.5
		c-0.3-0.3-0.5-0.8-0.5-1.3v-6.2c0-0.5,0.2-0.9,0.5-1.3c0.3-0.3,0.8-0.5,1.3-0.5h25.5c1.7,0,3.1,0.5,4.2,1.6
		c1.1,1.1,1.6,2.4,1.6,3.9c0,1.3-0.4,2.5-1.2,3.5l-8.9,12.2c4.3,1.4,7.7,3.9,10.4,7.6c2.7,3.7,4.1,7.8,4.1,12.5
		c0,3.9-1,7.4-2.9,10.7c-2,3.3-4.6,5.9-7.9,7.9c-3.3,2-7,2.9-10.9,2.9C198.1,189.1,194.3,188.1,190.7,186.2z"/>
	<path class="st2" d="M124.7,230.3c-0.3-0.3-0.5-0.7-0.5-1.1c0-0.4,0.2-0.8,0.5-1.1s0.7-0.5,1.1-0.5c0.4,0,0.8,0.2,1.1,0.5
		s0.4,0.7,0.4,1.1c0,0.4-0.1,0.8-0.4,1.1s-0.7,0.5-1.1,0.5C125.4,230.7,125,230.6,124.7,230.3z"/>
	<path class="st2" d="M141.4,235.9c-0.1-0.1-0.1-0.1-0.1-0.2v-14.8h-4.2c-0.1,0-0.2,0-0.2-0.1s-0.1-0.1-0.1-0.2v-1.2
		c0-0.1,0-0.2,0.1-0.2c0.1-0.1,0.1-0.1,0.2-0.1h10.5c0.1,0,0.2,0,0.2,0.1c0.1,0.1,0.1,0.1,0.1,0.2v1.2c0,0.1,0,0.2-0.1,0.2
		s-0.1,0.1-0.2,0.1h-4.2v14.8c0,0.1,0,0.2-0.1,0.2s-0.1,0.1-0.2,0.1h-1.3C141.6,236,141.5,236,141.4,235.9z"/>
	<path class="st2" d="M150,235.9c-0.1-0.1-0.1-0.1-0.1-0.2v-1.1c0-0.1,0-0.2,0.1-0.2s0.1-0.1,0.2-0.1h2v-10.3h-2
		c-0.1,0-0.2,0-0.2-0.1s-0.1-0.1-0.1-0.2v-1.1c0-0.1,0-0.2,0.1-0.2s0.1-0.1,0.2-0.1h3.1c0.2,0,0.5,0.1,0.6,0.3
		c0.2,0.2,0.3,0.4,0.3,0.6v1.2l1.4-1.1c0.6-0.5,1.1-0.8,1.4-0.9s0.8-0.2,1.2-0.2h0.7c0.1,0,0.2,0,0.3,0.1c0.1,0.1,0.1,0.1,0.1,0.2
		v1.2c0,0.1,0,0.2-0.1,0.2s-0.1,0.1-0.2,0.1h-0.5c-0.4,0-0.8,0.1-1.2,0.3c-0.4,0.2-0.9,0.5-1.6,1.1l-1.4,1.2v7.8h2.8
		c0.1,0,0.2,0,0.2,0.1s0.1,0.1,0.1,0.2v1.1c0,0.1,0,0.2-0.1,0.2s-0.1,0.1-0.2,0.1h-6.8C150.1,236,150,236,150,235.9z"/>
	<path class="st2" d="M162.3,235.2c-0.8-0.7-1.2-1.6-1.2-2.8c0-1.1,0.4-2,1.1-2.7c0.7-0.7,1.7-1.1,3-1.3l3.2-0.4
		c0.5-0.1,0.8-0.2,1-0.5c0.2-0.3,0.3-0.6,0.3-1.1v-0.2c0-0.8-0.3-1.4-0.9-1.9c-0.6-0.5-1.4-0.7-2.3-0.7c-0.7,0-1.3,0.1-1.9,0.4
		s-1,0.7-1.3,1.2c-0.1,0.2-0.3,0.3-0.5,0.3c-0.1,0-0.2,0-0.3-0.1l-0.7-0.4c-0.1-0.1-0.2-0.3-0.2-0.4c0-0.1,0-0.1,0.1-0.2
		c0.5-0.8,1.1-1.4,1.9-1.8c0.8-0.4,1.8-0.7,2.9-0.7c1,0,1.9,0.2,2.6,0.5c0.8,0.4,1.4,0.9,1.8,1.6s0.6,1.4,0.6,2.3v9.4
		c0,0.1,0,0.2-0.1,0.2s-0.1,0.1-0.2,0.1h-1c-0.1,0-0.2,0-0.2-0.1s-0.1-0.1-0.1-0.2V234c-0.5,0.7-1.2,1.3-1.9,1.7
		c-0.8,0.4-1.7,0.6-2.6,0.6C164.1,236.3,163.1,236,162.3,235.2z M167.7,234c0.7-0.4,1.2-1,1.5-1.6s0.6-1.3,0.6-1.9v-1
		c-0.4,0-1.6,0.2-3.8,0.5l-0.7,0.1c-1.6,0.2-2.4,1-2.4,2.3c0,0.7,0.2,1.2,0.7,1.6s1.1,0.6,1.9,0.6
		C166.3,234.6,167.1,234.4,167.7,234z"/>
	<path class="st2" d="M177.7,235.7c-0.2-0.2-0.3-0.4-0.3-0.6V224h-2.5c-0.1,0-0.2,0-0.2-0.1s-0.1-0.1-0.1-0.2v-1.1
		c0-0.1,0-0.2,0.1-0.2s0.1-0.1,0.2-0.1h3.6c0.2,0,0.5,0.1,0.6,0.3c0.2,0.2,0.3,0.4,0.3,0.6v11.2h2.5c0.1,0,0.2,0,0.2,0.1
		s0.1,0.1,0.1,0.2v1.1c0,0.1,0,0.2-0.1,0.2s-0.1,0.1-0.2,0.1h-3.5C178.1,236,177.9,235.9,177.7,235.7z M177.5,220.1
		c-0.1-0.1-0.1-0.1-0.1-0.2v-2.1c0-0.1,0-0.2,0.1-0.2c0.1-0.1,0.1-0.1,0.2-0.1h1.2c0.1,0,0.2,0,0.2,0.1c0.1,0.1,0.1,0.1,0.1,0.2v2.1
		c0,0.1,0,0.2-0.1,0.2c-0.1,0.1-0.1,0.1-0.2,0.1h-1.2C177.7,220.2,177.6,220.2,177.5,220.1z"/>
	<path class="st2" d="M185.4,235.9c-0.1-0.1-0.1-0.1-0.1-0.2v-13.1c0-0.1,0-0.2,0.1-0.2c0.1-0.1,0.1-0.1,0.2-0.1h1.2
		c0.1,0,0.2,0,0.2,0.1s0.1,0.1,0.1,0.2v1.3c0.4-0.7,1-1.2,1.7-1.5s1.4-0.5,2.3-0.5c1.4,0,2.5,0.4,3.4,1.3s1.3,2,1.3,3.4v9.2
		c0,0.1,0,0.2-0.1,0.2s-0.1,0.1-0.2,0.1h-1.2c-0.1,0-0.2,0-0.2-0.1s-0.1-0.1-0.1-0.2v-8.8c0-1-0.3-1.8-0.8-2.4s-1.3-0.8-2.2-0.8
		c-1.1,0-2,0.4-2.6,1.1s-1,1.7-1,3v8c0,0.1,0,0.2-0.1,0.2s-0.1,0.1-0.2,0.1h-1.2C185.5,236,185.4,235.9,185.4,235.9z"/>
	<path class="st2" d="M201.8,235.7c-0.2-0.2-0.3-0.4-0.3-0.6V224H199c-0.1,0-0.2,0-0.2-0.1s-0.1-0.1-0.1-0.2v-1.1
		c0-0.1,0-0.2,0.1-0.2s0.1-0.1,0.2-0.1h3.6c0.2,0,0.5,0.1,0.6,0.3c0.2,0.2,0.3,0.4,0.3,0.6v11.2h2.5c0.1,0,0.2,0,0.2,0.1
		s0.1,0.1,0.1,0.2v1.1c0,0.1,0,0.2-0.1,0.2s-0.1,0.1-0.2,0.1h-3.5C202.2,236,202,235.9,201.8,235.7z M201.7,220.1
		c-0.1-0.1-0.1-0.1-0.1-0.2v-2.1c0-0.1,0-0.2,0.1-0.2c0.1-0.1,0.1-0.1,0.2-0.1h1.2c0.1,0,0.2,0,0.2,0.1c0.1,0.1,0.1,0.1,0.1,0.2v2.1
		c0,0.1,0,0.2-0.1,0.2c-0.1,0.1-0.1,0.1-0.2,0.1h-1.2C201.8,220.2,201.8,220.2,201.7,220.1z"/>
	<path class="st2" d="M209.5,235.9c-0.1-0.1-0.1-0.1-0.1-0.2v-13.1c0-0.1,0-0.2,0.1-0.2c0.1-0.1,0.1-0.1,0.2-0.1h1.2
		c0.1,0,0.2,0,0.2,0.1s0.1,0.1,0.1,0.2v1.3c0.4-0.7,1-1.2,1.7-1.5s1.4-0.5,2.3-0.5c1.4,0,2.5,0.4,3.4,1.3s1.3,2,1.3,3.4v9.2
		c0,0.1,0,0.2-0.1,0.2s-0.1,0.1-0.2,0.1h-1.2c-0.1,0-0.2,0-0.2-0.1s-0.1-0.1-0.1-0.2v-8.8c0-1-0.3-1.8-0.8-2.4s-1.3-0.8-2.2-0.8
		c-1.1,0-2,0.4-2.6,1.1s-1,1.7-1,3v8c0,0.1,0,0.2-0.1,0.2s-0.1,0.1-0.2,0.1h-1.2C209.7,236,209.6,235.9,209.5,235.9z"/>
	<path class="st2" d="M224.8,240.2c-1-0.6-1.5-1.4-1.5-2.5c0-0.6,0.1-1.1,0.4-1.6s0.6-1,1.1-1.3c-0.4-0.3-0.7-0.6-0.9-0.8
		c-0.2-0.3-0.3-0.6-0.3-1c0-0.5,0.1-1,0.4-1.4c0.3-0.5,0.7-0.8,1.2-1.2c-0.6-0.4-1-1-1.3-1.6c-0.3-0.6-0.5-1.3-0.5-2.1
		c0-0.9,0.2-1.8,0.7-2.5c0.4-0.7,1.1-1.3,1.8-1.7c0.8-0.4,1.6-0.6,2.5-0.6c0.6,0,1.3,0.1,1.9,0.3h4.8c0.1,0,0.2,0,0.2,0.1
		s0.1,0.1,0.1,0.2v1.1c0,0.1,0,0.2-0.1,0.2s-0.1,0.1-0.2,0.1h-2.5c0.5,0.7,0.8,1.6,0.8,2.6c0,0.9-0.2,1.8-0.7,2.5
		c-0.4,0.7-1.1,1.3-1.8,1.7c-0.8,0.4-1.6,0.6-2.5,0.6c-0.6,0-1.3-0.1-1.9-0.3c-0.4,0.2-0.6,0.4-0.8,0.6c-0.2,0.3-0.3,0.5-0.3,0.8
		c0,0.4,0.2,0.7,0.5,0.8c0.3,0.1,0.6,0.3,1.2,0.3c0.5,0.1,1.3,0.1,2.4,0.2l1,0.1c0.8,0.1,1.5,0.2,2,0.3c0.6,0.1,1,0.4,1.4,0.9
		c0.4,0.4,0.6,1,0.6,1.9c0,1.3-0.5,2.4-1.6,3.1c-1.1,0.7-2.5,1.1-4.2,1.1C227,241,225.8,240.7,224.8,240.2z M231.6,238.8
		c0.7-0.4,1.1-0.9,1.1-1.7c0-0.4-0.1-0.7-0.3-0.9c-0.2-0.2-0.5-0.3-0.8-0.4c-0.4-0.1-0.9-0.1-1.6-0.2c-0.1,0-0.5,0-1-0.1
		c-0.5,0-1.1-0.1-1.8-0.2c-0.4,0-0.7-0.1-1-0.1c-0.3,0.2-0.6,0.5-0.8,0.9c-0.2,0.4-0.3,0.7-0.3,1.1c0,0.8,0.3,1.3,1,1.6
		c0.7,0.3,1.6,0.5,2.7,0.5C229.9,239.3,230.9,239.2,231.6,238.8z M230.8,228.7c0.6-0.6,0.9-1.3,0.9-2.2s-0.3-1.6-0.9-2.2
		c-0.6-0.6-1.4-0.8-2.3-0.8s-1.7,0.3-2.3,0.8c-0.6,0.6-0.9,1.3-0.9,2.2s0.3,1.6,0.9,2.2c0.6,0.6,1.3,0.8,2.3,0.8
		S230.2,229.3,230.8,228.7z"/>
	<path class="st2" d="M124.9,271.7c-0.1-0.1-0.1-0.1-0.1-0.2v-15.8c0-0.2,0.1-0.5,0.3-0.6c0.2-0.2,0.4-0.3,0.6-0.3h8.1
		c0.1,0,0.2,0,0.2,0.1c0.1,0.1,0.1,0.1,0.1,0.2v1.2c0,0.1,0,0.2-0.1,0.2s-0.1,0.1-0.2,0.1h-6.9v5.7h5.3c0.1,0,0.2,0,0.2,0.1
		s0.1,0.1,0.1,0.2v1.2c0,0.1,0,0.2-0.1,0.2c-0.1,0.1-0.1,0.1-0.2,0.1h-5.3v7.2c0,0.1,0,0.2-0.1,0.2c-0.1,0.1-0.1,0.1-0.2,0.1h-1.3
		C125,271.8,124.9,271.8,124.9,271.7z"/>
	<path class="st2" d="M138.4,271.1c-0.8-0.5-1.5-1.1-1.9-1.9c-0.5-0.8-0.7-1.7-0.7-2.7V263c0-1,0.2-1.9,0.7-2.7
		c0.5-0.8,1.1-1.5,1.9-1.9c0.8-0.5,1.7-0.7,2.7-0.7c1,0,1.9,0.2,2.7,0.7c0.8,0.5,1.5,1.1,1.9,1.9c0.5,0.8,0.7,1.7,0.7,2.7v1.7
		c0,0.2-0.1,0.5-0.3,0.6c-0.2,0.2-0.4,0.3-0.6,0.3h-7.8v1.1c0,0.6,0.2,1.2,0.5,1.7c0.3,0.5,0.7,0.9,1.2,1.2s1.1,0.5,1.7,0.5h3.5
		c0.1,0,0.2,0,0.2,0.1c0.1,0.1,0.1,0.1,0.1,0.2v1.1c0,0.1,0,0.2-0.1,0.2c-0.1,0.1-0.1,0.1-0.2,0.1h-3.5
		C140.1,271.8,139.2,271.6,138.4,271.1z M144.5,263.8v-0.9c0-0.6-0.2-1.2-0.5-1.7c-0.3-0.5-0.7-0.9-1.2-1.2s-1.1-0.5-1.7-0.5
		s-1.2,0.2-1.7,0.5s-0.9,0.7-1.2,1.2c-0.3,0.5-0.5,1.1-0.5,1.7v0.9H144.5z"/>
	<path class="st2" d="M150,271.1c-0.8-0.7-1.2-1.6-1.2-2.8c0-1.1,0.4-2,1.1-2.7c0.7-0.7,1.7-1.1,3-1.3l3.2-0.4
		c0.5-0.1,0.8-0.2,1-0.5c0.2-0.3,0.3-0.6,0.3-1.1v-0.2c0-0.8-0.3-1.4-0.9-1.9c-0.6-0.5-1.4-0.7-2.3-0.7c-0.7,0-1.3,0.1-1.9,0.4
		s-1,0.7-1.3,1.2c-0.1,0.2-0.3,0.3-0.5,0.3c-0.1,0-0.2,0-0.3-0.1l-0.7-0.4c-0.1-0.1-0.2-0.3-0.2-0.4c0-0.1,0-0.1,0.1-0.2
		c0.5-0.8,1.1-1.4,1.9-1.8c0.8-0.4,1.8-0.7,2.9-0.7c1,0,1.9,0.2,2.6,0.5c0.8,0.4,1.4,0.9,1.8,1.6s0.6,1.4,0.6,2.3v9.4
		c0,0.1,0,0.2-0.1,0.2s-0.1,0.1-0.2,0.1h-1c-0.1,0-0.2,0-0.2-0.1s-0.1-0.1-0.1-0.2v-1.7c-0.5,0.7-1.2,1.3-1.9,1.7
		c-0.8,0.4-1.7,0.6-2.6,0.6C151.8,272.1,150.8,271.8,150,271.1z M155.4,269.8c0.7-0.4,1.2-1,1.5-1.6s0.6-1.3,0.6-1.9v-1
		c-0.4,0-1.6,0.2-3.8,0.5l-0.7,0.1c-1.6,0.2-2.4,1-2.4,2.3c0,0.7,0.2,1.2,0.7,1.6s1.1,0.6,1.9,0.6
		C154.1,270.4,154.8,270.2,155.4,269.8z"/>
	<path class="st2" d="M165.1,270.7c-0.7-0.7-1-1.6-1-2.7v-8.3h-1.6c-0.1,0-0.2,0-0.2-0.1c-0.1-0.1-0.1-0.1-0.1-0.2v-1.1
		c0-0.1,0-0.2,0.1-0.2c0.1-0.1,0.1-0.1,0.2-0.1h1.6v-2.6c0-0.1,0-0.2,0.1-0.2c0.1-0.1,0.1-0.1,0.2-0.1h1.2c0.1,0,0.2,0,0.2,0.1
		c0.1,0.1,0.1,0.1,0.1,0.2v2.6h4.3c0.1,0,0.2,0,0.2,0.1s0.1,0.1,0.1,0.2v1.1c0,0.1,0,0.2-0.1,0.2s-0.1,0.1-0.2,0.1H166v8.1
		c0,0.6,0.2,1.1,0.6,1.5c0.4,0.4,0.9,0.6,1.5,0.6l2.2,0c0.1,0,0.2,0,0.2,0.1s0.1,0.1,0.1,0.2v1.1c0,0.1,0,0.2-0.1,0.2
		s-0.1,0.1-0.2,0.1h-2.4C166.7,271.8,165.8,271.5,165.1,270.7z"/>
	<path class="st2" d="M175.2,270.9c-0.9-0.8-1.3-2-1.3-3.4v-9.2c0-0.1,0-0.2,0.1-0.2s0.1-0.1,0.2-0.1h1.2c0.1,0,0.2,0,0.2,0.1
		s0.1,0.1,0.1,0.2v8.8c0,1,0.3,1.8,0.8,2.4s1.3,0.8,2.2,0.8c1.1,0,2-0.4,2.6-1.1c0.7-0.7,1-1.7,1-3v-8c0-0.1,0-0.2,0.1-0.2
		s0.1-0.1,0.2-0.1h1.2c0.1,0,0.2,0,0.2,0.1c0.1,0.1,0.1,0.1,0.1,0.2v13.2c0,0.1,0,0.2-0.1,0.2c-0.1,0.1-0.1,0.1-0.2,0.1h-1.2
		c-0.1,0-0.2,0-0.2-0.1s-0.1-0.1-0.1-0.2v-1.4c-0.4,0.7-1,1.2-1.7,1.5c-0.7,0.3-1.4,0.5-2.3,0.5
		C177.2,272.1,176.1,271.7,175.2,270.9z"/>
	<path class="st2" d="M188,271.7c-0.1-0.1-0.1-0.1-0.1-0.2v-1.1c0-0.1,0-0.2,0.1-0.2s0.1-0.1,0.2-0.1h2v-10.3h-2
		c-0.1,0-0.2,0-0.2-0.1s-0.1-0.1-0.1-0.2v-1.1c0-0.1,0-0.2,0.1-0.2s0.1-0.1,0.2-0.1h3.1c0.2,0,0.5,0.1,0.6,0.3
		c0.2,0.2,0.3,0.4,0.3,0.6v1.2l1.4-1.1c0.6-0.5,1.1-0.8,1.4-0.9s0.8-0.2,1.2-0.2h0.7c0.1,0,0.2,0,0.3,0.1c0.1,0.1,0.1,0.1,0.1,0.2
		v1.2c0,0.1,0,0.2-0.1,0.2s-0.1,0.1-0.2,0.1h-0.5c-0.4,0-0.8,0.1-1.2,0.3c-0.4,0.2-0.9,0.5-1.6,1.1l-1.4,1.2v7.8h2.8
		c0.1,0,0.2,0,0.2,0.1s0.1,0.1,0.1,0.2v1.1c0,0.1,0,0.2-0.1,0.2s-0.1,0.1-0.2,0.1h-6.8C188.1,271.8,188,271.8,188,271.7z"/>
	<path class="st2" d="M201.8,271.1c-0.8-0.5-1.5-1.1-1.9-1.9c-0.5-0.8-0.7-1.7-0.7-2.7V263c0-1,0.2-1.9,0.7-2.7
		c0.5-0.8,1.1-1.5,1.9-1.9c0.8-0.5,1.7-0.7,2.7-0.7c1,0,1.9,0.2,2.7,0.7c0.8,0.5,1.5,1.1,1.9,1.9c0.5,0.8,0.7,1.7,0.7,2.7v1.7
		c0,0.2-0.1,0.5-0.3,0.6c-0.2,0.2-0.4,0.3-0.6,0.3h-7.8v1.1c0,0.6,0.2,1.2,0.5,1.7c0.3,0.5,0.7,0.9,1.2,1.2s1.1,0.5,1.7,0.5h3.5
		c0.1,0,0.2,0,0.2,0.1c0.1,0.1,0.1,0.1,0.1,0.2v1.1c0,0.1,0,0.2-0.1,0.2c-0.1,0.1-0.1,0.1-0.2,0.1h-3.5
		C203.6,271.8,202.7,271.6,201.8,271.1z M207.9,263.8v-0.9c0-0.6-0.2-1.2-0.5-1.7c-0.3-0.5-0.7-0.9-1.2-1.2s-1.1-0.5-1.7-0.5
		s-1.2,0.2-1.7,0.5s-0.9,0.7-1.2,1.2c-0.3,0.5-0.5,1.1-0.5,1.7v0.9H207.9z"/>
</g>
</svg>
