<svg id="Layer_1" data-name="Layer 1" xmlns="http://www.w3.org/2000/svg" viewBox="0 0 293.95 340.62"><defs><style>.cls-1{fill:#ffeb0f;fill-rule:evenodd;}.cls-2{fill:#fff;}</style></defs><path class="cls-1" d="M457.39,59c40.39,0,73.14,30.08,73.14,67.18s-32.75,67.18-73.14,67.18-73.14-30.08-73.14-67.18S417,59,457.39,59Zm0,42.85c16.18,0,29.29,10.89,29.29,24.33s-13.11,24.33-29.29,24.33-29.3-10.89-29.3-24.33S441.21,101.88,457.39,101.88Z" transform="translate(-308.33 -59.03)"/><path class="cls-2" d="M494.11,399.64V305.92q0-12.09,4.7-18.31t11.42-6.22q7.39,0,10.92,4.88c2.35,3.24,3.53,9.69,3.53,19.31v94.06h77.6V292.14a111.56,111.56,0,0,0-2.86-24,72.2,72.2,0,0,0-10.07-24,59.33,59.33,0,0,0-19.49-18.48q-12.27-7.4-31.07-7.39-19.49,0-32.25,7.39A77,77,0,0,0,485,243.77a46,46,0,0,0-20.16-19.32q-12.76-6.21-30.23-6.21a61.8,61.8,0,0,0-16.8,2.18,62.87,62.87,0,0,0-13.94,5.71,69,69,0,0,0-11.09,7.73,58.54,58.54,0,0,0-8.23,8.57h-.67V222.94H308.33v176.7h77.61V305.92q0-13.77,5.2-19.15t10.92-5.38q7.72,0,11.09,6.05t3.36,19.49v92.71Z" transform="translate(-308.33 -59.03)"/></svg>