<?xml version="1.0" encoding="utf-8"?>
<!-- Generator: Adobe Illustrator 25.0.1, SVG Export Plug-In . SVG Version: 6.00 Build 0)  -->
<svg version="1.1" id="Layer_1" xmlns="http://www.w3.org/2000/svg" xmlns:xlink="http://www.w3.org/1999/xlink" x="0px" y="0px"
	 viewBox="0 0 1920 1440" style="enable-background:new 0 0 1920 1440;" xml:space="preserve">
<style type="text/css">
	.st0{fill:#080E1E;}
	.st1{clip-path:url(#SVGID_2_);fill:#12181E;}
	.st2{fill:url(#SVGID_3_);}
	.st3{fill:#00072E;}
	.st4{fill:url(#SVGID_4_);}
	.st5{fill:url(#SVGID_5_);}
	.st6{fill:url(#SVGID_6_);}
	.st7{fill:url(#SVGID_7_);}
</style>
<rect class="st0" width="1920" height="1440"/>
<g>
	<defs>
		<rect id="SVGID_1_" width="1920" height="1440"/>
	</defs>
	<clipPath id="SVGID_2_">
		<use xlink:href="#SVGID_1_"  style="overflow:visible;"/>
	</clipPath>
	<path class="st1" d="M1892.8,388c-6.4-61.1-18.9-121.9-37.1-180.5c-17.9-57.6-41.6-113.8-70.4-167
		c-28.5-52.7-62.3-102.9-100.3-149.3c-38.1-46.4-80.8-89.3-126.9-127.5c-46.6-38.6-97.1-72.8-150-101.7
		c-54-29.4-111.1-53.5-169.8-71.6c-60.2-18.6-122.9-31.2-186.2-37.5l-13.2-1.3l-2.6,26.3l13.2,1.3c56,5.5,110.3,16,162.5,31
		l-19.2,63.3c-48.9-14-99.2-23.6-149.8-28.6c-55-5.4-110.7-5.4-165.7,0l-13.2,1.3l2.6,26.3l13.2-1.3c22.4-2.2,44.7-3.5,67-3.9v79.1
		h26.5v-79.2c44.8,0.7,89.4,5.1,133.5,13.2l-12.9,64.7h0l-2.1,10.7l-0.5,2.3l0,0l-2.6,13l13,2.6C1292-188.5,1456.2-78.8,1564,82.5
		l7.3,11l22-14.7l-7.3-11c-27.5-41.1-59.1-79.7-94.1-114.6c-31.5-31.5-66-60.2-102.7-85.7l36.7-54.9
		c126.2,87.3,224.5,207.1,285.5,347.9l-146.4,60.6c-29.2-66.6-68.7-127.5-117.7-181C1396.7-15,1337.5-61,1271.3-96.4
		c-66.2-35.4-137.3-59.1-211.3-70.4c-71.7-11-144.3-10.1-215.9,2.7l-12.9-64.9l0,0l-5.2-25.9h0l-12.9-64.7h0l-5.2-25.9l-13,2.6
		c-27,5.4-54.1,12.2-80.5,20.2L702-319l7.7,25.3l12.7-3.8c21.3-6.5,43.1-12.1,65-16.8l12.9,64.7c-43.8,9.5-86.9,23-128.3,40.1
		c-45.5,18.8-89.2,42.2-130.2,69.6l-11,7.3l14.7,22l11-7.3c76-50.8,159.7-86.3,248.9-105.7l12.8,64.6l0,0l5.2,25.9h0l12.9,64.9
		c-32,7.1-63.4,17.1-93.6,29.6l-12.2,5.1l10.1,24.4l12.2-5.1c66-27.3,135.7-41.2,207.2-41.2h13.2v-26.5H960
		c-32.7,0-65.5,2.9-97.8,8.5l-12.9-64.7c36.8-6.5,73.6-9.7,110-9.7c37.6,0,74.8,3.4,111.2,9.9l-15.4,77.4l25.9,5.2l15.4-77.3
		c32,7.1,63.3,16.7,93.6,28.6l-60.5,146c-24.9-9.5-50.7-17-76.9-22.2l-13-2.6l-5.2,25.9l13,2.6c24.5,4.9,48.6,11.8,71.9,20.7
		l-25.3,61c-38.9-14.6-79.5-22.7-121-24.1V37V23.8V10.6H960c-94.4,0-185.7,27.7-264.2,80.1c-22.4,14.9-43.3,31.6-62.6,49.9
		l-46.6-46.6c22.5-21.4,46.8-40.9,72.6-58.1l11-7.3l-7.3-11l0,0l-43.9-65.7c31.2-19.9,64.3-37.2,98.5-51.4l12.2-5.1l-10.1-24.4
		l-12.2,5.1c-39.9,16.5-78.3,37-114.2,61l-11,7.3l7.3,11l0,0l44.1,66c-26.8,18.8-52,40-75.2,63.1l-9.4,9.4l9.4,9.4l9.4,9.4
		l46.8,46.8c-36.6,38.7-66.6,83.4-88.6,132.7l-231.8-96c15.5-35.5,33.8-69.8,54.7-102.3l142.6,95.3l14.7-22L363.4,71.5v0l-22-14.7v0
		l-54.8-36.6c12.7-18.4,26.2-36.3,40.4-53.6l8.4-10.2L315-60.4l-8.4,10.2c-35,42.7-66,89.1-92.1,137.8l-6.2,11.7l23.3,12.5l6.2-11.7
		c10.5-19.7,21.9-39,34.1-57.9l54.9,36.7c-24.2,37.7-45.2,77.7-62.3,119.1l-5.1,12.2l12.2,5.1v0l73.3,30.4
		c-22,56.4-36.2,115.4-42.2,175.7c-5.9,60.3-3.6,121,7.1,180.6L232,617.4l5.2,25.9l77.7-15.5v0l25.9-5.2l-2.6-13
		c-23.7-119.1-12.9-241.2,31.1-354l61,25.3c-11.9,30.7-21.1,62.5-27.5,94.8c-7.2,36.2-10.8,73.3-10.8,110.3
		c0,36.9,3.6,74,10.8,110.3c6.4,32.3,15.6,64.1,27.5,94.8l-73.3,30.4l0,0l-12.2,5.1l5.1,12.2c16.5,39.9,37,78.3,61,114.2
		c21.5,32.2,46,62.6,72.9,90.6l-112.1,112.1c-34.2-35.3-65.3-73.8-92.6-114.6l-7.3-11l-22,14.7l7.3,11
		c30.7,45.9,66.1,89,105.1,128.1l9.4,9.4l9.4-9.4l9.4-9.4l112-112l18.7-18.7l46.7-46.7l9.4-9.4l9.4-9.4l-9.4-9.4
		c-25-25-47.7-52.6-67.3-82.1l-7.3-11l-22,14.7l7.3,11c18.2,27.2,38.8,52.9,61.4,76.6l-46.7,46.7c-51.7-53.9-93-115.7-123-184
		L526,680.2c10.9,24.4,23.9,47.9,38.7,70.1l7.3,11l22-14.7l-7.3-11c-13.9-20.7-26-42.7-36.2-65.5l146.5-60.7
		c12.5,26.7,28.7,51,48.5,72.7L633.1,794.2l-9.4,9.4l-9.4,9.4l9.4,9.4c18.9,18.9,39.4,36.2,61.2,51.6l-190.8,285.5
		c-18.4-12.7-36.4-26.3-53.6-40.4l-10.2-8.4l-16.8,20.5l10.2,8.4c21.3,17.5,43.7,34.1,66.6,49.4l11,7.3l7.3-11l0,0l146.8-219.7
		c23.9,15.2,49,28.6,74.9,40.1l-60.7,146.5l0,0l-10.1,24.4l12.2,5.1c57.4,23.8,117.6,40.4,179,49.4c31.8,4.7,63.8,7.3,95.9,7.8v66
		c-49.1-0.8-98.4-6-146.5-15.6l-13-2.6l-5.2,25.9l13,2.6c54.2,10.8,109.7,16.2,164.9,16.2h13.2v-13.2v-13.2v-66.1
		c20.2-0.4,40.4-1.5,60.6-3.5c60.9-6,121-19.4,178.6-39.9c54.3-19.3,106.3-44.9,154.8-76.1l36.7,54.9
		c-109,70.5-233.1,113.9-363.6,126.8l-13.2,1.3l2.6,26.3l13.2-1.3c82.8-8.2,163.8-28.4,240.6-60.3c76.9-31.8,148.5-74.7,212.8-127.5
		l10.2-8.4l-16.8-20.5l-10.2,8.4c-17.4,14.3-35.3,27.7-53.6,40.4l-44-65.8l0,0l-7.3-11l-11,7.3c-36.3,24.2-74.2,44.9-113.4,62
		l-60.7-146.5c29.9-13.2,58.8-29.1,86-47.3l11-7.3l-7.3-11l0,0l-51.4-76.9l-22,14.7l43.9,65.7c-56.5,35.8-118.3,60.6-184.1,73.6
		l-13,2.6l5.2,25.9l13-2.6c32.1-6.4,63.7-15.6,94.3-27.4l60.7,146.5c-169.2,66.6-358.7,67.8-531.4-0.1l60.6-146.4
		c30.5,11.8,62.2,21,94.3,27.4l13,2.6l5.2-25.9l-13-2.6c-65.8-13.1-127.6-37.8-184.1-73.6l43.9-65.7l0,0l7.3-11l-11-7.3
		c-20.7-13.9-40.4-29.5-58.5-46.6l112.1-112.1c24.9,22.7,53.4,40.8,84.8,53.8c31.4,13,64.3,20.3,98,21.9v79.5h26.5v-79.4
		c33.6-1.5,66.5-8.9,98-21.9l12.2-5.1l-10.1-24.4l-12.2,5.1c-28.4,11.8-58,18.4-87.8,19.9v-66.2c21.5-1.4,42.5-6.3,62.6-14.6
		c24.2-10,45.8-24.5,64.3-42.9c18.9-18.9,33.6-41,43.5-65.5c9.6-23.7,14.5-48.8,14.5-74.5c0-25.7-4.9-50.8-14.5-74.5
		c-10-24.6-24.6-46.6-43.5-65.5c-18.9-18.9-41-33.6-65.5-43.5c-23.7-9.6-48.8-14.5-74.5-14.5c-25.7,0-50.8,4.9-74.5,14.5
		c-24.6,10-46.6,24.6-65.5,43.5c-18.9,18.9-33.6,41-43.5,65.5c-8,19.7-12.7,40.2-14.1,61.3h-66.1c3.2-65.6,30.3-126.8,77-173.5
		l9.4-9.4l-9.4-9.4l-9.4-9.4l-46.5-46.5c27.9-25.9,59.4-47,94-62.8l25.2,60.7l0,0l10.1,24.4l12.2-5.1
		c134.5-55.7,289.4,8.4,345.1,142.9l5.1,12.2l12.2-5.1l0,0l73-30.2c31.5,84.7,29.9,176.7-4.8,260.6l-5.1,12.2l24.4,10.1l5.1-12.2
		c19.3-46.7,29.2-96,29.2-146.6c0-50.6-9.8-99.9-29.2-146.6l-5.1-12.2l-12.2,5.1l0,0l-73.5,30.4c-12.5-26.7-28.7-51-48.5-72.7
		l112.2-112.2l9.4-9.4l9.4-9.4l-9.4-9.4c-18.9-18.9-39.4-36.2-61.2-51.6l36.7-54.9c143,100.7,224.9,262,229.3,429.5h-65.8
		c-1.2-42.3-8-84.2-20.3-124.8c-13.6-44.8-33.7-87.2-59.7-126.1l-7.3-11l-22,14.7l7.3,11c49.5,74.1,75.7,160.4,75.7,249.5v13.2h13.2
		h13.2h65.7c-1.4,61-13.1,122.4-36,181.7l-61-25.3c9.5-24.9,16.9-50.6,22.2-76.9l2.6-13l-25.9-5.2l-2.6,13
		c-16.5,83.1-55.7,159-113.7,220.4l-46.5-46.5l0,0l-18.7-18.7l-46.9-46.9c22.8-24.9,40.9-53.4,53.8-84.7
		c14.7-35.4,22.1-72.8,22.1-111.2v-13.2h-26.5V486c0,70.5-27.5,136.9-77.4,186.8l-9.4,9.4l9.4,9.4l9.4,9.4l46.5,46.5
		c-31.1,28.9-66.8,51.8-106.2,68.1l-12.2,5.1l6.4,15.4l28.9,69.9c-103.4,39.4-215.7,39.4-319.1,0l30.2-73l-24.4-10.1l-30.3,73.2l0,0
		l-10.1,24.4l12.2,5.1c53.9,22.3,110.6,34.4,168.7,36v158.5c-36.9-0.8-73.8-4.8-110.4-12.1l-13-2.6l-5.2,25.9l13,2.6
		c42.3,8.4,85.7,12.7,128.8,12.7c43.2,0,86.5-4.3,128.8-12.7l13-2.6l-5.2-25.9l-13,2.6c-36.7,7.3-73.5,11.3-110.4,12.1V961.3
		c58.1-1.6,114.8-13.7,168.7-36l12.2-5.1l-10.1-24.4l0,0l-25.3-61.2c37.8-17.2,72.2-40.2,102.6-68.6l46.8,46.8l9.4,9.4l9.4,9.4
		l9.4-9.4c33.1-33.1,61.1-70.8,83.1-112.1c5.3-9.8,10.2-19.9,14.7-30l73.4,30.4v0l12.2,5.1l5.1-12.2c12.6-30.5,22.5-61.7,29.6-93.6
		l168.5,33.5l5.2-25.9l-168.5-33.5c4.2-24,6.8-48.2,7.9-72.7c1.8-41.3-0.9-82.4-8-123l77.8-15.5l-5.2-25.9l-77.8,15.5
		c-3.1-13.8-6.7-27.5-10.8-41.1c-18.7-61.8-47.6-119.4-85.6-171.3c-39.1-53.3-87-99.1-142.3-136l-11-7.3l-7.3,11l0,0l-51.4,76.9l0,0
		l-7.3,11l11,7.3c20.7,13.9,40.4,29.5,58.5,46.6l-112.1,112.1c-24.9-22.7-53.4-40.8-84.8-53.8c-34.9-14.4-71.6-21.9-109.2-22.2
		c-34.5-0.2-68.4,5.6-100.9,17.4l-25.4-61.2l0,0l-10.1-24.4l-12.2,5.1c-46.7,19.3-88.5,47.3-124.3,83l-9.4,9.4l9.4,9.4l9.4,9.4
		l46.9,46.9c-22.8,24.9-40.9,53.4-53.8,84.7c-13,31.3-20.3,64.2-21.8,98H511.1c0.7-24.9,3.6-49.7,8.5-74.4l2.6-13l-25.9-5.2l-2.6,13
		c-12.2,61.6-12.2,124,0,185.5l2.6,13l25.9-5.2l-2.6-13c-4.9-24.7-7.7-49.5-8.5-74.4h158.3h26.5h66.4c1.4,21.1,6.1,41.7,14.1,61.3
		c10,24.6,24.6,46.6,43.5,65.5l9.4,9.4l18.7-18.7l-9.4-9.4c-66.9-66.9-66.9-175.8,0-242.8c66.9-66.9,175.8-66.9,242.8,0
		c66.9,66.9,66.9,175.8,0,242.8c-32.4,32.4-75.5,50.3-121.4,50.3h-13.2v13.2v13.2V750c-29.8-1.5-59.5-8.2-87.8-19.9
		c-65.2-27-115.9-77.8-142.9-142.9l-5.1-12.2l-12.2,5.1l0,0l-180.1,74.6l-2.9,1.2l0,0L454.8,681c-48.8-126.2-48.8-263.6,0-389.9
		l158.5,65.6l10.1-24.4l-73-30.2C621,144.6,774.3,42.2,946.8,37.2V103v13.2v13.2H960c47.1,0,93,9.1,136.5,27.1l12.2,5.1l10.1-24.4
		l0,0l34.7-83.8l0.7-1.7l0,0L1214.6-94c145.7,64.1,266.8,182.3,331.1,337.5l5.1,12.2l12.2-5.1v0l73.1-30.3
		c31.8,80.8,48.7,165.6,50.2,252.5h-79.1v26.5h79.2h13.2h13.2V486c0-49.2-4.9-98.6-14.5-146.9c-8.7-43.9-21.5-87.2-37.9-129
		l73.3-30.4v0l12.2-5.1l-5.1-12.2c-31.8-76.9-74.7-148.5-127.5-212.8c-52.8-64.3-114.6-120.4-183.8-166.6l-11-7.3l-7.3,11l0,0
		l-44.1,66c-37.5-24.1-77.3-45-118.4-62.1c-41.6-17.3-84.9-30.8-128.9-40.4l12.9-64.8c21.8,4.7,43.5,10.3,65,16.9l12.7,3.8l3.8-12.7
		h0l23-75.8c48.9,15.6,95.9,35.2,140.7,58.4l-31.1,58.2c-20.7-10.6-41.9-20.5-63.3-29.3l-12.2-5.1l-10.1,24.4l12.2,5.1
		c24.7,10.2,49.1,21.8,72.6,34.4l11.7,6.2l12.5-23.3l0,0l31.1-58.1c202.7,112.5,356.1,299.4,426.9,520.2l-63,19.1v0l-25.3,7.7
		l3.8,12.7c54.4,179.3,45.7,368.5-22,538.8l-146.4-60.7l0,0l-2.9-1.2l-9.3-3.9v0l-12.2-5.1l-5.1,12.2
		c-14.2,34.2-31.4,67.3-51.4,98.5l-65.7-43.9v0l-11-7.3l-7.3,11c-19.7,29.4-42.3,57-67.3,82.1l-9.4,9.4l9.4,9.4v0l8.2,8.2l1.2,1.2
		l0,0l46.6,46.6c-26.7,25.6-55.8,49-86.6,69.6l-11,7.3l14.7,22l11-7.3c32.2-21.5,62.6-46,90.6-72.9l56.1,56.1l9.4,9.4l9.4-9.4
		c34.8-34.8,66.3-73.2,93.6-114.1l7.3-11l-22-14.7l-7.3,11c-23.9,35.8-51.2,69.6-81.1,100.6l-112.1-112.1
		c19.6-20.5,37.6-42.5,53.9-65.7l66,44.1v0l11,7.3l7.3-11c21.5-32.2,40.3-66.5,55.8-102l146.5,60.7c-19.4,44.7-43,88-70.6,129.3
		l-7.3,11l22,14.7l7.3-11c34.8-52.1,63.8-108,86.2-166.4c22.2-57.7,38-118,47.1-179.1c9.1-61.2,11.4-123.4,6.9-185.1
		c-4.2-58-14.4-115.7-30.5-171.6l63.2-19.2c31.1,107.7,42.7,223,31.1,341.2c-17.9,181.5-88.2,345.5-194.3,478.3l-50.7-41.6l0,0
		l-0.3-0.3l-9.9-8.1v0l-10.2-8.4l-8.4,10.2c-16.9,20.6-35.1,40.7-54,59.5l-9.4,9.4l18.7,18.7l9.4-9.4c16.4-16.4,32.2-33.6,47.2-51.3
		l50.8,41.7c-187.1,220.7-475.9,349.2-785,318.8c-55.6-5.5-110-15.9-162.6-30.9l23-76l0,0l3.8-12.7l-12.7-3.8
		c-51.2-15.5-101.1-36.2-148.3-61.4l-11.7-6.2l-12.5,23.3l11.7,6.2c44.8,24,92,43.9,140.5,59.5l-19.2,63.5
		c-166.2-52.7-313.9-152.3-427.2-290.3c-35.5-43.2-66.6-89-93.1-136.8l70-37.4L220,866.6L149.9,904c-78.3-151-112.6-321-98-494.1
		l78.7,7.8l2.6-26.3l-78.7-7.8c9.3-82.1,29.1-160.6,58.1-234.2l61.5,25.5c-18.7,47.3-33.2,96.4-43.1,146.3l-2.6,13l25.9,5.2v0
		l64.9,12.9c-7.2,39.8-11.2,80.2-11.9,120.6h-66.1H128h-13.2V486c0,55.2,5.5,110.7,16.2,164.9c10.8,54.2,27,107.5,48.1,158.6
		l5.1,12.2l12.2-5.1v0l73.3-30.4c17.9,41.1,39.5,80.7,64.4,118l7.3,11l22-14.7l-7.3-11c-26.4-39.5-49-81.7-67.1-125.6l-5.1-12.2
		l-12.2,5.1v0l-73.1,30.3c-36.5-92.1-55.7-188.8-57.3-287.9h65.9h13.2h13.2V486c0-47.5,4.7-95.1,14-141.7l2.6-13l-25.9-5.2v0
		l-64.6-12.9c10.4-48,25.1-95.3,43.9-140.7l5.1-12.2l-12.2-5.1v0l-73.7-30.5c68.2-159.2,179.8-293.8,319.5-390l37.3,55.8
		c-41.8,28.9-81.2,61.7-117.2,97.7l-9.4,9.4l9.4,9.4l9.4,9.4L493,37.8l18.7-18.7L390.4-102.2c35.3-34.2,73.8-65.3,114.6-92.6l11-7.3
		l-7.3-11l0,0l-44.5-66.6c42.6-27.5,87.5-51.5,134.6-71.7l25.6,61.7c-21.3,9.2-42.4,19.4-62.8,30.3l-11.7,6.2l12.5,23.3l11.7-6.2
		c23.5-12.6,48-24.1,72.6-34.4l12.2-5.1l-6.4-15.4l-29.3-70.7c104.3-41.2,217.9-63.7,336.8-63.7h13.2v-26.5H960
		c-233.3,0-456.9,86.3-629.7,242.9C157.4-52.1,49.7,162,26.8,394.1c-6.2,63.3-6.1,127.2,0.4,189.9c6.4,61.1,18.9,121.9,37.1,180.5
		c17.9,57.6,41.6,113.8,70.4,167c28.5,52.7,62.3,102.9,100.3,149.3c38.1,46.4,80.8,89.3,126.9,127.5c46.6,38.6,97.1,72.8,150,101.7
		c54,29.4,111.1,53.5,169.8,71.6c60.2,18.6,122.9,31.2,186.2,37.5c30.9,3,62,4.6,93,4.6c32.5,0,64.8-1.7,96.9-5
		c61.1-6.4,121.9-18.9,180.5-37.1c57.6-17.9,113.8-41.6,167-70.4c52.7-28.5,102.9-62.3,149.3-100.3s89.3-80.8,127.5-126.9
		c38.6-46.6,72.8-97.1,101.7-150c29.4-54,53.5-111.1,71.6-169.8c18.6-60.2,31.2-122.9,37.5-186.2
		C1899.4,514.7,1899.3,450.7,1892.8,388z"/>
</g>
<g>
	
		<linearGradient id="SVGID_3_" gradientUnits="userSpaceOnUse" x1="837.8558" y1="1144.6951" x2="1121.1748" y2="706.8386" gradientTransform="matrix(1 0 0 -1 0 1442)">
		<stop  offset="1.060000e-02" style="stop-color:#C7C7C7"/>
		<stop  offset="1" style="stop-color:#4A4E54"/>
	</linearGradient>
	<circle class="st2" cx="960" cy="486.1" r="219.8"/>
	<g>
		<circle class="st3" cx="960" cy="486.1" r="201.4"/>
	</g>
	<g>
		
			<radialGradient id="SVGID_4_" cx="890.2693" cy="1083.5339" r="322.3554" gradientTransform="matrix(1 0 0 -1 0 1442)" gradientUnits="userSpaceOnUse">
			<stop  offset="5.319149e-03" style="stop-color:#DEDEDE"/>
			<stop  offset="1" style="stop-color:#4A4E54"/>
		</radialGradient>
		<polygon class="st4" points="977.4,465.7 1058.9,512.1 1123.6,451.6 1091.8,365.1 1073.4,447.7 		"/>
		
			<radialGradient id="SVGID_5_" cx="890.2693" cy="1083.5339" r="322.3554" gradientTransform="matrix(1 0 0 -1 0 1442)" gradientUnits="userSpaceOnUse">
			<stop  offset="5.319149e-03" style="stop-color:#DEDEDE"/>
			<stop  offset="1" style="stop-color:#4A4E54"/>
		</radialGradient>
		<path class="st5" d="M974.7,486.6l-8.5,169.6l85.6-130.5L974.7,486.6z M869.5,525.7l86.8,130.1l-9.6-169.3L869.5,525.7z"/>
		
			<radialGradient id="SVGID_6_" cx="890.2693" cy="1083.5339" r="322.3554" gradientTransform="matrix(1 0 0 -1 0 1442)" gradientUnits="userSpaceOnUse">
			<stop  offset="5.319149e-03" style="stop-color:#DEDEDE"/>
			<stop  offset="1" style="stop-color:#4A4E54"/>
		</radialGradient>
		<polygon class="st6" points="960.7,339.4 969.4,366.1 997.4,366.1 974.7,382.6 983.4,409.3 960.7,392.8 938,409.3 946.7,382.6 
			923.9,366.1 952,366.1 		"/>
		
			<radialGradient id="SVGID_7_" cx="890.2693" cy="1083.5339" r="322.3554" gradientTransform="matrix(1 0 0 -1 0 1442)" gradientUnits="userSpaceOnUse">
			<stop  offset="5.319149e-03" style="stop-color:#DEDEDE"/>
			<stop  offset="1" style="stop-color:#4A4E54"/>
		</radialGradient>
		<polygon class="st7" points="942.6,465.7 861.1,512.1 796.4,451.6 828.2,365.1 846.6,447.7 		"/>
	</g>
</g>
</svg>
