<?xml version="1.0" encoding="utf-8"?>
<!-- Generator: Adobe Illustrator 25.0.1, SVG Export Plug-In . SVG Version: 6.00 Build 0)  -->
<svg version="1.1" id="Layer_1" xmlns="http://www.w3.org/2000/svg" xmlns:xlink="http://www.w3.org/1999/xlink" x="0px" y="0px"
	 viewBox="0 0 256 256" style="enable-background:new 0 0 256 256;" xml:space="preserve">
<style type="text/css">
	.st0{fill:url(#SVGID_1_);}
	.st1{fill:#00072E;}
	.st2{fill:url(#SVGID_2_);}
	.st3{fill:url(#SVGID_3_);}
	.st4{fill:url(#SVGID_4_);}
	.st5{fill:url(#SVGID_5_);}
</style>
<g>
	
		<linearGradient id="SVGID_1_" gradientUnits="userSpaceOnUse" x1="68.2785" y1="221.3728" x2="206.1593" y2="8.2843" gradientTransform="matrix(1 0 0 -1 0 258)">
		<stop  offset="1.060000e-02" style="stop-color:#C7C7C7"/>
		<stop  offset="1" style="stop-color:#4A4E54"/>
	</linearGradient>
	<circle class="st0" cx="127.7" cy="128.5" r="107"/>
	<g>
		<circle class="st1" cx="127.7" cy="128.5" r="98"/>
	</g>
	<g>
		
			<radialGradient id="SVGID_2_" cx="93.7862" cy="191.6079" r="156.8783" gradientTransform="matrix(1 0 0 -1 0 258)" gradientUnits="userSpaceOnUse">
			<stop  offset="5.319149e-03" style="stop-color:#DEDEDE"/>
			<stop  offset="1" style="stop-color:#4A4E54"/>
		</radialGradient>
		<polygon class="st2" points="136.2,118.6 175.8,141.2 207.3,111.7 191.8,69.6 182.9,109.8 		"/>
		
			<radialGradient id="SVGID_3_" cx="93.7862" cy="191.6079" r="156.8783" gradientTransform="matrix(1 0 0 -1 0 258)" gradientUnits="userSpaceOnUse">
			<stop  offset="5.319149e-03" style="stop-color:#DEDEDE"/>
			<stop  offset="1" style="stop-color:#4A4E54"/>
		</radialGradient>
		<path class="st3" d="M134.9,128.7l-4.1,82.6l41.7-63.5L134.9,128.7z M83.7,147.8l42.2,63.3l-4.7-82.4L83.7,147.8z"/>
		
			<radialGradient id="SVGID_4_" cx="93.7862" cy="191.6079" r="156.8783" gradientTransform="matrix(1 0 0 -1 0 258)" gradientUnits="userSpaceOnUse">
			<stop  offset="5.319149e-03" style="stop-color:#DEDEDE"/>
			<stop  offset="1" style="stop-color:#4A4E54"/>
		</radialGradient>
		<polygon class="st4" points="128.1,57.1 132.3,70.1 145.9,70.1 134.9,78.1 139.1,91.1 128.1,83.1 117,91.1 121.2,78.1 110.2,70.1 
			123.8,70.1 		"/>
		
			<radialGradient id="SVGID_5_" cx="93.7862" cy="191.6079" r="156.8783" gradientTransform="matrix(1 0 0 -1 0 258)" gradientUnits="userSpaceOnUse">
			<stop  offset="5.319149e-03" style="stop-color:#DEDEDE"/>
			<stop  offset="1" style="stop-color:#4A4E54"/>
		</radialGradient>
		<polygon class="st5" points="119.3,118.6 79.6,141.2 48.1,111.7 63.6,69.6 72.5,109.8 		"/>
	</g>
</g>
</svg>
