<?xml version="1.0" encoding="utf-8"?>
<!-- Generator: Adobe Illustrator 25.0.1, SVG Export Plug-In . SVG Version: 6.00 Build 0)  -->
<svg version="1.1" id="Layer_3" xmlns="http://www.w3.org/2000/svg" xmlns:xlink="http://www.w3.org/1999/xlink" x="0px" y="0px"
	 viewBox="0 0 1870 1122" style="enable-background:new 0 0 1870 1122;" xml:space="preserve">
<style type="text/css">
	.st0{fill:none;stroke:#FFFFFF;stroke-width:30;stroke-linecap:round;stroke-linejoin:round;stroke-miterlimit:10;}
	.st1{fill:#FFFFFF;}
	.st2{fill:#FFFFFF;stroke:#FFFFFF;stroke-width:5;stroke-linecap:round;stroke-linejoin:round;stroke-miterlimit:10;}
</style>
<circle class="st0" cx="918.5" cy="602" r="249.9"/>
<line class="st0" x1="803.8" y1="371.9" x2="767.1" y2="304.1"/>
<circle class="st0" cx="752.9" cy="271.6" r="31.1"/>
<circle class="st0" cx="1079.1" cy="935.2" r="31.1"/>
<circle class="st0" cx="568" cy="706.5" r="31.1"/>
<line class="st0" x1="1032.5" y1="369.1" x2="1112.9" y2="223.6"/>
<circle class="st0" cx="1134.1" cy="195.4" r="33.9"/>
<line class="st0" x1="1160.9" y1="517.3" x2="1496.9" y2="402.9"/>
<circle class="st0" cx="1583.1" cy="369.1" r="88.9"/>
<line class="st0" x1="1155.3" y1="692.4" x2="1302.1" y2="778.5"/>
<circle class="st0" cx="1400.9" cy="842" r="114.4"/>
<line class="st0" x1="1033.9" y1="829.3" x2="1066.4" y2="905.5"/>
<line class="st0" x1="723.3" y1="770" x2="532.7" y2="875.9"/>
<circle class="st0" cx="466.4" cy="912.6" r="74.8"/>
<line class="st0" x1="675.3" y1="676.8" x2="596.2" y2="695.2"/>
<line class="st0" x1="678.1" y1="531.4" x2="407.1" y2="452.4"/>
<circle class="st0" cx="301.2" cy="425.5" r="105.9"/>
<g>
	<circle class="st1" cx="234.1" cy="623.7" r="23.3"/>
	<circle class="st1" cx="478.4" cy="759.2" r="23.3"/>
	<circle class="st1" cx="509.4" cy="145.1" r="23.3"/>
	<circle class="st1" cx="924.5" cy="255.2" r="23.3"/>
	<circle class="st1" cx="1309.9" cy="145.1" r="23.3"/>
	<circle class="st1" cx="1506.1" cy="606.8" r="23.3"/>
	<circle class="st1" cx="893.4" cy="914.5" r="23.3"/>
</g>
<path class="st2" d="M912.1,456.3c-1.5-1.4-3.5-2.2-5.6-2.2c-2.1,0-4.1,0.8-5.6,2.2l-31.2,31.2h-58.6c-7,0-13.8,2.8-18.8,7.8
	c-5,5-7.8,11.7-7.8,18.8v58.6c0,4.4,3.5,7.9,7.9,7.9c4.4,0,7.9-3.5,7.9-7.9v-34.3c3.4,1.5,7,2.3,10.7,2.3h210.3
	c2.9,0,5.7,1.2,7.8,3.2c2.1,2.1,3.2,4.9,3.2,7.8v36.9h-41.2c-10.8,0-21.1,4.5-28.5,12.4c-7.6,7.9-11.5,18.5-10.8,29.4
	c0.8,10.1,5.4,19.4,12.9,26.2c7.5,6.8,17.2,10.5,27.3,10.4h40.2v36.6c0,3-1.2,5.9-3.3,8s-5,3.3-8,3.3h-78.6c-4.4,0-7.9,3.5-7.9,7.9
	c0,4.4,3.5,7.9,7.9,7.9h78.5c7.2,0,14.1-2.9,19.2-8c5.1-5.1,7.9-12,8-19.2v-36.6h11.1c4.8,0,9.3-1.9,12.7-5.3
	c3.4-3.4,5.3-7.9,5.3-12.7v-42.4c0-4.8-1.9-9.3-5.2-12.7c-3.4-3.4-7.9-5.3-12.6-5.3h-11.1v-36.9c0-7.1-2.9-13.9-7.9-18.9
	c-5-5-11.8-7.8-19-7.8h-0.8l0-13.2c0-6.4-2.6-12.6-7.1-17.1c-4.5-4.5-10.7-7.1-17.1-7.1h-53.1L912.1,456.3z M1059.4,604.4
	c0.6,0,1.1,0.2,1.5,0.6c0.4,0.4,0.6,0.9,0.6,1.5V649c0,0.6-0.2,1.1-0.6,1.5c-0.4,0.4-1,0.6-1.5,0.6h-67.1c-6.1,0.1-11.9-2-16.5-6.1
	c-4.5-4-7.4-9.6-7.9-15.7c-0.4-6.5,1.8-12.8,6.2-17.5c4.4-4.7,10.6-7.4,17.1-7.4L1059.4,604.4z M832.4,524.9h-21.3
	c-3.8,0-7.4-2-9.3-5.4c-1.9-3.3-1.9-7.4,0-10.7c1.9-3.3,5.5-5.4,9.3-5.4h42.8L832.4,524.9z M996.4,503.3c2.2,0,4.4,0.9,5.9,2.5
	c1.6,1.6,2.5,3.7,2.5,5.9v13.2h-24.2l-21.5-21.5L996.4,503.3z M854.8,524.9l51.7-51.8l51.7,51.8H854.8z"/>
<path class="st2" d="M792.4,688.5c9.1,0,17.8,3.6,24.2,10c6.4,6.4,10,15.1,10,24.2c0,4.4,3.5,7.9,7.9,7.9c4.4,0,7.9-3.5,7.9-7.9
	c0-13.3-5.3-26-14.7-35.4c-9.4-9.4-22.1-14.7-35.4-14.7c-4.4,0-7.9,3.5-7.9,7.9C784.5,685,788,688.5,792.4,688.5L792.4,688.5z"/>
<path class="st2" d="M792.4,652.4c18.7,0,36.6,7.4,49.8,20.6c13.2,13.2,20.6,31.1,20.6,49.8c0,4.4,3.5,7.9,7.9,7.9
	c4.4,0,7.9-3.5,7.9-7.9c0-22.9-9.1-44.8-25.3-61c-16.2-16.2-38.1-25.3-61-25.3c-4.4,0-7.9,3.5-7.9,7.9
	C784.5,648.8,788,652.4,792.4,652.4L792.4,652.4z"/>
<path class="st2" d="M792.4,616.2c28.3,0,55.3,11.3,75.3,31.2c20,20,31.2,47.1,31.3,75.3c0,4.4,3.5,7.9,7.9,7.9
	c4.4,0,7.9-3.5,7.9-7.9c0-32.5-13-63.6-35.9-86.5c-22.9-22.9-54.1-35.8-86.5-35.9c-4.4,0-7.9,3.5-7.9,7.9
	C784.5,612.7,788,616.2,792.4,616.2L792.4,616.2z"/>
</svg>
