<?xml version="1.0" encoding="utf-8"?>
<!-- Generator: Adobe Illustrator 25.0.1, SVG Export Plug-In . SVG Version: 6.00 Build 0)  -->
<svg version="1.1" id="Layer_1" xmlns="http://www.w3.org/2000/svg" xmlns:xlink="http://www.w3.org/1999/xlink" x="0px" y="0px"
	 viewBox="0 0 1048 1048" style="enable-background:new 0 0 1048 1048;" xml:space="preserve">
<style type="text/css">
	.st0{fill:url(#SVGID_1_);}
	.st1{enable-background:new    ;}
	.st2{fill:#001846;}
	.st3{fill:url(#SVGID_2_);}
	.st4{fill:url(#SVGID_3_);}
	.st5{fill:url(#SVGID_4_);}
	.st6{fill:#8DE4FF;enable-background:new    ;}
</style>
<radialGradient id="SVGID_1_" cx="281.5637" cy="837.9369" r="1142.8149" gradientTransform="matrix(1 0 0 -1 0 1047.8898)" gradientUnits="userSpaceOnUse">
	<stop  offset="1.063830e-02" style="stop-color:#9CE5FF"/>
	<stop  offset="0.1782" style="stop-color:#94DDFF"/>
	<stop  offset="0.359" style="stop-color:#98E1FF"/>
	<stop  offset="0.4388" style="stop-color:#A3EEFF"/>
	<stop  offset="0.625" style="stop-color:#8ED7FF"/>
	<stop  offset="0.8803" style="stop-color:#86CFFA"/>
</radialGradient>
<circle class="st0" cx="524" cy="524" r="512"/>
<g class="st1">
	<circle class="st2" cx="524" cy="524" r="463.1"/>
</g>
<radialGradient id="SVGID_2_" cx="383.5637" cy="789.9368" r="992.2928" gradientTransform="matrix(1 0 0 -1 0 1047.8898)" gradientUnits="userSpaceOnUse">
	<stop  offset="1.063830e-02" style="stop-color:#9CE5FF"/>
	<stop  offset="0.1782" style="stop-color:#94DDFF"/>
	<stop  offset="0.359" style="stop-color:#98E1FF"/>
	<stop  offset="0.4388" style="stop-color:#A3EEFF"/>
	<stop  offset="0.625" style="stop-color:#8ED7FF"/>
	<stop  offset="0.8803" style="stop-color:#86CFFA"/>
</radialGradient>
<polygon class="st3" points="564,477.2 751.4,583.9 900.2,444.8 827,245.7 784.8,435.7 "/>
<radialGradient id="SVGID_3_" cx="383.5637" cy="789.9368" r="992.2928" gradientTransform="matrix(1 0 0 -1 0 1047.8898)" gradientUnits="userSpaceOnUse">
	<stop  offset="1.063830e-02" style="stop-color:#9CE5FF"/>
	<stop  offset="0.1782" style="stop-color:#94DDFF"/>
	<stop  offset="0.359" style="stop-color:#98E1FF"/>
	<stop  offset="0.4388" style="stop-color:#A3EEFF"/>
	<stop  offset="0.625" style="stop-color:#8ED7FF"/>
	<stop  offset="0.8803" style="stop-color:#86CFFA"/>
</radialGradient>
<path class="st4" d="M557.9,525.2l-19.5,390.2l196.9-300.3L557.9,525.2z M315.9,615.1l199.6,299.3l-22-389.3L315.9,615.1z"/>
<radialGradient id="SVGID_4_" cx="383.5637" cy="789.9368" r="992.2928" gradientTransform="matrix(1 0 0 -1 0 1047.8898)" gradientUnits="userSpaceOnUse">
	<stop  offset="1.063830e-02" style="stop-color:#9CE5FF"/>
	<stop  offset="0.1782" style="stop-color:#94DDFF"/>
	<stop  offset="0.359" style="stop-color:#98E1FF"/>
	<stop  offset="0.4388" style="stop-color:#A3EEFF"/>
	<stop  offset="0.625" style="stop-color:#8ED7FF"/>
	<stop  offset="0.8803" style="stop-color:#86CFFA"/>
</radialGradient>
<polygon class="st5" points="484,477.2 296.6,583.9 147.8,444.8 221,245.7 263.2,435.7 "/>
<path class="st6" d="M472.2,218.5c0-1.9,19.2-13.3,32.3-40.9c14.7-31.1,16.6-48.9,19.5-48.9s4.7,17.9,19.5,48.9
	c13.1,27.6,32.3,39.1,32.3,40.9s-19.2,13.3-32.3,40.9c-14.7,31.1-16.6,48.9-19.5,48.9s-4.7-17.9-19.5-48.9
	C491.4,231.8,472.2,220.4,472.2,218.5z"/>
</svg>
