<?xml version="1.0" encoding="utf-8"?>
<!-- Generator: Adobe Illustrator 25.0.1, SVG Export Plug-In . SVG Version: 6.00 Build 0)  -->
<svg version="1.1" id="Layer_1" xmlns="http://www.w3.org/2000/svg" xmlns:xlink="http://www.w3.org/1999/xlink" x="0px" y="0px"
	 viewBox="0 0 120 130" style="enable-background:new 0 0 120 130;" xml:space="preserve">
<style type="text/css">
	.st0{fill:url(#SVGID_1_);}
	.st1{fill:url(#SVGID_2_);}
	.st2{fill:url(#SVGID_3_);}
	.st3{fill:url(#SVGID_4_);}
	.st4{fill:url(#SVGID_5_);}
	.st5{fill:url(#SVGID_6_);}
	.st6{fill:url(#SVGID_7_);}
	.st7{fill:url(#SVGID_8_);}
	.st8{fill:url(#SVGID_9_);}
</style>
<polygon points="90,60 90,70 70,70 70,80 90,80 90,90 0,90 0,100 100,100 100,60 110,60 110,100 120,100 120,90 120,80 120,70 
	120,60 120,50 90,50 "/>
<rect y="110" width="120" height="10"/>
<polygon points="50,70 40,70 40,30 0,30 0,40 30,40 30,50 10,50 10,60 30,60 30,70 30,80 60,80 60,70 60,60 80,60 80,50 60,50 
	60,40 120,40 120,30 50,30 "/>
<rect y="70" width="20" height="10"/>
<rect y="10" width="120" height="10"/>
<linearGradient id="SVGID_1_" gradientUnits="userSpaceOnUse" x1="-2.728484e-12" y1="-1.7647" x2="9.791246e-12" y2="119.9422">
	<stop  offset="0" style="stop-color:#808080"/>
	<stop  offset="0.2937" style="stop-color:#C0C0C0"/>
	<stop  offset="1" style="stop-color:#646464"/>
</linearGradient>
<rect y="20" class="st0" width="0" height="10"/>
<polygon points="0,30 40,30 40,70 50,70 50,30 120,30 120,20 0,20 "/>
<linearGradient id="SVGID_2_" gradientUnits="userSpaceOnUse" x1="60" y1="-1.7647" x2="60" y2="119.9422">
	<stop  offset="0" style="stop-color:#808080"/>
	<stop  offset="0.2937" style="stop-color:#C0C0C0"/>
	<stop  offset="1" style="stop-color:#646464"/>
</linearGradient>
<polygon class="st1" points="0,30 40,30 40,70 50,70 50,30 120,30 120,20 0,20 "/>
<linearGradient id="SVGID_3_" gradientUnits="userSpaceOnUse" x1="60" y1="-1.7647" x2="60" y2="119.9422">
	<stop  offset="0" style="stop-color:#808080"/>
	<stop  offset="0.2937" style="stop-color:#C0C0C0"/>
	<stop  offset="1" style="stop-color:#646464"/>
</linearGradient>
<polygon class="st2" points="0,120 0,120 0,130 120,130 120,120 "/>
<linearGradient id="SVGID_4_" gradientUnits="userSpaceOnUse" x1="60" y1="-1.7647" x2="60" y2="119.9422">
	<stop  offset="0" style="stop-color:#808080"/>
	<stop  offset="0.2937" style="stop-color:#C0C0C0"/>
	<stop  offset="1" style="stop-color:#646464"/>
</linearGradient>
<polygon class="st3" points="0,10 0,10 120,10 120,0 0,0 "/>
<linearGradient id="SVGID_5_" gradientUnits="userSpaceOnUse" x1="-1.091394e-11" y1="-1.7647" x2="1.605794e-12" y2="119.9422">
	<stop  offset="0" style="stop-color:#808080"/>
	<stop  offset="0.2937" style="stop-color:#C0C0C0"/>
	<stop  offset="1" style="stop-color:#646464"/>
</linearGradient>
<rect y="100" class="st4" width="0" height="10"/>
<polygon points="110,60 100,60 100,100 0,100 0,110 120,110 120,100 110,100 "/>
<linearGradient id="SVGID_6_" gradientUnits="userSpaceOnUse" x1="60" y1="-1.7647" x2="60" y2="119.9422">
	<stop  offset="0" style="stop-color:#808080"/>
	<stop  offset="0.2937" style="stop-color:#C0C0C0"/>
	<stop  offset="1" style="stop-color:#646464"/>
</linearGradient>
<polygon class="st5" points="110,60 100,60 100,100 0,100 0,110 120,110 120,100 110,100 "/>
<linearGradient id="SVGID_7_" gradientUnits="userSpaceOnUse" x1="-6.366463e-12" y1="-1.7647" x2="6.153268e-12" y2="119.9422">
	<stop  offset="0" style="stop-color:#808080"/>
	<stop  offset="0.2937" style="stop-color:#C0C0C0"/>
	<stop  offset="1" style="stop-color:#646464"/>
</linearGradient>
<polygon class="st6" points="0,40 0,50 0,60 0,70 0,70 0,40 "/>
<linearGradient id="SVGID_8_" gradientUnits="userSpaceOnUse" x1="-8.185452e-12" y1="-1.7647" x2="4.334278e-12" y2="119.9422">
	<stop  offset="0" style="stop-color:#808080"/>
	<stop  offset="0.2937" style="stop-color:#C0C0C0"/>
	<stop  offset="1" style="stop-color:#646464"/>
</linearGradient>
<rect y="80" class="st7" width="0" height="10"/>
<polygon points="60,50 80,50 80,60 60,60 60,70 60,80 30,80 30,70 30,60 10,60 10,50 30,50 30,40 0,40 0,70 20,70 20,80 0,80 0,90 
	90,90 90,80 70,80 70,70 90,70 90,60 90,50 120,50 120,40 60,40 "/>
<linearGradient id="SVGID_9_" gradientUnits="userSpaceOnUse" x1="60" y1="-1.7647" x2="60" y2="119.9422">
	<stop  offset="0" style="stop-color:#808080"/>
	<stop  offset="0.2937" style="stop-color:#C0C0C0"/>
	<stop  offset="1" style="stop-color:#646464"/>
</linearGradient>
<polygon class="st8" points="60,50 80,50 80,60 60,60 60,70 60,80 30,80 30,70 30,60 10,60 10,50 30,50 30,40 0,40 0,70 20,70 
	20,80 0,80 0,90 90,90 90,80 70,80 70,70 90,70 90,60 90,50 120,50 120,40 60,40 "/>
</svg>
