<?xml version="1.0" encoding="utf-8"?>
<!-- Generator: Adobe Illustrator 25.0.1, SVG Export Plug-In . SVG Version: 6.00 Build 0)  -->
<svg version="1.1" id="Layer_1" xmlns="http://www.w3.org/2000/svg" xmlns:xlink="http://www.w3.org/1999/xlink" x="0px" y="0px"
	 viewBox="0 0 256 256" style="enable-background:new 0 0 256 256;" xml:space="preserve">
<style type="text/css">
	.st0{fill:#FFFFFF;}
</style>
<path class="st0" d="M209.1,0.5H46.9C21,0.5,0,21.5,0,47.4v162.3c0,25.9,21,46.9,46.9,46.9h162.3c25.9,0,46.9-21,46.9-46.9V47.4
	C256,21.5,235,0.5,209.1,0.5z M233,142c0,2.1-0.3,4.2-1.6,6c0,0,0,0,0,0c-2.1,3.2-5.1,4.6-8.8,4.3c-1.2-0.1-1.5,0.3-1.5,1.5
	c0.1,8.7,0,17.4,0,26.1c0,3.6-1.2,6.9-3.2,9.7c-3.1,4.4-7.6,6.2-12.9,6.2c-49.9,0-99.8,0-149.7,0c-0.4,0-0.7,0-1.1,0
	c-6.4-0.2-11.9-4.1-14.1-10.2c-0.4-1.1-0.7-2.3-1-3.5c0-10.2,0-20.5,0-30.7c0-26.3,0-52.6,0-78.9c0.1-0.4,0.2-0.7,0.2-1.1
	c1.2-5.6,4.2-9.6,9.5-11.9c1.5-0.6,3.1-0.8,4.7-1.2c51.1,0,102.2,0,153.3,0c0.1,0.1,0.2,0.2,0.3,0.2c8.2,0.6,14.2,8.2,14.1,16.3
	c-0.1,8.6,0,17.2-0.1,25.8c0,1,0.3,1.4,1.3,1.3c1.5-0.1,2.9-0.1,4.3,0.4c3.9,1.4,6.3,5,6.3,9.7C233,122,233,132,233,142z"/>
<path class="st0" d="M80.2,101.9c-0.3-4.6-4.3-7.8-8.7-7.1c-3.5,0.6-6.1,3.8-6.1,7.7c0,15.7,0,20.8-0.1,36.5l0,10.6
	c0,1.1,0,2.1,0,3.2c0.2,5.3,5.6,8.7,10.3,6.6c3-1.3,4.3-3.8,4.6-6.9c0-16.3,0-32.5-0.1-48.8C80.2,103.1,80.2,102.5,80.2,101.9z"/>
<path class="st0" d="M213.3,152.3c-5.6,0.1-11.3,0-16.9,0c-4.9,0-9.3-1.4-13.3-4.2c-9.7-6.8-13.4-19.6-9-30.7
	c3.7-9.3,12.7-15.9,23-15.6c5.4,0.2,10.8,0,16.2,0.1c1.2,0,1.5-0.3,1.5-1.5c-0.1-8.4-0.1-16.9,0-25.3c0-6-4.3-10-10-10
	c-36.8,0.1-73.7,0.1-110.5,0.1c-13.1,0-26.2,0-39.4,0c-1.4,0-2.8,0.1-4,0.7c-3.8,1.8-5.5,4.9-5.5,9l0,105c0,5.4,3.9,9.3,9.2,9.3
	c50.3,0,100.7,0,151,0c0.6,0,1.2,0,1.8-0.1c4.4-0.9,7.4-4.6,7.4-9.5c0-8.6,0-17.1,0.1-25.7C214.8,152.5,214.4,152.3,213.3,152.3z
	 M86.5,152.5c0,6.8-5.5,12.7-12.5,13.6c-6.2,0.8-12.6-3.9-14.4-10.5c-0.5-2-0.6-4-0.5-6l0-15.4c0-15.5,0-15.7,0-31.2
	c0-7,4.7-12.8,11.5-14.1c7.1-1.4,14.6,4,15.7,11.2c0.3,1.7,0.3,3.4,0.3,5.1C86.5,121,86.5,136.8,86.5,152.5z"/>
<path class="st0" d="M226.7,112.2c0-2.5-1.1-3.7-3.6-3.7c-8.9,0-17.8,0-26.7,0c-1.2,0-2.4,0.2-3.6,0.4c-7.6,1.5-14.1,8.9-14.2,18.1
	c0,10.4,8,19.1,18.7,18.9c8.5-0.2,17.1,0,25.6,0c2.8,0,3.9-1.1,3.9-3.9c0-4.9,0-9.8,0-14.7c0,0,0,0,0,0
	C226.7,122.1,226.7,117.1,226.7,112.2z M202.5,137.9c-1.9,1.2-3.8,1.7-6.1,1.8c-6.8,0.2-13-6.2-11.9-14.2c0.6-4.4,2.9-7.8,6.9-9.8
	c5.4-2.6,11.5-0.8,14.8,4.3C210.1,126.1,208.5,134.1,202.5,137.9z"/>
<path class="st0" d="M196.3,121.1c-2.8-0.1-5.7,2.7-5.8,5.9c0,3.9,3,6.2,5.7,6.1c3.1,0,5.8-2.7,5.8-6
	C202.1,123.9,199.5,121.2,196.3,121.1z"/>
</svg>
