<?xml version="1.0" encoding="utf-8"?>
<!-- Generator: Adobe Illustrator 25.0.1, SVG Export Plug-In . SVG Version: 6.00 Build 0)  -->
<svg version="1.1" id="Layer_1" xmlns="http://www.w3.org/2000/svg" xmlns:xlink="http://www.w3.org/1999/xlink" x="0px" y="0px"
	 viewBox="0 0 480 140" style="enable-background:new 0 0 480 140;" xml:space="preserve">
<style type="text/css">
	.st0{fill:#FFFFFF;}
	.st1{opacity:0.5;fill:#FFFFFF;}
</style>
<path class="st0" d="M74,71.6L92.6,83L74,94.3L55.5,83L74,71.6 M74,70.4L53.4,83L74,95.6L94.6,83L74,70.4L74,70.4z"/>
<polygon class="st1" points="74,70.4 74,45.4 94.6,58 94.6,83 "/>
<polygon class="st0" points="53.4,58 74,45.4 74,70.4 53.4,83 "/>
<g>
	<polygon class="st0" points="74,120.5 94.6,107.9 115.3,95.3 115.3,70.4 115.3,45.4 94.6,58 94.6,83 74,95.6 	"/>
</g>
<polygon class="st1" points="74,120.5 53.4,107.9 32.8,95.3 32.8,70.4 32.8,45.4 53.4,58 53.4,83 74,95.6 "/>
<path class="st0" d="M74,21.8l20.1,12l19.1,11.7L94.6,56.8L74.6,44.5L74,44.2l-0.6,0.3L53.4,56.8L34.9,45.4L54,33.8L74,21.8
	 M74,20.5L53.4,32.8L32.8,45.4L53.4,58L74,45.4L94.6,58l20.6-12.6L94.6,32.8L74,20.5L74,20.5z"/>
<path class="st0" d="M74,21.8L114.2,46v49.5L74,119.2L33.9,94.7V46L74,21.8 M74,20.5L32.8,45.4v49.9L74,120.5l41.2-24.3V45.4
	L74,20.5L74,20.5z"/>
<g>
	<path class="st0" d="M145.9,87c-0.3-0.3-0.5-0.7-0.5-1.2V55.9c0-0.5,0.2-0.9,0.5-1.2s0.7-0.5,1.2-0.5h8.5c2.3,0,4.4,0.6,6.3,1.7
		c1.9,1.1,3.4,2.7,4.6,4.6c1.1,1.9,1.7,4.1,1.7,6.4v8c0,2.3-0.6,4.4-1.7,6.4c-1.1,1.9-2.6,3.5-4.6,4.6c-1.9,1.1-4,1.7-6.3,1.7h-8.5
		C146.6,87.5,146.2,87.4,145.9,87z M155.6,83.9c1.6,0,3-0.4,4.3-1.2c1.3-0.8,2.4-1.8,3.1-3.1c0.8-1.3,1.2-2.8,1.2-4.3v-8.7
		c0-1.6-0.4-3-1.2-4.3s-1.8-2.4-3.1-3.1c-1.3-0.8-2.8-1.2-4.3-1.2h-6.3v26H155.6z"/>
	<path class="st0" d="M179.6,86.2c-1.6-0.9-2.9-2.2-3.8-3.8c-0.9-1.6-1.4-3.4-1.4-5.3v-6.9c0-1.9,0.5-3.6,1.4-5.3
		c0.9-1.6,2.2-2.9,3.8-3.8c1.6-0.9,3.3-1.4,5.2-1.4c1.9,0,3.6,0.5,5.2,1.4c1.6,0.9,2.9,2.2,3.8,3.8c0.9,1.6,1.4,3.4,1.4,5.3v3.3
		c0,0.5-0.2,0.9-0.5,1.2s-0.7,0.5-1.2,0.5h-15.4v2.1c0,1.2,0.3,2.3,0.9,3.4c0.6,1,1.4,1.8,2.4,2.4c1,0.6,2.1,0.9,3.4,0.9h7
		c0.2,0,0.4,0.1,0.5,0.2c0.1,0.1,0.2,0.3,0.2,0.5v2.2c0,0.2-0.1,0.4-0.2,0.5c-0.1,0.1-0.3,0.2-0.5,0.2h-7
		C182.9,87.5,181.2,87.1,179.6,86.2z M191.5,71.8V70c0-1.2-0.3-2.3-0.9-3.4c-0.6-1-1.4-1.8-2.4-2.4c-1-0.6-2.1-0.9-3.4-0.9
		c-1.2,0-2.3,0.3-3.4,0.9c-1,0.6-1.8,1.4-2.4,2.4c-0.6,1-0.9,2.1-0.9,3.4v1.8H191.5z"/>
	<path class="st0" d="M199.8,87.2c-0.1-0.2-0.2-0.5-0.1-0.7l10.4-31.7c0.1-0.2,0.2-0.3,0.4-0.5c0.2-0.1,0.4-0.2,0.6-0.2h3.2
		c0.2,0,0.4,0.1,0.6,0.2c0.2,0.1,0.3,0.3,0.4,0.5l10.4,31.7c0,0.1,0,0.2,0,0.3c0,0.2-0.1,0.4-0.2,0.5s-0.3,0.2-0.6,0.2h-2.4
		c-0.2,0-0.4-0.1-0.6-0.2s-0.3-0.3-0.4-0.5l-2.7-8.4h-12.5l-2.7,8.4c0,0.2-0.1,0.3-0.3,0.5c-0.2,0.1-0.4,0.2-0.6,0.2h-2.4
		C200.2,87.5,200,87.4,199.8,87.2z M217.8,75.1l-5.1-15.9l-5.1,15.9H217.8z"/>
	<path class="st0" d="M230.4,87.4c-0.1-0.1-0.2-0.3-0.2-0.5v-2.2c0-0.2,0.1-0.4,0.2-0.5c0.1-0.1,0.3-0.2,0.5-0.2h4V63.8h-4
		c-0.2,0-0.4-0.1-0.5-0.2c-0.1-0.1-0.2-0.3-0.2-0.5v-2.1c0-0.2,0.1-0.4,0.2-0.5s0.3-0.2,0.5-0.2h6c0.5,0,0.9,0.2,1.2,0.5
		s0.5,0.7,0.5,1.2v2.4l2.8-2.2c1.2-0.9,2.1-1.5,2.8-1.8c0.7-0.3,1.5-0.5,2.3-0.5h1.4c0.2,0,0.4,0.1,0.5,0.2c0.1,0.1,0.2,0.3,0.2,0.5
		v2.4c0,0.2-0.1,0.4-0.2,0.5c-0.1,0.1-0.3,0.2-0.5,0.2h-1.1c-0.8,0-1.6,0.2-2.3,0.5s-1.8,1.1-3.2,2.2l-2.8,2.3V84h5.6
		c0.2,0,0.4,0.1,0.5,0.2c0.1,0.1,0.2,0.3,0.2,0.5v2.2c0,0.2-0.1,0.4-0.2,0.5c-0.1,0.1-0.3,0.2-0.5,0.2h-13.3
		C230.7,87.5,230.5,87.5,230.4,87.4z"/>
	<path class="st0" d="M258.2,85.5c-1.3-1.4-2-3.1-2-5.3V63.9h-3.2c-0.2,0-0.4-0.1-0.5-0.2c-0.1-0.1-0.2-0.3-0.2-0.5v-2.2
		c0-0.2,0.1-0.4,0.2-0.5c0.1-0.1,0.3-0.2,0.5-0.2h3.2v-5c0-0.2,0.1-0.4,0.2-0.5c0.1-0.1,0.3-0.2,0.5-0.2h2.4c0.2,0,0.4,0.1,0.5,0.2
		c0.1,0.1,0.2,0.3,0.2,0.5v5h8.4c0.2,0,0.4,0.1,0.5,0.2c0.1,0.1,0.2,0.3,0.2,0.5v2.2c0,0.2-0.1,0.4-0.2,0.5
		c-0.1,0.1-0.3,0.2-0.5,0.2H260v15.8c0,1.2,0.4,2.2,1.1,3c0.8,0.8,1.7,1.1,3,1.2l4.4,0c0.2,0,0.4,0.1,0.5,0.2
		c0.1,0.1,0.2,0.3,0.2,0.5v2.2c0,0.2-0.1,0.4-0.2,0.5c-0.1,0.1-0.3,0.2-0.5,0.2h-4.8C261.3,87.5,259.5,86.9,258.2,85.5z"/>
	<path class="st0" d="M290.7,95.8c-1.9-1.1-2.9-2.8-2.9-5c0-1.1,0.3-2.2,0.8-3.2c0.5-1,1.2-1.9,2.1-2.5c-0.8-0.5-1.4-1.1-1.8-1.7
		c-0.4-0.6-0.6-1.2-0.6-2c0-1,0.3-1.9,0.8-2.8c0.6-0.9,1.3-1.6,2.3-2.3c-1.1-0.8-1.9-1.9-2.5-3.1c-0.6-1.2-0.9-2.6-0.9-4.1
		c0-1.8,0.4-3.4,1.3-4.8s2.1-2.5,3.6-3.3c1.5-0.8,3.2-1.2,5-1.2c1.2,0,2.5,0.2,3.7,0.6h9.5c0.2,0,0.4,0.1,0.5,0.2
		c0.1,0.1,0.2,0.3,0.2,0.5v2.2c0,0.2-0.1,0.4-0.2,0.5c-0.1,0.1-0.3,0.2-0.5,0.2h-4.8c1,1.4,1.5,3.1,1.5,5.1c0,1.8-0.4,3.4-1.3,4.8
		c-0.9,1.4-2.1,2.5-3.6,3.3c-1.5,0.8-3.2,1.2-5,1.2c-1.2,0-2.5-0.2-3.8-0.6c-0.7,0.3-1.2,0.7-1.6,1.2s-0.6,1.1-0.6,1.6
		c0,0.7,0.3,1.3,1,1.6c0.5,0.3,1.3,0.5,2.3,0.6s2.5,0.3,4.7,0.5l1.9,0.1c1.5,0.1,2.9,0.3,4,0.6c1.1,0.3,2,0.8,2.8,1.7
		c0.8,0.8,1.2,2,1.2,3.6c0,2.6-1.1,4.6-3.2,6c-2.1,1.4-4.9,2.1-8.3,2.1C295,97.4,292.6,96.9,290.7,95.8z M304,93.1
		c1.4-0.7,2.1-1.8,2.1-3.3c0-0.8-0.2-1.3-0.6-1.7c-0.4-0.4-0.9-0.6-1.6-0.8c-0.7-0.1-1.7-0.3-3-0.4c-0.3,0-1-0.1-2-0.2
		s-2.2-0.2-3.5-0.4c-0.8-0.1-1.4-0.2-1.9-0.3c-0.6,0.5-1.1,1.1-1.5,1.8c-0.4,0.7-0.6,1.4-0.6,2.2c0,1.5,0.7,2.5,2,3.2
		c1.4,0.7,3.1,1,5.2,1C300.8,94.1,302.6,93.8,304,93.1z M302.4,73.3c1.1-1.1,1.7-2.5,1.7-4.3c0-1.8-0.6-3.2-1.7-4.3
		c-1.1-1.1-2.6-1.7-4.5-1.7c-1.9,0-3.4,0.6-4.5,1.7s-1.7,2.5-1.7,4.3c0,1.8,0.6,3.2,1.7,4.3c1.1,1.1,2.6,1.7,4.5,1.7
		C299.8,75,301.3,74.4,302.4,73.3z"/>
	<path class="st0" d="M317,86.1c-1.6-1.4-2.4-3.2-2.4-5.5c0-2.1,0.7-3.9,2.1-5.2c1.4-1.4,3.4-2.2,6-2.6l6.2-0.9
		c0.9-0.1,1.6-0.4,2-0.9c0.4-0.5,0.6-1.2,0.6-2.1v-0.4c0-1.5-0.6-2.8-1.8-3.7c-1.2-0.9-2.7-1.4-4.5-1.4c-1.4,0-2.6,0.3-3.7,0.8
		c-1,0.6-1.9,1.3-2.5,2.3c-0.3,0.4-0.6,0.6-1,0.6c-0.2,0-0.4-0.1-0.6-0.2l-1.3-0.9c-0.3-0.3-0.4-0.5-0.4-0.8c0-0.1,0-0.3,0.1-0.5
		c0.9-1.5,2.2-2.7,3.8-3.6c1.6-0.9,3.5-1.3,5.6-1.3c1.9,0,3.6,0.4,5.1,1.1c1.5,0.7,2.7,1.7,3.5,3c0.8,1.3,1.2,2.8,1.2,4.6v18.4
		c0,0.2-0.1,0.4-0.2,0.5c-0.1,0.1-0.3,0.2-0.5,0.2h-2c-0.2,0-0.4-0.1-0.5-0.2c-0.1-0.1-0.2-0.3-0.2-0.5v-3.3c-1,1.4-2.3,2.6-3.8,3.4
		c-1.6,0.8-3.2,1.2-5.1,1.2C320.6,88.2,318.6,87.5,317,86.1z M327.8,83.6c1.3-0.8,2.3-1.9,3-3.1c0.7-1.3,1.1-2.5,1.1-3.7v-2
		c-0.8,0.1-3.2,0.4-7.4,1l-1.3,0.2c-3.2,0.5-4.8,2-4.8,4.5c0,1.3,0.5,2.4,1.4,3.2c1,0.8,2.2,1.2,3.7,1.2
		C325,84.8,326.5,84.4,327.8,83.6z"/>
	<path class="st0" d="M345.5,87c-0.3-0.3-0.5-0.7-0.5-1.2V54.7h-4.5c-0.2,0-0.4-0.1-0.5-0.2c-0.1-0.1-0.2-0.3-0.2-0.5v-2.2
		c0-0.2,0.1-0.4,0.2-0.5s0.3-0.2,0.5-0.2h6.5c0.5,0,0.9,0.2,1.2,0.5c0.3,0.3,0.5,0.7,0.5,1.2V84h5.1c0.2,0,0.4,0.1,0.5,0.2
		c0.1,0.1,0.2,0.3,0.2,0.5v2.2c0,0.2-0.1,0.4-0.2,0.5c-0.1,0.1-0.3,0.2-0.5,0.2h-7.1C346.3,87.5,345.9,87.4,345.5,87z"/>
	<path class="st0" d="M362.1,87c-0.3-0.3-0.5-0.7-0.5-1.2V54.7h-4.5c-0.2,0-0.4-0.1-0.5-0.2c-0.1-0.1-0.2-0.3-0.2-0.5v-2.2
		c0-0.2,0.1-0.4,0.2-0.5c0.1-0.1,0.3-0.2,0.5-0.2h6.5c0.5,0,0.9,0.2,1.2,0.5c0.3,0.3,0.5,0.7,0.5,1.2V84h5.1c0.2,0,0.4,0.1,0.5,0.2
		c0.1,0.1,0.2,0.3,0.2,0.5v2.2c0,0.2-0.1,0.4-0.2,0.5c-0.1,0.1-0.3,0.2-0.5,0.2h-7.1C362.8,87.5,362.4,87.4,362.1,87z"/>
	<path class="st0" d="M380.8,86.2c-1.6-0.9-2.9-2.2-3.8-3.8c-0.9-1.6-1.4-3.4-1.4-5.3v-6.9c0-1.9,0.5-3.6,1.4-5.3
		c0.9-1.6,2.2-2.9,3.8-3.8c1.6-0.9,3.3-1.4,5.2-1.4c1.9,0,3.6,0.5,5.2,1.4c1.6,0.9,2.9,2.2,3.8,3.8c0.9,1.6,1.4,3.4,1.4,5.3v3.3
		c0,0.5-0.2,0.9-0.5,1.2s-0.7,0.5-1.2,0.5h-15.4v2.1c0,1.2,0.3,2.3,0.9,3.4c0.6,1,1.4,1.8,2.4,2.4c1,0.6,2.1,0.9,3.4,0.9h7
		c0.2,0,0.4,0.1,0.5,0.2c0.1,0.1,0.2,0.3,0.2,0.5v2.2c0,0.2-0.1,0.4-0.2,0.5c-0.1,0.1-0.3,0.2-0.5,0.2h-7
		C384.2,87.5,382.4,87.1,380.8,86.2z M392.7,71.8V70c0-1.2-0.3-2.3-0.9-3.4c-0.6-1-1.4-1.8-2.4-2.4c-1-0.6-2.1-0.9-3.4-0.9
		c-1.2,0-2.3,0.3-3.4,0.9c-1,0.6-1.8,1.4-2.4,2.4c-0.6,1-0.9,2.1-0.9,3.4v1.8H392.7z"/>
	<path class="st0" d="M401.6,87.4c-0.1-0.1-0.2-0.3-0.2-0.5v-2.2c0-0.2,0.1-0.4,0.2-0.5c0.1-0.1,0.3-0.2,0.5-0.2h4V63.8h-4
		c-0.2,0-0.4-0.1-0.5-0.2c-0.1-0.1-0.2-0.3-0.2-0.5v-2.1c0-0.2,0.1-0.4,0.2-0.5s0.3-0.2,0.5-0.2h6c0.5,0,0.9,0.2,1.2,0.5
		s0.5,0.7,0.5,1.2v2.4l2.8-2.2c1.2-0.9,2.1-1.5,2.8-1.8c0.7-0.3,1.5-0.5,2.3-0.5h1.4c0.2,0,0.4,0.1,0.5,0.2c0.1,0.1,0.2,0.3,0.2,0.5
		v2.4c0,0.2-0.1,0.4-0.2,0.5c-0.1,0.1-0.3,0.2-0.5,0.2h-1.1c-0.8,0-1.6,0.2-2.3,0.5s-1.8,1.1-3.2,2.2l-2.8,2.3V84h5.6
		c0.2,0,0.4,0.1,0.5,0.2c0.1,0.1,0.2,0.3,0.2,0.5v2.2c0,0.2-0.1,0.4-0.2,0.5c-0.1,0.1-0.3,0.2-0.5,0.2h-13.3
		C401.9,87.5,401.8,87.5,401.6,87.4z"/>
	<path class="st0" d="M430.8,96.5c-0.2-0.2-0.2-0.4-0.1-0.7l2.8-8l-9.6-26.4c0-0.1,0-0.2,0-0.3c0-0.2,0.1-0.4,0.2-0.5
		c0.1-0.1,0.3-0.2,0.6-0.2h2.2c0.2,0,0.4,0.1,0.6,0.2c0.2,0.1,0.3,0.3,0.4,0.5l7.5,21.5l7.5-21.5c0.1-0.2,0.2-0.3,0.4-0.5
		c0.2-0.1,0.4-0.2,0.6-0.2h2.1c0.3,0,0.5,0.1,0.6,0.3c0.1,0.2,0.2,0.5,0.1,0.7l-12.3,34.8c-0.1,0.2-0.2,0.3-0.4,0.5
		c-0.2,0.1-0.4,0.2-0.6,0.2h-1.9C431.2,96.8,431,96.7,430.8,96.5z"/>
</g>
</svg>
