<?xml version="1.0" encoding="utf-8"?>
<!-- Generator: Adobe Illustrator 25.0.1, SVG Export Plug-In . SVG Version: 6.00 Build 0)  -->
<svg version="1.1" id="Layer_1" xmlns="http://www.w3.org/2000/svg" xmlns:xlink="http://www.w3.org/1999/xlink" x="0px" y="0px"
	 viewBox="0 0 256 256" style="enable-background:new 0 0 256 256;" xml:space="preserve">
<style type="text/css">
	.st0{fill:#FFFFFF;}
</style>
<path class="st0" d="M96.7,120.1c-9.6,0-17.1,8.4-17.1,18.6s7.7,18.6,17.1,18.6c9.5,0,17.1-8.4,17.1-18.6
	C113.9,128.5,106.2,120.1,96.7,120.1z"/>
<ellipse class="st0" cx="157.8" cy="138.7" rx="17.1" ry="18.6"/>
<path class="st0" d="M209.1,0.5H46.9C21,0.5,0,21.5,0,47.4v162.3c0,25.9,21,46.9,46.9,46.9h162.3c25.9,0,46.9-21,46.9-46.9V47.4
	C256,21.5,235,0.5,209.1,0.5z M174.4,198.3c0,0-6-7.2-11-13.6c21.9-6.2,30.3-19.9,30.3-19.9c-6.8,4.5-13.3,7.7-19.2,9.9
	c-8.4,3.5-16.4,5.9-24.3,7.2c-16,3-30.7,2.1-43.3-0.2c-9.5-1.8-17.7-4.5-24.6-7.2c-3.8-1.5-8-3.4-12.2-5.7c-0.5-0.3-1-0.5-1.5-0.8
	c-0.4-0.2-0.5-0.3-0.7-0.5c-3-1.6-4.7-2.8-4.7-2.8s8,13.3,29.3,19.7c-5,6.4-11.2,13.9-11.2,13.9c-36.9-1.1-51-25.4-51-25.4
	c0-53.9,24.1-97.6,24.1-97.6c24.1-18.1,47-17.6,47-17.6l1.7,2c-30.1,8.7-44,21.9-44,21.9s3.7-2.1,9.9-4.9c17.9-7.8,32.1-10,38-10.5
	c1-0.1,1.8-0.3,2.8-0.3c10.2-1.3,21.8-1.6,33.8-0.3c15.9,1.9,33,6.6,50.4,16.1c0,0-13.3-12.6-41.7-21.3l2.3-2.7
	c0,0,22.9-0.5,47,17.6c0,0,24.1,43.7,24,97.6C225.6,172.9,211.4,197.1,174.4,198.3z"/>
</svg>
