<?xml version="1.0" encoding="utf-8"?>
<!-- Generator: Adobe Illustrator 25.0.1, SVG Export Plug-In . SVG Version: 6.00 Build 0)  -->
<svg version="1.1" id="Layer_1" xmlns="http://www.w3.org/2000/svg" xmlns:xlink="http://www.w3.org/1999/xlink" x="0px" y="0px"
	 viewBox="0 0 400 400" style="enable-background:new 0 0 400 400;" xml:space="preserve">
<style type="text/css">
	.st0{fill:none;stroke:#A0A0A0;stroke-width:4;stroke-miterlimit:10;}
	.st1{fill:#FFAB00;}
	.st2{fill:#FFFFFF;}
</style>
<g>
	<polyline class="st0" points="355.6,177.8 355.6,133.3 44.4,133.3 44.4,311.1 133.3,311.1 	"/>
	<polyline class="st0" points="355.6,222.2 355.6,311.1 177.8,311.1 177.8,355.6 44.4,355.6 	"/>
	<line class="st0" x1="44.4" y1="311.1" x2="0" y2="311.1"/>
	<polyline class="st0" points="177.8,355.6 222.2,355.6 222.2,400 400,400 400,0 88.9,0 88.9,88.9 	"/>
	<polyline class="st0" points="266.7,355.6 355.6,355.6 355.6,400 	"/>
	<line class="st0" x1="400" y1="88.9" x2="311.1" y2="88.9"/>
	<polyline class="st0" points="266.7,133.3 266.7,44.4 355.6,44.4 	"/>
	<line class="st0" x1="222.2" y1="0" x2="222.2" y2="88.9"/>
	<polyline class="st0" points="177.8,133.3 177.8,44.4 133.3,44.4 133.3,88.9 	"/>
	<polyline class="st0" points="44.4,88.9 44.4,0 0,0 0,400 177.8,400 	"/>
</g>
<g>
	<path class="st1" d="M126.1,220.1c0.3,0.3,0.5,0.8,0.5,1.3v6c0,0.5-0.2,0.9-0.5,1.3c-0.3,0.3-0.8,0.5-1.3,0.5h-4.5
		c-2.2,0-4.2-0.4-6.2-1.1c-1.9-0.7-3.6-1.6-5-2.5s-3.3-2.4-5.8-4.3l-6.5-5c-1.2-1-2.3-1.7-3.3-2c-1-0.4-2.4-0.6-4.2-0.6
		c-4.1,0-8-1-11.5-3.1c-3.5-2-6.3-4.8-8.3-8.3c-2-3.5-3.1-7.3-3.1-11.4v-18.5c0-4.1,1-8,3.1-11.4c2-3.5,4.8-6.2,8.3-8.3
		c3.5-2,7.3-3.1,11.5-3.1s8,1,11.5,3.1c3.5,2,6.3,4.8,8.3,8.3c2,3.5,3.1,7.3,3.1,11.4V191c0,3.6-0.8,6.9-2.3,10
		c-1.6,3.1-3.7,5.7-6.4,7.9l4.5,3.7c-0.1-0.1,0.5,0.4,1.6,1.4c2.5,2,4.4,3.5,5.9,4.3c1.4,0.9,3,1.3,4.8,1.3h4.4
		C125.4,219.5,125.8,219.7,126.1,220.1z M78.8,197.3c1.1,2,2.6,3.5,4.5,4.7c1.9,1.2,3.9,1.7,6.1,1.7c2.2,0,4.2-0.6,6.1-1.7
		c1.9-1.2,3.4-2.7,4.5-4.7c1.1-2,1.7-4.1,1.7-6.3v-18.5c0-2.2-0.6-4.3-1.7-6.3c-1.1-2-2.6-3.5-4.5-4.7c-1.9-1.2-3.9-1.7-6.1-1.7
		c-2.2,0-4.2,0.6-6.1,1.7c-1.9,1.2-3.4,2.7-4.5,4.7c-1.1,2-1.7,4.1-1.7,6.3V191C77.1,193.2,77.7,195.3,78.8,197.3z"/>
	<path class="st1" d="M123.2,212c-0.3-0.3-0.5-0.8-0.5-1.3v-6.1c0-0.5,0.2-0.9,0.5-1.3c0.3-0.3,0.8-0.5,1.3-0.5h9.8v-38.4H127
		c-0.7,0-1.3-0.2-1.8-0.7c-0.5-0.5-0.7-1.1-0.7-1.8v-4.1l14-7.2h3.4c0.7,0,1.3,0.2,1.8,0.7c0.5,0.5,0.7,1.1,0.7,1.8v49.8h9.8
		c0.5,0,0.9,0.2,1.3,0.5c0.3,0.3,0.5,0.8,0.5,1.3v6.1c0,0.5-0.2,0.9-0.5,1.3c-0.3,0.3-0.8,0.5-1.3,0.5h-29.6
		C124,212.6,123.5,212.4,123.2,212z"/>
	<path class="st2" d="M63.5,254.8c-0.3-0.3-0.5-0.7-0.5-1.1c0-0.4,0.2-0.8,0.5-1.1s0.7-0.5,1.1-0.5c0.4,0,0.8,0.2,1.1,0.5
		s0.4,0.7,0.4,1.1c0,0.4-0.1,0.8-0.4,1.1s-0.7,0.5-1.1,0.5C64.2,255.3,63.8,255.1,63.5,254.8z"/>
	<path class="st2" d="M76.7,260.5c-0.1-0.1-0.1-0.1-0.1-0.2v-15.8c0-0.2,0.1-0.5,0.3-0.6c0.2-0.2,0.4-0.3,0.6-0.3h4.1
		c1,0,1.9,0.2,2.7,0.7c0.8,0.5,1.5,1.1,1.9,1.9c0.5,0.8,0.7,1.7,0.7,2.6s-0.2,1.8-0.7,2.6c-0.5,0.8-1.1,1.4-1.9,1.9
		c-0.8,0.5-1.7,0.7-2.7,0.7h-3v6.1c0,0.1,0,0.2-0.1,0.2c-0.1,0.1-0.1,0.1-0.2,0.1H77C76.9,260.6,76.8,260.5,76.7,260.5z M81.5,252.2
		c0.6,0,1.2-0.2,1.7-0.5c0.5-0.3,0.9-0.7,1.2-1.2c0.3-0.5,0.5-1.1,0.5-1.7s-0.2-1.2-0.5-1.7c-0.3-0.5-0.7-0.9-1.2-1.2
		c-0.5-0.3-1.1-0.5-1.7-0.5h-2.9v6.8H81.5z"/>
	<path class="st2" d="M89.6,260.5c-0.1-0.1-0.1-0.1-0.1-0.2v-1.1c0-0.1,0-0.2,0.1-0.2s0.1-0.1,0.2-0.1h2v-10.3h-2
		c-0.1,0-0.2,0-0.2-0.1s-0.1-0.1-0.1-0.2V247c0-0.1,0-0.2,0.1-0.2s0.1-0.1,0.2-0.1h3.1c0.2,0,0.5,0.1,0.6,0.3
		c0.2,0.2,0.3,0.4,0.3,0.6v1.2l1.4-1.1c0.6-0.5,1.1-0.8,1.4-0.9s0.8-0.2,1.2-0.2h0.7c0.1,0,0.2,0,0.3,0.1c0.1,0.1,0.1,0.1,0.1,0.2
		v1.2c0,0.1,0,0.2-0.1,0.2s-0.1,0.1-0.2,0.1H98c-0.4,0-0.8,0.1-1.2,0.3c-0.4,0.2-0.9,0.5-1.6,1.1l-1.4,1.2v7.8h2.8
		c0.1,0,0.2,0,0.2,0.1s0.1,0.1,0.1,0.2v1.1c0,0.1,0,0.2-0.1,0.2s-0.1,0.1-0.2,0.1h-6.8C89.8,260.6,89.7,260.5,89.6,260.5z"/>
	<path class="st2" d="M103.5,260.2c-0.8-0.5-1.5-1.1-1.9-1.9c-0.5-0.8-0.7-1.7-0.7-2.7v-3.8c0-1,0.2-1.9,0.7-2.7
		c0.5-0.8,1.1-1.5,1.9-1.9c0.8-0.5,1.7-0.7,2.7-0.7c1,0,1.9,0.2,2.7,0.7c0.8,0.5,1.5,1.1,1.9,1.9c0.5,0.8,0.7,1.7,0.7,2.7v3.8
		c0,1-0.2,1.9-0.7,2.7c-0.5,0.8-1.1,1.5-1.9,1.9c-0.8,0.5-1.7,0.7-2.7,0.7C105.2,260.9,104.3,260.6,103.5,260.2z M107.9,258.6
		c0.5-0.3,0.9-0.7,1.2-1.2c0.3-0.5,0.5-1.1,0.5-1.7v-4.1c0-0.6-0.2-1.2-0.5-1.7c-0.3-0.5-0.7-0.9-1.2-1.2s-1.1-0.5-1.7-0.5
		s-1.2,0.2-1.7,0.5s-0.9,0.7-1.2,1.2c-0.3,0.5-0.5,1.1-0.5,1.7v4.1c0,0.6,0.2,1.2,0.5,1.7c0.3,0.5,0.7,0.9,1.2,1.2
		c0.5,0.3,1.1,0.5,1.7,0.5S107.4,258.9,107.9,258.6z"/>
	<path class="st2" d="M117.4,260.2c-0.8-0.5-1.4-1.1-1.9-1.9c-0.5-0.8-0.7-1.6-0.7-2.6v-4.3c0-0.9,0.2-1.8,0.7-2.6
		c0.5-0.8,1.1-1.4,1.9-1.9c0.8-0.5,1.7-0.7,2.6-0.7c0.7,0,1.3,0.1,1.9,0.4c0.6,0.2,1.2,0.6,1.7,1v-5.5c0-0.1,0-0.2,0.1-0.2
		c0.1-0.1,0.1-0.1,0.2-0.1h1.2c0.1,0,0.2,0,0.2,0.1c0.1,0.1,0.1,0.1,0.1,0.2v17.9c0,0.1,0,0.2-0.1,0.2s-0.1,0.1-0.2,0.1H124
		c-0.1,0-0.2,0-0.2-0.1s-0.1-0.1-0.1-0.2v-1.1c-0.5,0.6-1,1-1.7,1.3s-1.3,0.5-2.1,0.5C119,260.9,118.1,260.6,117.4,260.2z
		 M121.8,258.6c0.5-0.3,0.9-0.7,1.2-1.2s0.5-1.1,0.5-1.7v-4.1c0-0.6-0.2-1.2-0.5-1.7c-0.3-0.5-0.7-0.9-1.2-1.2
		c-0.5-0.3-1.1-0.5-1.7-0.5s-1.2,0.2-1.7,0.5s-0.9,0.7-1.2,1.2c-0.3,0.5-0.5,1.1-0.5,1.7v4.1c0,0.6,0.2,1.2,0.5,1.7
		c0.3,0.5,0.7,0.9,1.2,1.2c0.5,0.3,1.1,0.5,1.7,0.5S121.3,258.9,121.8,258.6z"/>
	<path class="st2" d="M131,259.6c-0.9-0.8-1.3-2-1.3-3.4V247c0-0.1,0-0.2,0.1-0.2s0.1-0.1,0.2-0.1h1.2c0.1,0,0.2,0,0.2,0.1
		s0.1,0.1,0.1,0.2v8.8c0,1,0.3,1.8,0.8,2.4s1.3,0.8,2.2,0.8c1.1,0,2-0.4,2.6-1.1c0.7-0.7,1-1.7,1-3v-8c0-0.1,0-0.2,0.1-0.2
		s0.1-0.1,0.2-0.1h1.2c0.1,0,0.2,0,0.2,0.1c0.1,0.1,0.1,0.1,0.1,0.2v13.2c0,0.1,0,0.2-0.1,0.2c-0.1,0.1-0.1,0.1-0.2,0.1h-1.2
		c-0.1,0-0.2,0-0.2-0.1s-0.1-0.1-0.1-0.2v-1.4c-0.4,0.7-1,1.2-1.7,1.5c-0.7,0.3-1.4,0.5-2.3,0.5C133,260.9,131.9,260.4,131,259.6z"
		/>
	<path class="st2" d="M146.7,260.2c-0.8-0.5-1.5-1.1-1.9-1.9c-0.5-0.8-0.7-1.7-0.7-2.7v-3.8c0-1,0.2-1.9,0.7-2.7
		c0.5-0.8,1.1-1.5,1.9-1.9c0.8-0.5,1.7-0.7,2.7-0.7c0.7,0,1.4,0.1,2,0.4c0.6,0.3,1.2,0.6,1.7,1.1c0.1,0.1,0.1,0.2,0.1,0.3
		c0,0.1,0,0.2-0.1,0.4c-0.2,0.2-0.4,0.4-0.6,0.6c-0.1,0.1-0.2,0.1-0.4,0.1c-0.1,0-0.3-0.1-0.4-0.2c-0.7-0.6-1.4-0.9-2.3-0.9
		c-0.6,0-1.2,0.2-1.7,0.5s-0.9,0.7-1.2,1.2c-0.3,0.5-0.5,1.1-0.5,1.7v4.1c0,0.6,0.2,1.2,0.5,1.7c0.3,0.5,0.7,0.9,1.2,1.2
		c0.5,0.3,1.1,0.5,1.7,0.5c0.9,0,1.7-0.3,2.3-0.9c0.1-0.1,0.2-0.2,0.4-0.2c0.1,0,0.3,0,0.4,0.1c0.2,0.2,0.4,0.4,0.6,0.6
		c0.1,0.1,0.1,0.2,0.1,0.4c0,0.1,0,0.2-0.1,0.3c-0.5,0.5-1,0.8-1.7,1.1s-1.3,0.4-2,0.4C148.4,260.9,147.5,260.6,146.7,260.2z"/>
	<path class="st2" d="M158.4,259.5c-0.7-0.7-1-1.6-1-2.7v-8.3h-1.6c-0.1,0-0.2,0-0.2-0.1c-0.1-0.1-0.1-0.1-0.1-0.2V247
		c0-0.1,0-0.2,0.1-0.2c0.1-0.1,0.1-0.1,0.2-0.1h1.6v-2.6c0-0.1,0-0.2,0.1-0.2c0.1-0.1,0.1-0.1,0.2-0.1h1.2c0.1,0,0.2,0,0.2,0.1
		c0.1,0.1,0.1,0.1,0.1,0.2v2.6h4.3c0.1,0,0.2,0,0.2,0.1s0.1,0.1,0.1,0.2v1.1c0,0.1,0,0.2-0.1,0.2s-0.1,0.1-0.2,0.1h-4.3v8.1
		c0,0.6,0.2,1.1,0.6,1.5c0.4,0.4,0.9,0.6,1.5,0.6l2.2,0c0.1,0,0.2,0,0.2,0.1s0.1,0.1,0.1,0.2v1.1c0,0.1,0,0.2-0.1,0.2
		s-0.1,0.1-0.2,0.1h-2.4C160,260.6,159.1,260.2,158.4,259.5z"/>
	<path class="st2" d="M174.4,260.3c-0.2-0.2-0.3-0.4-0.3-0.6v-15.2c0-0.2,0.1-0.5,0.3-0.6c0.2-0.2,0.4-0.3,0.6-0.3h4.4
		c1.2,0,2.2,0.3,3.2,0.9c1,0.6,1.8,1.4,2.3,2.3s0.9,2.1,0.9,3.2v4.1c0,1.2-0.3,2.3-0.9,3.2s-1.3,1.8-2.3,2.3c-1,0.6-2,0.9-3.2,0.9
		H175C174.8,260.6,174.6,260.5,174.4,260.3z M179.4,258.7c0.8,0,1.5-0.2,2.2-0.6s1.2-0.9,1.6-1.6c0.4-0.7,0.6-1.4,0.6-2.2v-4.5
		c0-0.8-0.2-1.5-0.6-2.2s-0.9-1.2-1.6-1.6s-1.4-0.6-2.2-0.6h-3.2v13.2H179.4z"/>
	<path class="st2" d="M191.6,259.8c-0.8-0.5-1.5-1.1-1.9-1.9c-0.5-0.8-0.7-1.7-0.7-2.7v-3.5c0-1,0.2-1.9,0.7-2.7
		c0.5-0.8,1.1-1.5,1.9-1.9c0.8-0.5,1.7-0.7,2.7-0.7c1,0,1.9,0.2,2.7,0.7c0.8,0.5,1.5,1.1,1.9,1.9c0.5,0.8,0.7,1.7,0.7,2.7v1.7
		c0,0.2-0.1,0.5-0.3,0.6c-0.2,0.2-0.4,0.3-0.6,0.3h-7.8v1.1c0,0.6,0.2,1.2,0.5,1.7c0.3,0.5,0.7,0.9,1.2,1.2s1.1,0.5,1.7,0.5h3.5
		c0.1,0,0.2,0,0.2,0.1c0.1,0.1,0.1,0.1,0.1,0.2v1.1c0,0.1,0,0.2-0.1,0.2c-0.1,0.1-0.1,0.1-0.2,0.1h-3.5
		C193.3,260.6,192.4,260.3,191.6,259.8z M197.7,252.5v-0.9c0-0.6-0.2-1.2-0.5-1.7c-0.3-0.5-0.7-0.9-1.2-1.2s-1.1-0.5-1.7-0.5
		s-1.2,0.2-1.7,0.5s-0.9,0.7-1.2,1.2c-0.3,0.5-0.5,1.1-0.5,1.7v0.9H197.7z"/>
	<path class="st2" d="M206.6,260.5c-0.1-0.1-0.2-0.1-0.2-0.2l-4.6-13c0,0,0-0.1,0-0.2c0-0.1,0-0.2,0.1-0.3c0.1-0.1,0.2-0.1,0.3-0.1
		h1.1c0.1,0,0.2,0,0.3,0.1c0.1,0.1,0.2,0.1,0.2,0.2l3.9,11.2l3.8-11.2c0-0.1,0.1-0.2,0.2-0.2c0.1-0.1,0.2-0.1,0.3-0.1h1.1
		c0.1,0,0.3,0.1,0.3,0.2c0.1,0.1,0.1,0.2,0,0.4l-4.6,13c0,0.1-0.1,0.2-0.2,0.2c-0.1,0.1-0.2,0.1-0.3,0.1h-1.4
		C206.8,260.6,206.7,260.5,206.6,260.5z"/>
	<path class="st2" d="M218.1,259.8c-0.8-0.5-1.5-1.1-1.9-1.9c-0.5-0.8-0.7-1.7-0.7-2.7v-3.5c0-1,0.2-1.9,0.7-2.7
		c0.5-0.8,1.1-1.5,1.9-1.9c0.8-0.5,1.7-0.7,2.7-0.7c1,0,1.9,0.2,2.7,0.7c0.8,0.5,1.5,1.1,1.9,1.9c0.5,0.8,0.7,1.7,0.7,2.7v1.7
		c0,0.2-0.1,0.5-0.3,0.6c-0.2,0.2-0.4,0.3-0.6,0.3h-7.8v1.1c0,0.6,0.2,1.2,0.5,1.7c0.3,0.5,0.7,0.9,1.2,1.2s1.1,0.5,1.7,0.5h3.5
		c0.1,0,0.2,0,0.2,0.1c0.1,0.1,0.1,0.1,0.1,0.2v1.1c0,0.1,0,0.2-0.1,0.2c-0.1,0.1-0.1,0.1-0.2,0.1h-3.5
		C219.8,260.6,219,260.3,218.1,259.8z M224.2,252.5v-0.9c0-0.6-0.2-1.2-0.5-1.7c-0.3-0.5-0.7-0.9-1.2-1.2s-1.1-0.5-1.7-0.5
		s-1.2,0.2-1.7,0.5s-0.9,0.7-1.2,1.2c-0.3,0.5-0.5,1.1-0.5,1.7v0.9H224.2z"/>
	<path class="st2" d="M230.7,260.3c-0.2-0.2-0.3-0.4-0.3-0.6v-15.9h-2.3c-0.1,0-0.2,0-0.2-0.1s-0.1-0.1-0.1-0.2v-1.1
		c0-0.1,0-0.2,0.1-0.2c0.1-0.1,0.1-0.1,0.2-0.1h3.3c0.2,0,0.5,0.1,0.6,0.3c0.2,0.2,0.3,0.4,0.3,0.6v15.9h2.6c0.1,0,0.2,0,0.2,0.1
		c0.1,0.1,0.1,0.1,0.1,0.2v1.1c0,0.1,0,0.2-0.1,0.2c-0.1,0.1-0.1,0.1-0.2,0.1h-3.6C231,260.6,230.8,260.5,230.7,260.3z"/>
	<path class="st2" d="M240.2,260.2c-0.8-0.5-1.5-1.1-1.9-1.9c-0.5-0.8-0.7-1.7-0.7-2.7v-3.8c0-1,0.2-1.9,0.7-2.7
		c0.5-0.8,1.1-1.5,1.9-1.9c0.8-0.5,1.7-0.7,2.7-0.7c1,0,1.9,0.2,2.7,0.7c0.8,0.5,1.5,1.1,1.9,1.9c0.5,0.8,0.7,1.7,0.7,2.7v3.8
		c0,1-0.2,1.9-0.7,2.7c-0.5,0.8-1.1,1.5-1.9,1.9c-0.8,0.5-1.7,0.7-2.7,0.7C241.9,260.9,241,260.6,240.2,260.2z M244.6,258.6
		c0.5-0.3,0.9-0.7,1.2-1.2c0.3-0.5,0.5-1.1,0.5-1.7v-4.1c0-0.6-0.2-1.2-0.5-1.7c-0.3-0.5-0.7-0.9-1.2-1.2s-1.1-0.5-1.7-0.5
		s-1.2,0.2-1.7,0.5s-0.9,0.7-1.2,1.2c-0.3,0.5-0.5,1.1-0.5,1.7v4.1c0,0.6,0.2,1.2,0.5,1.7c0.3,0.5,0.7,0.9,1.2,1.2
		c0.5,0.3,1.1,0.5,1.7,0.5S244.1,258.9,244.6,258.6z"/>
	<path class="st2" d="M252.1,265.2c-0.1-0.1-0.1-0.1-0.1-0.2V247c0-0.1,0-0.2,0.1-0.2c0.1-0.1,0.1-0.1,0.2-0.1h1.1
		c0.1,0,0.2,0,0.2,0.1s0.1,0.1,0.1,0.2v1.1c0.5-0.6,1-1,1.7-1.3c0.6-0.3,1.3-0.5,2.1-0.5c0.9,0,1.8,0.2,2.6,0.7
		c0.8,0.5,1.4,1.1,1.9,1.9s0.7,1.6,0.7,2.6v4.3c0,0.9-0.2,1.8-0.7,2.6s-1.1,1.4-1.9,1.9c-0.8,0.5-1.7,0.7-2.6,0.7
		c-0.7,0-1.3-0.1-1.9-0.4s-1.2-0.6-1.7-1v5.5c0,0.1,0,0.2-0.1,0.2c-0.1,0.1-0.1,0.1-0.2,0.1h-1.2
		C252.2,265.3,252.2,265.2,252.1,265.2z M259,258.6c0.5-0.3,0.9-0.7,1.2-1.2s0.5-1.1,0.5-1.7v-4.1c0-0.6-0.2-1.2-0.5-1.7
		c-0.3-0.5-0.7-0.9-1.2-1.2c-0.5-0.3-1.1-0.5-1.7-0.5s-1.2,0.2-1.7,0.5s-0.9,0.7-1.2,1.2c-0.3,0.5-0.5,1.1-0.5,1.7v4.1
		c0,0.6,0.2,1.2,0.5,1.7s0.7,0.9,1.2,1.2c0.5,0.3,1.1,0.5,1.7,0.5S258.5,258.9,259,258.6z"/>
	<path class="st2" d="M266.5,260.5c-0.1-0.1-0.1-0.1-0.1-0.2V247c0-0.1,0-0.2,0.1-0.2c0.1-0.1,0.1-0.1,0.2-0.1h1.2
		c0.1,0,0.2,0,0.2,0.1s0.1,0.1,0.1,0.2v1.3c0.4-0.7,0.9-1.1,1.6-1.5c0.6-0.3,1.4-0.5,2.1-0.5c1,0,1.9,0.2,2.7,0.7
		c0.8,0.5,1.3,1.1,1.6,2c0.3-0.9,0.9-1.5,1.6-2c0.7-0.5,1.5-0.7,2.4-0.7c1.4,0,2.5,0.4,3.4,1.3s1.3,2,1.3,3.4v9.2
		c0,0.1,0,0.2-0.1,0.2s-0.1,0.1-0.2,0.1h-1.2c-0.1,0-0.2,0-0.2-0.1c-0.1-0.1-0.1-0.1-0.1-0.2v-8.8c0-1-0.3-1.8-0.8-2.4
		s-1.3-0.8-2.2-0.8c-1,0-1.8,0.4-2.5,1.1s-0.9,1.7-0.9,3v8c0,0.1,0,0.2-0.1,0.2c-0.1,0.1-0.1,0.1-0.2,0.1h-1.2c-0.1,0-0.2,0-0.2-0.1
		s-0.1-0.1-0.1-0.2v-8.8c0-1-0.3-1.8-0.8-2.4c-0.5-0.5-1.3-0.8-2.2-0.8c-1,0-1.8,0.4-2.5,1.1c-0.6,0.7-0.9,1.7-0.9,3v8
		c0,0.1,0,0.2-0.1,0.2s-0.1,0.1-0.2,0.1h-1.2C266.7,260.6,266.6,260.5,266.5,260.5z"/>
	<path class="st2" d="M291.2,259.8c-0.8-0.5-1.5-1.1-1.9-1.9c-0.5-0.8-0.7-1.7-0.7-2.7v-3.5c0-1,0.2-1.9,0.7-2.7
		c0.5-0.8,1.1-1.5,1.9-1.9c0.8-0.5,1.7-0.7,2.7-0.7c1,0,1.9,0.2,2.7,0.7c0.8,0.5,1.5,1.1,1.9,1.9c0.5,0.8,0.7,1.7,0.7,2.7v1.7
		c0,0.2-0.1,0.5-0.3,0.6c-0.2,0.2-0.4,0.3-0.6,0.3h-7.8v1.1c0,0.6,0.2,1.2,0.5,1.7c0.3,0.5,0.7,0.9,1.2,1.2s1.1,0.5,1.7,0.5h3.5
		c0.1,0,0.2,0,0.2,0.1c0.1,0.1,0.1,0.1,0.1,0.2v1.1c0,0.1,0,0.2-0.1,0.2c-0.1,0.1-0.1,0.1-0.2,0.1h-3.5
		C292.9,260.6,292,260.3,291.2,259.8z M297.3,252.5v-0.9c0-0.6-0.2-1.2-0.5-1.7c-0.3-0.5-0.7-0.9-1.2-1.2s-1.1-0.5-1.7-0.5
		s-1.2,0.2-1.7,0.5s-0.9,0.7-1.2,1.2c-0.3,0.5-0.5,1.1-0.5,1.7v0.9H297.3z"/>
	<path class="st2" d="M302.9,260.4c-0.1-0.1-0.1-0.1-0.1-0.2V247c0-0.1,0-0.2,0.1-0.2c0.1-0.1,0.1-0.1,0.2-0.1h1.2
		c0.1,0,0.2,0,0.2,0.1s0.1,0.1,0.1,0.2v1.3c0.4-0.7,1-1.2,1.7-1.5s1.4-0.5,2.3-0.5c1.4,0,2.5,0.4,3.4,1.3s1.3,2,1.3,3.4v9.2
		c0,0.1,0,0.2-0.1,0.2s-0.1,0.1-0.2,0.1h-1.2c-0.1,0-0.2,0-0.2-0.1s-0.1-0.1-0.1-0.2v-8.8c0-1-0.3-1.8-0.8-2.4s-1.3-0.8-2.2-0.8
		c-1.1,0-2,0.4-2.6,1.1s-1,1.7-1,3v8c0,0.1,0,0.2-0.1,0.2s-0.1,0.1-0.2,0.1h-1.2C303.1,260.5,303,260.5,302.9,260.4z"/>
	<path class="st2" d="M319,259.5c-0.7-0.7-1-1.6-1-2.7v-8.3h-1.6c-0.1,0-0.2,0-0.2-0.1c-0.1-0.1-0.1-0.1-0.1-0.2V247
		c0-0.1,0-0.2,0.1-0.2c0.1-0.1,0.1-0.1,0.2-0.1h1.6v-2.6c0-0.1,0-0.2,0.1-0.2c0.1-0.1,0.1-0.1,0.2-0.1h1.2c0.1,0,0.2,0,0.2,0.1
		c0.1,0.1,0.1,0.1,0.1,0.2v2.6h4.3c0.1,0,0.2,0,0.2,0.1s0.1,0.1,0.1,0.2v1.1c0,0.1,0,0.2-0.1,0.2s-0.1,0.1-0.2,0.1h-4.3v8.1
		c0,0.6,0.2,1.1,0.6,1.5c0.4,0.4,0.9,0.6,1.5,0.6l2.2,0c0.1,0,0.2,0,0.2,0.1s0.1,0.1,0.1,0.2v1.1c0,0.1,0,0.2-0.1,0.2
		s-0.1,0.1-0.2,0.1h-2.4C320.6,260.6,319.6,260.2,319,259.5z"/>
	<path class="st2" d="M63.5,290.6c-0.3-0.3-0.5-0.7-0.5-1.1c0-0.4,0.2-0.8,0.5-1.1s0.7-0.5,1.1-0.5c0.4,0,0.8,0.2,1.1,0.5
		s0.4,0.7,0.4,1.1c0,0.4-0.1,0.8-0.4,1.1s-0.7,0.5-1.1,0.5C64.2,291.1,63.8,290.9,63.5,290.6z"/>
	<path class="st2" d="M75.4,296.2c-0.1-0.1-0.1-0.2,0-0.4l5.3-16.2c0-0.1,0.1-0.2,0.2-0.2c0.1-0.1,0.2-0.1,0.3-0.1h1.6
		c0.1,0,0.2,0,0.3,0.1c0.1,0.1,0.2,0.1,0.2,0.2l5.3,16.2c0,0,0,0.1,0,0.2c0,0.1,0,0.2-0.1,0.3c-0.1,0.1-0.2,0.1-0.3,0.1h-1.2
		c-0.1,0-0.2,0-0.3-0.1c-0.1-0.1-0.2-0.1-0.2-0.2l-1.4-4.3h-6.4l-1.4,4.3c0,0.1-0.1,0.2-0.2,0.2c-0.1,0.1-0.2,0.1-0.3,0.1h-1.2
		C75.5,296.4,75.4,296.3,75.4,296.2z M84.5,290l-2.6-8.1l-2.6,8.1H84.5z"/>
	<path class="st2" d="M90.9,296.3c-0.1-0.1-0.1-0.1-0.1-0.2v-1.1c0-0.1,0-0.2,0.1-0.2s0.1-0.1,0.2-0.1h2v-10.3h-2
		c-0.1,0-0.2,0-0.2-0.1s-0.1-0.1-0.1-0.2v-1.1c0-0.1,0-0.2,0.1-0.2s0.1-0.1,0.2-0.1h3.1c0.2,0,0.5,0.1,0.6,0.3
		c0.2,0.2,0.3,0.4,0.3,0.6v1.2l1.4-1.1c0.6-0.5,1.1-0.8,1.4-0.9s0.8-0.2,1.2-0.2h0.7c0.1,0,0.2,0,0.3,0.1c0.1,0.1,0.1,0.1,0.1,0.2
		v1.2c0,0.1,0,0.2-0.1,0.2s-0.1,0.1-0.2,0.1h-0.5c-0.4,0-0.8,0.1-1.2,0.3c-0.4,0.2-0.9,0.5-1.6,1.1l-1.4,1.2v7.8H98
		c0.1,0,0.2,0,0.2,0.1s0.1,0.1,0.1,0.2v1.1c0,0.1,0,0.2-0.1,0.2s-0.1,0.1-0.2,0.1h-6.8C91.1,296.4,91,296.3,90.9,296.3z"/>
	<path class="st2" d="M105.1,295.3c-0.7-0.7-1-1.6-1-2.7v-8.3h-1.6c-0.1,0-0.2,0-0.2-0.1c-0.1-0.1-0.1-0.1-0.1-0.2v-1.1
		c0-0.1,0-0.2,0.1-0.2c0.1-0.1,0.1-0.1,0.2-0.1h1.6v-2.6c0-0.1,0-0.2,0.1-0.2c0.1-0.1,0.1-0.1,0.2-0.1h1.2c0.1,0,0.2,0,0.2,0.1
		c0.1,0.1,0.1,0.1,0.1,0.2v2.6h4.3c0.1,0,0.2,0,0.2,0.1s0.1,0.1,0.1,0.2v1.1c0,0.1,0,0.2-0.1,0.2s-0.1,0.1-0.2,0.1H106v8.1
		c0,0.6,0.2,1.1,0.6,1.5c0.4,0.4,0.9,0.6,1.5,0.6l2.2,0c0.1,0,0.2,0,0.2,0.1s0.1,0.1,0.1,0.2v1.1c0,0.1,0,0.2-0.1,0.2
		s-0.1,0.1-0.2,0.1h-2.4C106.7,296.4,105.8,296,105.1,295.3z"/>
	<path class="st2" d="M121.1,296.1c-0.2-0.2-0.3-0.4-0.3-0.6v-15.2c0-0.2,0.1-0.5,0.3-0.6c0.2-0.2,0.4-0.3,0.6-0.3h4.4
		c1.2,0,2.2,0.3,3.2,0.9c1,0.6,1.8,1.4,2.3,2.3s0.9,2.1,0.9,3.2v4.1c0,1.2-0.3,2.3-0.9,3.2s-1.3,1.8-2.3,2.3c-1,0.6-2,0.9-3.2,0.9
		h-4.4C121.5,296.4,121.3,296.3,121.1,296.1z M126.1,294.5c0.8,0,1.5-0.2,2.2-0.6s1.2-0.9,1.6-1.6c0.4-0.7,0.6-1.4,0.6-2.2v-4.5
		c0-0.8-0.2-1.5-0.6-2.2s-0.9-1.2-1.6-1.6s-1.4-0.6-2.2-0.6h-3.2v13.2H126.1z"/>
	<path class="st2" d="M138.3,295.7c-0.8-0.5-1.5-1.1-1.9-1.9c-0.5-0.8-0.7-1.7-0.7-2.7v-3.5c0-1,0.2-1.9,0.7-2.7
		c0.5-0.8,1.1-1.5,1.9-1.9c0.8-0.5,1.7-0.7,2.7-0.7c1,0,1.9,0.2,2.7,0.7c0.8,0.5,1.5,1.1,1.9,1.9c0.5,0.8,0.7,1.7,0.7,2.7v1.7
		c0,0.2-0.1,0.5-0.3,0.6c-0.2,0.2-0.4,0.3-0.6,0.3h-7.8v1.1c0,0.6,0.2,1.2,0.5,1.7c0.3,0.5,0.7,0.9,1.2,1.2s1.1,0.5,1.7,0.5h3.5
		c0.1,0,0.2,0,0.2,0.1c0.1,0.1,0.1,0.1,0.1,0.2v1.1c0,0.1,0,0.2-0.1,0.2c-0.1,0.1-0.1,0.1-0.2,0.1H141
		C140,296.4,139.1,296.1,138.3,295.7z M144.4,288.3v-0.9c0-0.6-0.2-1.2-0.5-1.7c-0.3-0.5-0.7-0.9-1.2-1.2s-1.1-0.5-1.7-0.5
		s-1.2,0.2-1.7,0.5s-0.9,0.7-1.2,1.2c-0.3,0.5-0.5,1.1-0.5,1.7v0.9H144.4z"/>
	<path class="st2" d="M153.4,296.3c-0.1-0.1-0.2-0.1-0.2-0.2l-4.6-13c0,0,0-0.1,0-0.2c0-0.1,0-0.2,0.1-0.3c0.1-0.1,0.2-0.1,0.3-0.1
		h1.1c0.1,0,0.2,0,0.3,0.1c0.1,0.1,0.2,0.1,0.2,0.2l3.9,11.2l3.8-11.2c0-0.1,0.1-0.2,0.2-0.2c0.1-0.1,0.2-0.1,0.3-0.1h1.1
		c0.1,0,0.3,0.1,0.3,0.2c0.1,0.1,0.1,0.2,0,0.4l-4.6,13c0,0.1-0.1,0.2-0.2,0.2c-0.1,0.1-0.2,0.1-0.3,0.1h-1.4
		C153.5,296.4,153.5,296.3,153.4,296.3z"/>
	<path class="st2" d="M164.9,295.7c-0.8-0.5-1.5-1.1-1.9-1.9c-0.5-0.8-0.7-1.7-0.7-2.7v-3.5c0-1,0.2-1.9,0.7-2.7
		c0.5-0.8,1.1-1.5,1.9-1.9c0.8-0.5,1.7-0.7,2.7-0.7c1,0,1.9,0.2,2.7,0.7c0.8,0.5,1.5,1.1,1.9,1.9c0.5,0.8,0.7,1.7,0.7,2.7v1.7
		c0,0.2-0.1,0.5-0.3,0.6c-0.2,0.2-0.4,0.3-0.6,0.3h-7.8v1.1c0,0.6,0.2,1.2,0.5,1.7c0.3,0.5,0.7,0.9,1.2,1.2s1.1,0.5,1.7,0.5h3.5
		c0.1,0,0.2,0,0.2,0.1c0.1,0.1,0.1,0.1,0.1,0.2v1.1c0,0.1,0,0.2-0.1,0.2c-0.1,0.1-0.1,0.1-0.2,0.1h-3.5
		C166.6,296.4,165.7,296.1,164.9,295.7z M170.9,288.3v-0.9c0-0.6-0.2-1.2-0.5-1.7c-0.3-0.5-0.7-0.9-1.2-1.2s-1.1-0.5-1.7-0.5
		s-1.2,0.2-1.7,0.5s-0.9,0.7-1.2,1.2c-0.3,0.5-0.5,1.1-0.5,1.7v0.9H170.9z"/>
	<path class="st2" d="M177.4,296.1c-0.2-0.2-0.3-0.4-0.3-0.6v-15.9h-2.3c-0.1,0-0.2,0-0.2-0.1s-0.1-0.1-0.1-0.2v-1.1
		c0-0.1,0-0.2,0.1-0.2c0.1-0.1,0.1-0.1,0.2-0.1h3.3c0.2,0,0.5,0.1,0.6,0.3c0.2,0.2,0.3,0.4,0.3,0.6v15.9h2.6c0.1,0,0.2,0,0.2,0.1
		c0.1,0.1,0.1,0.1,0.1,0.2v1.1c0,0.1,0,0.2-0.1,0.2c-0.1,0.1-0.1,0.1-0.2,0.1H178C177.8,296.4,177.5,296.3,177.4,296.1z"/>
	<path class="st2" d="M186.9,296c-0.8-0.5-1.5-1.1-1.9-1.9c-0.5-0.8-0.7-1.7-0.7-2.7v-3.8c0-1,0.2-1.9,0.7-2.7
		c0.5-0.8,1.1-1.5,1.9-1.9c0.8-0.5,1.7-0.7,2.7-0.7c1,0,1.9,0.2,2.7,0.7c0.8,0.5,1.5,1.1,1.9,1.9c0.5,0.8,0.7,1.7,0.7,2.7v3.8
		c0,1-0.2,1.9-0.7,2.7c-0.5,0.8-1.1,1.5-1.9,1.9c-0.8,0.5-1.7,0.7-2.7,0.7C188.6,296.7,187.7,296.5,186.9,296z M191.3,294.4
		c0.5-0.3,0.9-0.7,1.2-1.2c0.3-0.5,0.5-1.1,0.5-1.7v-4.1c0-0.6-0.2-1.2-0.5-1.7c-0.3-0.5-0.7-0.9-1.2-1.2s-1.1-0.5-1.7-0.5
		s-1.2,0.2-1.7,0.5s-0.9,0.7-1.2,1.2c-0.3,0.5-0.5,1.1-0.5,1.7v4.1c0,0.6,0.2,1.2,0.5,1.7c0.3,0.5,0.7,0.9,1.2,1.2
		c0.5,0.3,1.1,0.5,1.7,0.5S190.8,294.7,191.3,294.4z"/>
	<path class="st2" d="M198.8,301c-0.1-0.1-0.1-0.1-0.1-0.2v-17.9c0-0.1,0-0.2,0.1-0.2c0.1-0.1,0.1-0.1,0.2-0.1h1.1
		c0.1,0,0.2,0,0.2,0.1s0.1,0.1,0.1,0.2v1.1c0.5-0.6,1-1,1.7-1.3c0.6-0.3,1.3-0.5,2.1-0.5c0.9,0,1.8,0.2,2.6,0.7
		c0.8,0.5,1.4,1.1,1.9,1.9s0.7,1.6,0.7,2.6v4.3c0,0.9-0.2,1.8-0.7,2.6s-1.1,1.4-1.9,1.9c-0.8,0.5-1.7,0.7-2.6,0.7
		c-0.7,0-1.3-0.1-1.9-0.4s-1.2-0.6-1.7-1v5.5c0,0.1,0,0.2-0.1,0.2c-0.1,0.1-0.1,0.1-0.2,0.1H199C199,301.1,198.9,301.1,198.8,301z
		 M205.8,294.4c0.5-0.3,0.9-0.7,1.2-1.2s0.5-1.1,0.5-1.7v-4.1c0-0.6-0.2-1.2-0.5-1.7c-0.3-0.5-0.7-0.9-1.2-1.2
		c-0.5-0.3-1.1-0.5-1.7-0.5s-1.2,0.2-1.7,0.5s-0.9,0.7-1.2,1.2c-0.3,0.5-0.5,1.1-0.5,1.7v4.1c0,0.6,0.2,1.2,0.5,1.7s0.7,0.9,1.2,1.2
		c0.5,0.3,1.1,0.5,1.7,0.5S205.2,294.7,205.8,294.4z"/>
	<path class="st2" d="M213.2,296.3c-0.1-0.1-0.1-0.1-0.1-0.2v-13.2c0-0.1,0-0.2,0.1-0.2c0.1-0.1,0.1-0.1,0.2-0.1h1.2
		c0.1,0,0.2,0,0.2,0.1s0.1,0.1,0.1,0.2v1.3c0.4-0.7,0.9-1.1,1.6-1.5c0.6-0.3,1.4-0.5,2.1-0.5c1,0,1.9,0.2,2.7,0.7
		c0.8,0.5,1.3,1.1,1.6,2c0.3-0.9,0.9-1.5,1.6-2c0.7-0.5,1.5-0.7,2.4-0.7c1.4,0,2.5,0.4,3.4,1.3s1.3,2,1.3,3.4v9.2
		c0,0.1,0,0.2-0.1,0.2s-0.1,0.1-0.2,0.1h-1.2c-0.1,0-0.2,0-0.2-0.1c-0.1-0.1-0.1-0.1-0.1-0.2v-8.8c0-1-0.3-1.8-0.8-2.4
		s-1.3-0.8-2.2-0.8c-1,0-1.8,0.4-2.5,1.1s-0.9,1.7-0.9,3v8c0,0.1,0,0.2-0.1,0.2c-0.1,0.1-0.1,0.1-0.2,0.1h-1.2c-0.1,0-0.2,0-0.2-0.1
		s-0.1-0.1-0.1-0.2v-8.8c0-1-0.3-1.8-0.8-2.4c-0.5-0.5-1.3-0.8-2.2-0.8c-1,0-1.8,0.4-2.5,1.1c-0.6,0.7-0.9,1.7-0.9,3v8
		c0,0.1,0,0.2-0.1,0.2s-0.1,0.1-0.2,0.1h-1.2C213.4,296.4,213.3,296.3,213.2,296.3z"/>
	<path class="st2" d="M237.9,295.7c-0.8-0.5-1.5-1.1-1.9-1.9c-0.5-0.8-0.7-1.7-0.7-2.7v-3.5c0-1,0.2-1.9,0.7-2.7
		c0.5-0.8,1.1-1.5,1.9-1.9c0.8-0.5,1.7-0.7,2.7-0.7c1,0,1.9,0.2,2.7,0.7c0.8,0.5,1.5,1.1,1.9,1.9c0.5,0.8,0.7,1.7,0.7,2.7v1.7
		c0,0.2-0.1,0.5-0.3,0.6c-0.2,0.2-0.4,0.3-0.6,0.3h-7.8v1.1c0,0.6,0.2,1.2,0.5,1.7c0.3,0.5,0.7,0.9,1.2,1.2s1.1,0.5,1.7,0.5h3.5
		c0.1,0,0.2,0,0.2,0.1c0.1,0.1,0.1,0.1,0.1,0.2v1.1c0,0.1,0,0.2-0.1,0.2c-0.1,0.1-0.1,0.1-0.2,0.1h-3.5
		C239.6,296.4,238.8,296.1,237.9,295.7z M244,288.3v-0.9c0-0.6-0.2-1.2-0.5-1.7c-0.3-0.5-0.7-0.9-1.2-1.2s-1.1-0.5-1.7-0.5
		s-1.2,0.2-1.7,0.5s-0.9,0.7-1.2,1.2c-0.3,0.5-0.5,1.1-0.5,1.7v0.9H244z"/>
	<path class="st2" d="M249.6,296.3c-0.1-0.1-0.1-0.1-0.1-0.2v-13.1c0-0.1,0-0.2,0.1-0.2c0.1-0.1,0.1-0.1,0.2-0.1h1.2
		c0.1,0,0.2,0,0.2,0.1s0.1,0.1,0.1,0.2v1.3c0.4-0.7,1-1.2,1.7-1.5s1.4-0.5,2.3-0.5c1.4,0,2.5,0.4,3.4,1.3s1.3,2,1.3,3.4v9.2
		c0,0.1,0,0.2-0.1,0.2s-0.1,0.1-0.2,0.1h-1.2c-0.1,0-0.2,0-0.2-0.1s-0.1-0.1-0.1-0.2v-8.8c0-1-0.3-1.8-0.8-2.4s-1.3-0.8-2.2-0.8
		c-1.1,0-2,0.4-2.6,1.1s-1,1.7-1,3v8c0,0.1,0,0.2-0.1,0.2s-0.1,0.1-0.2,0.1h-1.2C249.8,296.3,249.7,296.3,249.6,296.3z"/>
	<path class="st2" d="M265.7,295.3c-0.7-0.7-1-1.6-1-2.7v-8.3h-1.6c-0.1,0-0.2,0-0.2-0.1c-0.1-0.1-0.1-0.1-0.1-0.2v-1.1
		c0-0.1,0-0.2,0.1-0.2c0.1-0.1,0.1-0.1,0.2-0.1h1.6v-2.6c0-0.1,0-0.2,0.1-0.2c0.1-0.1,0.1-0.1,0.2-0.1h1.2c0.1,0,0.2,0,0.2,0.1
		c0.1,0.1,0.1,0.1,0.1,0.2v2.6h4.3c0.1,0,0.2,0,0.2,0.1s0.1,0.1,0.1,0.2v1.1c0,0.1,0,0.2-0.1,0.2s-0.1,0.1-0.2,0.1h-4.3v8.1
		c0,0.6,0.2,1.1,0.6,1.5c0.4,0.4,0.9,0.6,1.5,0.6l2.2,0c0.1,0,0.2,0,0.2,0.1s0.1,0.1,0.1,0.2v1.1c0,0.1,0,0.2-0.1,0.2
		s-0.1,0.1-0.2,0.1h-2.4C267.3,296.4,266.4,296,265.7,295.3z"/>
</g>
</svg>
