<?xml version="1.0" encoding="utf-8"?>
<!-- Generator: Adobe Illustrator 25.0.1, SVG Export Plug-In . SVG Version: 6.00 Build 0)  -->
<svg version="1.1" id="Layer_1" xmlns="http://www.w3.org/2000/svg" xmlns:xlink="http://www.w3.org/1999/xlink" x="0px" y="0px"
	 viewBox="0 0 400 400" style="enable-background:new 0 0 400 400;" xml:space="preserve">
<style type="text/css">
	.st0{fill:none;stroke:#A0A0A0;stroke-width:4;stroke-miterlimit:10;}
</style>
<g>
	<polyline class="st0" points="133.3,44.4 133.3,133.3 177.8,133.3 177.8,0 0,0 0,400 400,400 400,133.3 355.6,133.3 355.6,44.4 
		311.1,44.4 311.1,177.8 355.6,177.8 	"/>
	<polyline class="st0" points="400,88.9 400,0 222.2,0 222.2,44.4 266.7,44.4 266.7,177.8 	"/>
	<polyline class="st0" points="88.9,0 88.9,44.4 44.4,44.4 44.4,133.3 88.9,133.3 88.9,88.9 	"/>
	<line class="st0" x1="44.4" y1="133.3" x2="44.4" y2="222.2"/>
	<polyline class="st0" points="266.7,355.6 266.7,266.7 133.3,266.7 133.3,177.8 88.9,177.8 88.9,266.7 44.4,266.7 44.4,355.6 
		88.9,355.6 88.9,311.1 133.3,311.1 	"/>
	<polyline class="st0" points="222.2,355.6 133.3,355.6 133.3,400 	"/>
	<line class="st0" x1="177.8" y1="311.1" x2="266.7" y2="311.1"/>
	<polyline class="st0" points="133.3,177.8 222.2,177.8 222.2,44.4 	"/>
	<polyline class="st0" points="311.1,266.7 311.1,222.2 400,222.2 	"/>
	<polyline class="st0" points="311.1,400 311.1,311.1 355.6,311.1 355.6,355.6 	"/>
	<line class="st0" x1="355.6" y1="266.7" x2="400" y2="266.7"/>
	<line class="st0" x1="177.8" y1="222.2" x2="311.1" y2="222.2"/>
</g>
</svg>
