<?xml version="1.0" encoding="utf-8"?>
<!-- Generator: Adobe Illustrator 25.0.1, SVG Export Plug-In . SVG Version: 6.00 Build 0)  -->
<svg version="1.1" id="Layer_1" xmlns="http://www.w3.org/2000/svg" xmlns:xlink="http://www.w3.org/1999/xlink" x="0px" y="0px"
	 viewBox="0 0 400 400" style="enable-background:new 0 0 400 400;" xml:space="preserve">
<style type="text/css">
	.st0{fill:none;stroke:#A0A0A0;stroke-width:4;stroke-miterlimit:10;}
	.st1{fill:#FFAB00;}
	.st2{fill:#FFFFFF;}
</style>
<g>
	<polyline class="st0" points="222.2,0 266.7,0 266.7,44.4 177.8,44.4 177.8,133.3 88.9,133.3 88.9,355.6 133.3,355.6 	"/>
	<polyline class="st0" points="177.8,355.6 311.1,355.6 311.1,133.3 222.2,133.3 222.2,88.9 	"/>
	<polyline class="st0" points="44.4,133.3 0,133.3 0,400 400,400 400,0 311.1,0 311.1,44.4 	"/>
	<polyline class="st0" points="44.4,177.8 44.4,88.9 44.4,44.4 133.3,44.4 133.3,88.9 88.9,88.9 	"/>
	<polyline class="st0" points="88.9,222.2 44.4,222.2 44.4,355.6 	"/>
	<line class="st0" x1="266.7" y1="355.6" x2="266.7" y2="400"/>
	<line class="st0" x1="355.6" y1="355.6" x2="400" y2="355.6"/>
	<line class="st0" x1="355.6" y1="311.1" x2="355.6" y2="44.4"/>
	<polyline class="st0" points="266.7,44.4 266.7,88.9 355.6,88.9 	"/>
	<polyline class="st0" points="177.8,0 0,0 0,88.9 	"/>
</g>
<g>
	<path class="st1" d="M164.8,234.2c0.3,0.3,0.5,0.8,0.5,1.3v6c0,0.5-0.2,0.9-0.5,1.3c-0.3,0.3-0.8,0.5-1.3,0.5h-4.5
		c-2.2,0-4.2-0.4-6.2-1.1c-1.9-0.7-3.6-1.6-5-2.5s-3.3-2.4-5.8-4.3l-6.5-5c-1.2-1-2.3-1.7-3.3-2c-1-0.4-2.4-0.6-4.2-0.6
		c-4.1,0-8-1-11.5-3.1c-3.5-2-6.3-4.8-8.3-8.3c-2-3.5-3.1-7.3-3.1-11.4v-18.5c0-4.1,1-8,3.1-11.4c2-3.5,4.8-6.2,8.3-8.3
		c3.5-2,7.3-3.1,11.5-3.1s8,1,11.5,3.1c3.5,2,6.3,4.8,8.3,8.3c2,3.5,3.1,7.3,3.1,11.4v18.5c0,3.6-0.8,6.9-2.3,10
		c-1.6,3.1-3.7,5.7-6.4,7.9l4.5,3.7c-0.1-0.1,0.5,0.4,1.6,1.4c2.5,2,4.4,3.5,5.9,4.3c1.4,0.9,3,1.3,4.8,1.3h4.4
		C164.1,233.7,164.5,233.9,164.8,234.2z M117.5,211.4c1.1,2,2.6,3.5,4.5,4.7c1.9,1.2,3.9,1.7,6.1,1.7c2.2,0,4.2-0.6,6.1-1.7
		c1.9-1.2,3.4-2.7,4.5-4.7c1.1-2,1.7-4.1,1.7-6.3v-18.5c0-2.2-0.6-4.3-1.7-6.3c-1.1-2-2.6-3.5-4.5-4.7c-1.9-1.2-3.9-1.7-6.1-1.7
		c-2.2,0-4.2,0.6-6.1,1.7c-1.9,1.2-3.4,2.7-4.5,4.7c-1.1,2-1.7,4.1-1.7,6.3v18.5C115.8,207.4,116.4,209.5,117.5,211.4z"/>
	<path class="st1" d="M188.2,226.2c-0.3-0.3-0.5-0.8-0.5-1.3v-11.4h-24c-0.9,0-1.6-0.3-2.2-0.9c-0.6-0.6-0.9-1.3-0.9-2.2v-5.3
		l24-38.8c0.5-0.9,1.3-1.3,2.2-1.3h7.5c0.9,0,1.6,0.3,2.2,0.9c0.6,0.6,0.9,1.3,0.9,2.2v35.6h6.3c0.5,0,0.9,0.2,1.3,0.5
		c0.3,0.3,0.5,0.8,0.5,1.3v6.1c0,0.5-0.2,0.9-0.5,1.3c-0.3,0.3-0.8,0.5-1.3,0.5h-6.3v11.4c0,0.5-0.2,0.9-0.5,1.3
		c-0.3,0.3-0.8,0.5-1.3,0.5h-6.1C189,226.7,188.6,226.5,188.2,226.2z M187.7,203.7v-24.2l-14.9,24.2H187.7z"/>
	<path class="st2" d="M102.2,269c-0.3-0.3-0.5-0.7-0.5-1.1c0-0.4,0.2-0.8,0.5-1.1s0.7-0.5,1.1-0.5c0.4,0,0.8,0.2,1.1,0.5
		s0.4,0.7,0.4,1.1c0,0.4-0.1,0.8-0.4,1.1s-0.7,0.5-1.1,0.5C102.9,269.4,102.5,269.3,102.2,269z"/>
	<path class="st2" d="M115.6,274.4c-0.2-0.2-0.3-0.4-0.3-0.6V258c0-0.1,0-0.2,0.1-0.2c0.1-0.1,0.1-0.1,0.2-0.1h1.3
		c0.1,0,0.2,0,0.2,0.1c0.1,0.1,0.1,0.1,0.1,0.2v14.8h6.2c0.1,0,0.2,0,0.2,0.1c0.1,0.1,0.1,0.1,0.1,0.2v1.2c0,0.1,0,0.2-0.1,0.2
		s-0.1,0.1-0.2,0.1h-7.3C116,274.7,115.8,274.6,115.6,274.4z"/>
	<path class="st2" d="M127.3,274c-0.8-0.7-1.2-1.6-1.2-2.8c0-1.1,0.4-2,1.1-2.7c0.7-0.7,1.7-1.1,3-1.3l3.2-0.4
		c0.5-0.1,0.8-0.2,1-0.5c0.2-0.3,0.3-0.6,0.3-1.1V265c0-0.8-0.3-1.4-0.9-1.9c-0.6-0.5-1.4-0.7-2.3-0.7c-0.7,0-1.3,0.1-1.9,0.4
		s-1,0.7-1.3,1.2c-0.1,0.2-0.3,0.3-0.5,0.3c-0.1,0-0.2,0-0.3-0.1l-0.7-0.4c-0.1-0.1-0.2-0.3-0.2-0.4c0-0.1,0-0.1,0.1-0.2
		c0.5-0.8,1.1-1.4,1.9-1.8c0.8-0.4,1.8-0.7,2.9-0.7c1,0,1.9,0.2,2.6,0.5c0.8,0.4,1.4,0.9,1.8,1.6s0.6,1.4,0.6,2.3v9.4
		c0,0.1,0,0.2-0.1,0.2s-0.1,0.1-0.2,0.1h-1c-0.1,0-0.2,0-0.2-0.1s-0.1-0.1-0.1-0.2v-1.7c-0.5,0.7-1.2,1.3-1.9,1.7
		c-0.8,0.4-1.7,0.6-2.6,0.6C129.1,275,128.1,274.7,127.3,274z M132.8,272.7c0.7-0.4,1.2-1,1.5-1.6s0.6-1.3,0.6-1.9v-1
		c-0.4,0-1.6,0.2-3.8,0.5l-0.7,0.1c-1.6,0.2-2.4,1-2.4,2.3c0,0.7,0.2,1.2,0.7,1.6s1.1,0.6,1.9,0.6
		C131.4,273.3,132.1,273.1,132.8,272.7z"/>
	<path class="st2" d="M144.3,274.6c-0.6-0.3-1.2-0.7-1.7-1.2v1c0,0.1,0,0.2-0.1,0.2s-0.1,0.1-0.2,0.1h-1.1c-0.1,0-0.2,0-0.2-0.1
		c-0.1-0.1-0.1-0.1-0.1-0.2v-17.9c0-0.1,0-0.2,0.1-0.2c0.1-0.1,0.1-0.1,0.2-0.1h1.2c0.1,0,0.2,0,0.2,0.1c0.1,0.1,0.1,0.1,0.1,0.2
		v5.8c0.5-0.5,1-1,1.6-1.3c0.6-0.3,1.3-0.5,2-0.5c0.9,0,1.8,0.2,2.6,0.7c0.8,0.5,1.4,1.1,1.9,1.9s0.7,1.6,0.7,2.6v4.3
		c0,0.9-0.2,1.8-0.7,2.6s-1.1,1.4-1.9,1.9s-1.6,0.7-2.6,0.7C145.6,275,144.9,274.9,144.3,274.6z M147.8,272.8
		c0.5-0.3,0.9-0.7,1.2-1.2s0.5-1.1,0.5-1.7v-4.1c0-0.6-0.2-1.2-0.5-1.7c-0.3-0.5-0.7-0.9-1.2-1.2c-0.5-0.3-1.1-0.5-1.7-0.5
		s-1.2,0.2-1.7,0.5s-0.9,0.7-1.2,1.2c-0.3,0.5-0.5,1.1-0.5,1.7v4.1c0,0.6,0.2,1.2,0.5,1.7s0.7,0.9,1.2,1.2c0.5,0.3,1.1,0.5,1.7,0.5
		S147.3,273.1,147.8,272.8z"/>
	<path class="st2" d="M157,279.3c-0.1-0.1-0.1-0.2,0-0.4l1.4-4.1l-4.9-13.5c0,0,0-0.1,0-0.2c0-0.1,0-0.2,0.1-0.3
		c0.1-0.1,0.2-0.1,0.3-0.1h1.1c0.1,0,0.2,0,0.3,0.1c0.1,0.1,0.2,0.1,0.2,0.2l3.8,11l3.8-11c0-0.1,0.1-0.2,0.2-0.2
		c0.1-0.1,0.2-0.1,0.3-0.1h1.1c0.1,0,0.3,0.1,0.3,0.2c0.1,0.1,0.1,0.2,0,0.4l-6.3,17.7c0,0.1-0.1,0.2-0.2,0.2
		c-0.1,0.1-0.2,0.1-0.3,0.1h-1C157.2,279.4,157.1,279.4,157,279.3z"/>
	<path class="st2" d="M167.3,274.6c-0.1-0.1-0.1-0.1-0.1-0.2v-1.1c0-0.1,0-0.2,0.1-0.2s0.1-0.1,0.2-0.1h2v-10.3h-2
		c-0.1,0-0.2,0-0.2-0.1s-0.1-0.1-0.1-0.2v-1.1c0-0.1,0-0.2,0.1-0.2s0.1-0.1,0.2-0.1h3.1c0.2,0,0.5,0.1,0.6,0.3
		c0.2,0.2,0.3,0.4,0.3,0.6v1.2l1.4-1.1c0.6-0.5,1.1-0.8,1.4-0.9s0.8-0.2,1.2-0.2h0.7c0.1,0,0.2,0,0.3,0.1c0.1,0.1,0.1,0.1,0.1,0.2
		v1.2c0,0.1,0,0.2-0.1,0.2s-0.1,0.1-0.2,0.1h-0.5c-0.4,0-0.8,0.1-1.2,0.3c-0.4,0.2-0.9,0.5-1.6,1.1l-1.4,1.2v7.8h2.8
		c0.1,0,0.2,0,0.2,0.1s0.1,0.1,0.1,0.2v1.1c0,0.1,0,0.2-0.1,0.2s-0.1,0.1-0.2,0.1h-6.8C167.4,274.7,167.3,274.7,167.3,274.6z"/>
	<path class="st2" d="M181.8,274.4c-0.2-0.2-0.3-0.4-0.3-0.6v-11.2H179c-0.1,0-0.2,0-0.2-0.1s-0.1-0.1-0.1-0.2v-1.1
		c0-0.1,0-0.2,0.1-0.2s0.1-0.1,0.2-0.1h3.6c0.2,0,0.5,0.1,0.6,0.3c0.2,0.2,0.3,0.4,0.3,0.6v11.2h2.5c0.1,0,0.2,0,0.2,0.1
		s0.1,0.1,0.1,0.2v1.1c0,0.1,0,0.2-0.1,0.2s-0.1,0.1-0.2,0.1h-3.5C182.2,274.7,182,274.6,181.8,274.4z M181.7,258.8
		c-0.1-0.1-0.1-0.1-0.1-0.2v-2.1c0-0.1,0-0.2,0.1-0.2c0.1-0.1,0.1-0.1,0.2-0.1h1.2c0.1,0,0.2,0,0.2,0.1c0.1,0.1,0.1,0.1,0.1,0.2v2.1
		c0,0.1,0,0.2-0.1,0.2c-0.1,0.1-0.1,0.1-0.2,0.1h-1.2C181.8,258.9,181.8,258.9,181.7,258.8z"/>
	<path class="st2" d="M189.5,274.6c-0.1-0.1-0.1-0.1-0.1-0.2v-13.1c0-0.1,0-0.2,0.1-0.2c0.1-0.1,0.1-0.1,0.2-0.1h1.2
		c0.1,0,0.2,0,0.2,0.1s0.1,0.1,0.1,0.2v1.3c0.4-0.7,1-1.2,1.7-1.5s1.4-0.5,2.3-0.5c1.4,0,2.5,0.4,3.4,1.3s1.3,2,1.3,3.4v9.2
		c0,0.1,0,0.2-0.1,0.2s-0.1,0.1-0.2,0.1h-1.2c-0.1,0-0.2,0-0.2-0.1s-0.1-0.1-0.1-0.2v-8.8c0-1-0.3-1.8-0.8-2.4s-1.3-0.8-2.2-0.8
		c-1.1,0-2,0.4-2.6,1.1s-1,1.7-1,3v8c0,0.1,0,0.2-0.1,0.2s-0.1,0.1-0.2,0.1h-1.2C189.7,274.7,189.6,274.6,189.5,274.6z"/>
	<path class="st2" d="M205.6,273.6c-0.7-0.7-1-1.6-1-2.7v-8.3h-1.6c-0.1,0-0.2,0-0.2-0.1c-0.1-0.1-0.1-0.1-0.1-0.2v-1.1
		c0-0.1,0-0.2,0.1-0.2c0.1-0.1,0.1-0.1,0.2-0.1h1.6v-2.6c0-0.1,0-0.2,0.1-0.2c0.1-0.1,0.1-0.1,0.2-0.1h1.2c0.1,0,0.2,0,0.2,0.1
		c0.1,0.1,0.1,0.1,0.1,0.2v2.6h4.3c0.1,0,0.2,0,0.2,0.1s0.1,0.1,0.1,0.2v1.1c0,0.1,0,0.2-0.1,0.2s-0.1,0.1-0.2,0.1h-4.3v8.1
		c0,0.6,0.2,1.1,0.6,1.5c0.4,0.4,0.9,0.6,1.5,0.6l2.2,0c0.1,0,0.2,0,0.2,0.1s0.1,0.1,0.1,0.2v1.1c0,0.1,0,0.2-0.1,0.2
		s-0.1,0.1-0.2,0.1h-2.4C207.2,274.7,206.2,274.3,205.6,273.6z"/>
	<path class="st2" d="M214.8,274.6c-0.1-0.1-0.1-0.1-0.1-0.2v-17.9c0-0.1,0-0.2,0.1-0.2c0.1-0.1,0.1-0.1,0.2-0.1h1.2
		c0.1,0,0.2,0,0.2,0.1c0.1,0.1,0.1,0.1,0.1,0.2v6.1c0.4-0.7,1-1.2,1.7-1.5s1.4-0.5,2.3-0.5c1.4,0,2.5,0.4,3.4,1.3s1.3,2,1.3,3.4v9.2
		c0,0.1,0,0.2-0.1,0.2s-0.1,0.1-0.2,0.1h-1.2c-0.1,0-0.2,0-0.2-0.1s-0.1-0.1-0.1-0.2v-8.8c0-1-0.3-1.8-0.8-2.4s-1.3-0.8-2.2-0.8
		c-1.1,0-2,0.4-2.6,1.1s-1,1.7-1,3v8c0,0.1,0,0.2-0.1,0.2s-0.1,0.1-0.2,0.1H215C214.9,274.7,214.8,274.7,214.8,274.6z"/>
	<path class="st2" d="M238.3,274.2c-0.9-0.5-1.6-1.3-2.2-2.2c-0.5-0.9-0.8-1.9-0.8-3v-5.7c0-1.1,0.3-2.1,0.8-3
		c0.5-0.9,1.3-1.6,2.2-2.2c0.9-0.5,1.9-0.8,3-0.8c0.9,0,1.7,0.2,2.5,0.5c0.8,0.3,1.5,0.8,2,1.3c0.1,0.1,0.1,0.2,0.1,0.3
		c0,0.1,0,0.2-0.1,0.3c-0.1,0.1-0.3,0.4-0.7,0.7c-0.1,0.1-0.2,0.1-0.3,0.1c-0.1,0-0.3-0.1-0.4-0.2c-0.8-0.8-1.9-1.2-3.1-1.2
		c-0.7,0-1.4,0.2-2,0.6c-0.6,0.4-1.1,0.9-1.5,1.5c-0.4,0.6-0.5,1.3-0.5,2v5.7c0,0.7,0.2,1.4,0.5,2c0.4,0.6,0.8,1.1,1.5,1.5
		c0.6,0.4,1.3,0.6,2,0.6c0.7,0,1.4-0.2,2-0.5c0.6-0.4,1.1-0.8,1.4-1.5c0.4-0.6,0.5-1.3,0.5-2v-1.9h-3.5c-0.1,0-0.2,0-0.2-0.1
		c-0.1-0.1-0.1-0.1-0.1-0.2v-1.1c0-0.1,0-0.2,0.1-0.2c0.1-0.1,0.1-0.1,0.2-0.1h4.5c0.2,0,0.5,0.1,0.6,0.3c0.2,0.2,0.3,0.4,0.3,0.6
		v2.8c0,1.1-0.3,2.1-0.8,3c-0.5,0.9-1.3,1.6-2.2,2.2c-0.9,0.5-1.9,0.8-3,0.8S239.2,274.7,238.3,274.2z"/>
	<path class="st2" d="M251.3,274c-0.8-0.7-1.2-1.6-1.2-2.8c0-1.1,0.4-2,1.1-2.7c0.7-0.7,1.7-1.1,3-1.3l3.2-0.4
		c0.5-0.1,0.8-0.2,1-0.5c0.2-0.3,0.3-0.6,0.3-1.1V265c0-0.8-0.3-1.4-0.9-1.9c-0.6-0.5-1.4-0.7-2.3-0.7c-0.7,0-1.3,0.1-1.9,0.4
		s-1,0.7-1.3,1.2c-0.1,0.2-0.3,0.3-0.5,0.3c-0.1,0-0.2,0-0.3-0.1l-0.7-0.4c-0.1-0.1-0.2-0.3-0.2-0.4c0-0.1,0-0.1,0.1-0.2
		c0.5-0.8,1.1-1.4,1.9-1.8c0.8-0.4,1.8-0.7,2.9-0.7c1,0,1.9,0.2,2.6,0.5c0.8,0.4,1.4,0.9,1.8,1.6s0.6,1.4,0.6,2.3v9.4
		c0,0.1,0,0.2-0.1,0.2s-0.1,0.1-0.2,0.1h-1c-0.1,0-0.2,0-0.2-0.1s-0.1-0.1-0.1-0.2v-1.7c-0.5,0.7-1.2,1.3-1.9,1.7
		c-0.8,0.4-1.7,0.6-2.6,0.6C253.1,275,252.1,274.7,251.3,274z M256.7,272.7c0.7-0.4,1.2-1,1.5-1.6s0.6-1.3,0.6-1.9v-1
		c-0.4,0-1.6,0.2-3.8,0.5l-0.7,0.1c-1.6,0.2-2.4,1-2.4,2.3c0,0.7,0.2,1.2,0.7,1.6s1.1,0.6,1.9,0.6
		C255.3,273.3,256.1,273.1,256.7,272.7z"/>
	<path class="st2" d="M264.8,274.6c-0.1-0.1-0.1-0.1-0.1-0.2v-13.2c0-0.1,0-0.2,0.1-0.2c0.1-0.1,0.1-0.1,0.2-0.1h1.2
		c0.1,0,0.2,0,0.2,0.1s0.1,0.1,0.1,0.2v1.3c0.4-0.7,0.9-1.1,1.6-1.5c0.6-0.3,1.4-0.5,2.1-0.5c1,0,1.9,0.2,2.7,0.7
		c0.8,0.5,1.3,1.1,1.6,2c0.3-0.9,0.9-1.5,1.6-2c0.7-0.5,1.5-0.7,2.4-0.7c1.4,0,2.5,0.4,3.4,1.3s1.3,2,1.3,3.4v9.2
		c0,0.1,0,0.2-0.1,0.2s-0.1,0.1-0.2,0.1h-1.2c-0.1,0-0.2,0-0.2-0.1c-0.1-0.1-0.1-0.1-0.1-0.2v-8.8c0-1-0.3-1.8-0.8-2.4
		s-1.3-0.8-2.2-0.8c-1,0-1.8,0.4-2.5,1.1s-0.9,1.7-0.9,3v8c0,0.1,0,0.2-0.1,0.2c-0.1,0.1-0.1,0.1-0.2,0.1h-1.2c-0.1,0-0.2,0-0.2-0.1
		s-0.1-0.1-0.1-0.2v-8.8c0-1-0.3-1.8-0.8-2.4c-0.5-0.5-1.3-0.8-2.2-0.8c-1,0-1.8,0.4-2.5,1.1c-0.6,0.7-0.9,1.7-0.9,3v8
		c0,0.1,0,0.2-0.1,0.2s-0.1,0.1-0.2,0.1h-1.2C265,274.7,264.9,274.7,264.8,274.6z"/>
	<path class="st2" d="M289.5,274c-0.8-0.5-1.5-1.1-1.9-1.9c-0.5-0.8-0.7-1.7-0.7-2.7v-3.5c0-1,0.2-1.9,0.7-2.7
		c0.5-0.8,1.1-1.5,1.9-1.9c0.8-0.5,1.7-0.7,2.7-0.7c1,0,1.9,0.2,2.7,0.7c0.8,0.5,1.5,1.1,1.9,1.9c0.5,0.8,0.7,1.7,0.7,2.7v1.7
		c0,0.2-0.1,0.5-0.3,0.6c-0.2,0.2-0.4,0.3-0.6,0.3h-7.8v1.1c0,0.6,0.2,1.2,0.5,1.7c0.3,0.5,0.7,0.9,1.2,1.2s1.1,0.5,1.7,0.5h3.5
		c0.1,0,0.2,0,0.2,0.1c0.1,0.1,0.1,0.1,0.1,0.2v1.1c0,0.1,0,0.2-0.1,0.2c-0.1,0.1-0.1,0.1-0.2,0.1h-3.5
		C291.2,274.7,290.4,274.5,289.5,274z M295.6,266.6v-0.9c0-0.6-0.2-1.2-0.5-1.7c-0.3-0.5-0.7-0.9-1.2-1.2s-1.1-0.5-1.7-0.5
		s-1.2,0.2-1.7,0.5s-0.9,0.7-1.2,1.2c-0.3,0.5-0.5,1.1-0.5,1.7v0.9H295.6z"/>
	<path class="st2" d="M102.2,304.8c-0.3-0.3-0.5-0.7-0.5-1.1c0-0.4,0.2-0.8,0.5-1.1s0.7-0.5,1.1-0.5c0.4,0,0.8,0.2,1.1,0.5
		s0.4,0.7,0.4,1.1c0,0.4-0.1,0.8-0.4,1.1s-0.7,0.5-1.1,0.5C102.9,305.2,102.5,305.1,102.2,304.8z"/>
	<path class="st2" d="M118.9,310.4c-0.1-0.1-0.1-0.1-0.1-0.2v-14.8h-4.2c-0.1,0-0.2,0-0.2-0.1s-0.1-0.1-0.1-0.2v-1.2
		c0-0.1,0-0.2,0.1-0.2c0.1-0.1,0.1-0.1,0.2-0.1H125c0.1,0,0.2,0,0.2,0.1c0.1,0.1,0.1,0.1,0.1,0.2v1.2c0,0.1,0,0.2-0.1,0.2
		s-0.1,0.1-0.2,0.1h-4.2v14.8c0,0.1,0,0.2-0.1,0.2s-0.1,0.1-0.2,0.1h-1.3C119,310.5,119,310.5,118.9,310.4z"/>
	<path class="st2" d="M127.5,309.8c-0.8-0.7-1.2-1.6-1.2-2.8c0-1.1,0.4-2,1.1-2.7c0.7-0.7,1.7-1.1,3-1.3l3.2-0.4
		c0.5-0.1,0.8-0.2,1-0.5c0.2-0.3,0.3-0.6,0.3-1.1v-0.2c0-0.8-0.3-1.4-0.9-1.9c-0.6-0.5-1.4-0.7-2.3-0.7c-0.7,0-1.3,0.1-1.9,0.4
		s-1,0.7-1.3,1.2c-0.1,0.2-0.3,0.3-0.5,0.3c-0.1,0-0.2,0-0.3-0.1l-0.7-0.4c-0.1-0.1-0.2-0.3-0.2-0.4c0-0.1,0-0.1,0.1-0.2
		c0.5-0.8,1.1-1.4,1.9-1.8c0.8-0.4,1.8-0.7,2.9-0.7c1,0,1.9,0.2,2.6,0.5c0.8,0.4,1.4,0.9,1.8,1.6s0.6,1.4,0.6,2.3v9.4
		c0,0.1,0,0.2-0.1,0.2s-0.1,0.1-0.2,0.1h-1c-0.1,0-0.2,0-0.2-0.1s-0.1-0.1-0.1-0.2v-1.7c-0.5,0.7-1.2,1.3-1.9,1.7
		c-0.8,0.4-1.7,0.6-2.6,0.6C129.4,310.8,128.3,310.5,127.5,309.8z M133,308.5c0.7-0.4,1.2-1,1.5-1.6s0.6-1.3,0.6-1.9v-1
		c-0.4,0-1.6,0.2-3.8,0.5l-0.7,0.1c-1.6,0.2-2.4,1-2.4,2.3c0,0.7,0.2,1.2,0.7,1.6s1.1,0.6,1.9,0.6
		C131.6,309.1,132.3,308.9,133,308.5z"/>
	<path class="st2" d="M142.2,309.6c-0.9-0.8-1.3-2-1.3-3.4V297c0-0.1,0-0.2,0.1-0.2s0.1-0.1,0.2-0.1h1.2c0.1,0,0.2,0,0.2,0.1
		s0.1,0.1,0.1,0.2v8.8c0,1,0.3,1.8,0.8,2.4s1.3,0.8,2.2,0.8c1.1,0,2-0.4,2.6-1.1c0.7-0.7,1-1.7,1-3v-8c0-0.1,0-0.2,0.1-0.2
		s0.1-0.1,0.2-0.1h1.2c0.1,0,0.2,0,0.2,0.1c0.1,0.1,0.1,0.1,0.1,0.2v13.2c0,0.1,0,0.2-0.1,0.2c-0.1,0.1-0.1,0.1-0.2,0.1h-1.2
		c-0.1,0-0.2,0-0.2-0.1s-0.1-0.1-0.1-0.2v-1.4c-0.4,0.7-1,1.2-1.7,1.5c-0.7,0.3-1.4,0.5-2.3,0.5
		C144.2,310.8,143.1,310.4,142.2,309.6z"/>
	<path class="st2" d="M155,310.4c-0.1-0.1-0.1-0.1-0.1-0.2V309c0-0.1,0-0.2,0.1-0.2s0.1-0.1,0.2-0.1h2v-10.3h-2
		c-0.1,0-0.2,0-0.2-0.1s-0.1-0.1-0.1-0.2V297c0-0.1,0-0.2,0.1-0.2s0.1-0.1,0.2-0.1h3.1c0.2,0,0.5,0.1,0.6,0.3
		c0.2,0.2,0.3,0.4,0.3,0.6v1.2l1.4-1.1c0.6-0.5,1.1-0.8,1.4-0.9s0.8-0.2,1.2-0.2h0.7c0.1,0,0.2,0,0.3,0.1c0.1,0.1,0.1,0.1,0.1,0.2
		v1.2c0,0.1,0,0.2-0.1,0.2s-0.1,0.1-0.2,0.1h-0.5c-0.4,0-0.8,0.1-1.2,0.3c-0.4,0.2-0.9,0.5-1.6,1.1l-1.4,1.2v7.8h2.8
		c0.1,0,0.2,0,0.2,0.1s0.1,0.1,0.1,0.2v1.1c0,0.1,0,0.2-0.1,0.2s-0.1,0.1-0.2,0.1h-6.8C155.1,310.5,155,310.5,155,310.4z"/>
	<path class="st2" d="M168.2,310.5c-0.7-0.2-1.3-0.5-1.9-0.9c-0.1,0-0.1-0.1-0.1-0.2s0-0.2,0-0.2l0.5-1c0.1-0.1,0.2-0.2,0.3-0.2
		c0,0,0.1,0,0.2,0c1.1,0.7,2.2,1,3.3,1c0.9,0,1.5-0.2,2-0.6c0.5-0.4,0.7-0.9,0.7-1.6c0-0.4-0.1-0.8-0.3-1c-0.2-0.3-0.5-0.5-0.9-0.7
		c-0.4-0.2-0.9-0.4-1.7-0.7c-1-0.4-1.8-0.7-2.3-1.1s-1-0.7-1.3-1.2c-0.3-0.5-0.5-1.2-0.5-1.9c0-1.3,0.4-2.2,1.2-2.9
		c0.8-0.7,1.9-1,3.2-1c0.7,0,1.4,0.1,2,0.3c0.7,0.2,1.3,0.5,1.8,0.8c0.1,0,0.1,0.1,0.1,0.2s0,0.2,0,0.2l-0.5,1
		c0,0.1-0.1,0.2-0.2,0.2c-0.1,0-0.2,0-0.3,0c-1-0.6-2-0.9-3-0.9c-0.8,0-1.4,0.2-1.9,0.5c-0.4,0.3-0.7,0.8-0.7,1.5
		c0,0.5,0.1,0.9,0.4,1.2c0.2,0.3,0.5,0.5,0.9,0.7c0.3,0.2,0.9,0.4,1.6,0.6c1,0.3,1.7,0.7,2.3,1c0.6,0.3,1,0.7,1.4,1.2
		c0.4,0.5,0.5,1.1,0.5,1.9c0,1.3-0.4,2.2-1.3,3c-0.9,0.7-2,1.1-3.5,1.1C169.6,310.8,168.9,310.7,168.2,310.5z"/>
	<path class="st2" d="M183.9,310.4c-0.1-0.1-0.1-0.2,0-0.4l5.3-16.2c0-0.1,0.1-0.2,0.2-0.2c0.1-0.1,0.2-0.1,0.3-0.1h1.6
		c0.1,0,0.2,0,0.3,0.1c0.1,0.1,0.2,0.1,0.2,0.2L197,310c0,0,0,0.1,0,0.2c0,0.1,0,0.2-0.1,0.3c-0.1,0.1-0.2,0.1-0.3,0.1h-1.2
		c-0.1,0-0.2,0-0.3-0.1c-0.1-0.1-0.2-0.1-0.2-0.2l-1.4-4.3h-6.4l-1.4,4.3c0,0.1-0.1,0.2-0.2,0.2c-0.1,0.1-0.2,0.1-0.3,0.1h-1.2
		C184.1,310.5,184,310.5,183.9,310.4z M193.1,304.2l-2.6-8.1l-2.6,8.1H193.1z"/>
	<path class="st2" d="M202.3,310.4c-0.1-0.1-0.2-0.1-0.2-0.2l-4.4-13c0,0,0-0.1,0-0.2c0-0.1,0-0.2,0.1-0.3c0.1-0.1,0.2-0.1,0.3-0.1
		h1.1c0.1,0,0.2,0,0.3,0.1c0.1,0.1,0.2,0.1,0.2,0.2l3.6,11.2l3.3-11.2c0.1-0.2,0.2-0.3,0.5-0.3h1.2c0.3,0,0.4,0.1,0.5,0.3l3.3,11.2
		l3.6-11.2c0-0.1,0.1-0.2,0.2-0.2c0.1-0.1,0.2-0.1,0.3-0.1h1.1c0.1,0,0.3,0.1,0.3,0.2c0.1,0.1,0.1,0.2,0,0.4l-4.4,13
		c0,0.1-0.1,0.2-0.2,0.2c-0.1,0.1-0.2,0.1-0.3,0.1h-1.4c-0.1,0-0.2,0-0.3-0.1c-0.1-0.1-0.2-0.1-0.2-0.2l-3.2-10.6l-3.2,10.6
		c0,0.1-0.1,0.2-0.2,0.2c-0.1,0.1-0.2,0.1-0.3,0.1h-1.4C202.5,310.5,202.4,310.5,202.3,310.4z"/>
	<path class="st2" d="M220.7,309.8c-0.8-0.7-1.2-1.6-1.2-2.8c0-1.1,0.4-2,1.1-2.7c0.7-0.7,1.7-1.1,3-1.3l3.2-0.4
		c0.5-0.1,0.8-0.2,1-0.5c0.2-0.3,0.3-0.6,0.3-1.1v-0.2c0-0.8-0.3-1.4-0.9-1.9c-0.6-0.5-1.4-0.7-2.3-0.7c-0.7,0-1.3,0.1-1.9,0.4
		s-1,0.7-1.3,1.2c-0.1,0.2-0.3,0.3-0.5,0.3c-0.1,0-0.2,0-0.3-0.1l-0.7-0.4c-0.1-0.1-0.2-0.3-0.2-0.4c0-0.1,0-0.1,0.1-0.2
		c0.5-0.8,1.1-1.4,1.9-1.8c0.8-0.4,1.8-0.7,2.9-0.7c1,0,1.9,0.2,2.6,0.5c0.8,0.4,1.4,0.9,1.8,1.6s0.6,1.4,0.6,2.3v9.4
		c0,0.1,0,0.2-0.1,0.2s-0.1,0.1-0.2,0.1h-1c-0.1,0-0.2,0-0.2-0.1s-0.1-0.1-0.1-0.2v-1.7c-0.5,0.7-1.2,1.3-1.9,1.7
		c-0.8,0.4-1.7,0.6-2.6,0.6C222.5,310.8,221.5,310.5,220.7,309.8z M226.1,308.5c0.7-0.4,1.2-1,1.5-1.6s0.6-1.3,0.6-1.9v-1
		c-0.4,0-1.6,0.2-3.8,0.5l-0.7,0.1c-1.6,0.2-2.4,1-2.4,2.3c0,0.7,0.2,1.2,0.7,1.6s1.1,0.6,1.9,0.6
		C224.7,309.1,225.5,308.9,226.1,308.5z"/>
	<path class="st2" d="M233.2,310.4c-0.1-0.1-0.1-0.1-0.1-0.2V309c0-0.1,0-0.2,0.1-0.2s0.1-0.1,0.2-0.1h2v-10.3h-2
		c-0.1,0-0.2,0-0.2-0.1s-0.1-0.1-0.1-0.2V297c0-0.1,0-0.2,0.1-0.2s0.1-0.1,0.2-0.1h3.1c0.2,0,0.5,0.1,0.6,0.3
		c0.2,0.2,0.3,0.4,0.3,0.6v1.2l1.4-1.1c0.6-0.5,1.1-0.8,1.4-0.9s0.8-0.2,1.2-0.2h0.7c0.1,0,0.2,0,0.3,0.1c0.1,0.1,0.1,0.1,0.1,0.2
		v1.2c0,0.1,0,0.2-0.1,0.2s-0.1,0.1-0.2,0.1h-0.5c-0.4,0-0.8,0.1-1.2,0.3c-0.4,0.2-0.9,0.5-1.6,1.1l-1.4,1.2v7.8h2.8
		c0.1,0,0.2,0,0.2,0.1s0.1,0.1,0.1,0.2v1.1c0,0.1,0,0.2-0.1,0.2s-0.1,0.1-0.2,0.1h-6.8C233.3,310.5,233.2,310.5,233.2,310.4z"/>
	<path class="st2" d="M246.9,310.1c-0.8-0.5-1.4-1.1-1.9-1.9c-0.5-0.8-0.7-1.6-0.7-2.6v-4.3c0-0.9,0.2-1.8,0.7-2.6
		c0.5-0.8,1.1-1.4,1.9-1.9c0.8-0.5,1.7-0.7,2.6-0.7c0.7,0,1.3,0.1,1.9,0.4c0.6,0.2,1.2,0.6,1.7,1v-5.5c0-0.1,0-0.2,0.1-0.2
		c0.1-0.1,0.1-0.1,0.2-0.1h1.2c0.1,0,0.2,0,0.2,0.1c0.1,0.1,0.1,0.1,0.1,0.2v17.9c0,0.1,0,0.2-0.1,0.2s-0.1,0.1-0.2,0.1h-1.1
		c-0.1,0-0.2,0-0.2-0.1s-0.1-0.1-0.1-0.2v-1.1c-0.5,0.6-1,1-1.7,1.3s-1.3,0.5-2.1,0.5C248.6,310.8,247.7,310.6,246.9,310.1z
		 M251.4,308.6c0.5-0.3,0.9-0.7,1.2-1.2s0.5-1.1,0.5-1.7v-4.1c0-0.6-0.2-1.2-0.5-1.7c-0.3-0.5-0.7-0.9-1.2-1.2
		c-0.5-0.3-1.1-0.5-1.7-0.5s-1.2,0.2-1.7,0.5s-0.9,0.7-1.2,1.2c-0.3,0.5-0.5,1.1-0.5,1.7v4.1c0,0.6,0.2,1.2,0.5,1.7
		c0.3,0.5,0.7,0.9,1.2,1.2c0.5,0.3,1.1,0.5,1.7,0.5S250.9,308.9,251.4,308.6z"/>
	<path class="st2" d="M260.4,310.5c-0.7-0.2-1.3-0.5-1.9-0.9c-0.1,0-0.1-0.1-0.1-0.2s0-0.2,0-0.2l0.5-1c0.1-0.1,0.2-0.2,0.3-0.2
		c0,0,0.1,0,0.2,0c1.1,0.7,2.2,1,3.3,1c0.9,0,1.5-0.2,2-0.6c0.5-0.4,0.7-0.9,0.7-1.6c0-0.4-0.1-0.8-0.3-1c-0.2-0.3-0.5-0.5-0.9-0.7
		c-0.4-0.2-0.9-0.4-1.7-0.7c-1-0.4-1.8-0.7-2.3-1.1s-1-0.7-1.3-1.2c-0.3-0.5-0.5-1.2-0.5-1.9c0-1.3,0.4-2.2,1.2-2.9
		c0.8-0.7,1.9-1,3.2-1c0.7,0,1.4,0.1,2,0.3c0.7,0.2,1.3,0.5,1.8,0.8c0.1,0,0.1,0.1,0.1,0.2s0,0.2,0,0.2l-0.5,1
		c0,0.1-0.1,0.2-0.2,0.2c-0.1,0-0.2,0-0.3,0c-1-0.6-2-0.9-3-0.9c-0.8,0-1.4,0.2-1.9,0.5c-0.4,0.3-0.7,0.8-0.7,1.5
		c0,0.5,0.1,0.9,0.4,1.2c0.2,0.3,0.5,0.5,0.9,0.7c0.3,0.2,0.9,0.4,1.6,0.6c1,0.3,1.7,0.7,2.3,1c0.6,0.3,1,0.7,1.4,1.2
		c0.4,0.5,0.5,1.1,0.5,1.9c0,1.3-0.4,2.2-1.3,3c-0.9,0.7-2,1.1-3.5,1.1C261.9,310.8,261.2,310.7,260.4,310.5z"/>
</g>
</svg>
