<?xml version="1.0" encoding="utf-8"?>
<!-- Generator: Adobe Illustrator 25.0.1, SVG Export Plug-In . SVG Version: 6.00 Build 0)  -->
<svg version="1.1" id="Layer_1" xmlns="http://www.w3.org/2000/svg" xmlns:xlink="http://www.w3.org/1999/xlink" x="0px" y="0px"
	 viewBox="0 0 256 256" style="enable-background:new 0 0 256 256;" xml:space="preserve">
<style type="text/css">
	.st0{fill:#FFFFFF;}
</style>
<path class="st0" d="M209.1,0.5H46.9C21,0.5,0,21.5,0,47.4v162.3c0,25.9,21,46.9,46.9,46.9h162.3c25.9,0,46.9-21,46.9-46.9V47.4
	C256,21.5,235,0.5,209.1,0.5z M215,62.4l-13.5,12.9c-1.2,0.9-1.7,2.3-1.5,3.8v94.8c-0.2,1.4,0.3,2.9,1.5,3.8l13.1,12.9v2.8h-66.1
	v-2.8l13.6-13.2c1.3-1.3,1.3-1.7,1.3-3.8V97l-37.9,96.2h-5.1L76.4,97v64.5c-0.4,2.7,0.5,5.4,2.4,7.4l17.7,21.5v2.8H46.4v-2.8
	l17.7-21.5c1.9-2,2.7-4.7,2.3-7.4V86.9c0.2-2.1-0.6-4.1-2.1-5.5l-15.7-19v-2.8h48.9l37.8,82.9l33.2-82.9H215V62.4z"/>
</svg>
