<?xml version="1.0" encoding="utf-8"?>
<!-- Generator: Adobe Illustrator 25.0.1, SVG Export Plug-In . SVG Version: 6.00 Build 0)  -->
<svg version="1.1" id="Layer_1" xmlns="http://www.w3.org/2000/svg" xmlns:xlink="http://www.w3.org/1999/xlink" x="0px" y="0px"
	 viewBox="0 0 120 110" style="enable-background:new 0 0 120 110;" xml:space="preserve">
<style type="text/css">
	.st0{fill:url(#SVGID_1_);}
	.st1{fill:url(#SVGID_2_);}
	.st2{fill:url(#SVGID_3_);}
	.st3{fill:url(#SVGID_4_);}
	.st4{fill:url(#SVGID_5_);}
	.st5{fill:url(#SVGID_6_);}
	.st6{fill:url(#SVGID_7_);}
	.st7{fill:url(#SVGID_8_);}
	.st8{fill:url(#SVGID_9_);}
</style>
<polygon points="110,90 110,80 110,70 110,60 110,50 100,50 100,60 100,70 100,80 100,90 60,90 60,80 90,80 90,70 70,70 70,60 
	90,60 90,40 100,40 100,10 0,10 0,20 40,20 40,30 40,40 40,50 40,60 50,60 50,50 50,40 50,30 50,20 90,20 90,30 60,30 60,40 80,40 
	80,50 60,50 60,70 50,70 50,100 120,100 120,90 "/>
<polygon points="110,40 120,40 120,30 120,20 120,10 110,10 "/>
<polygon points="30,70 30,50 10,50 10,40 30,40 30,30 0,30 0,60 20,60 20,70 0,70 0,80 30,80 30,90 0,90 0,100 40,100 40,70 "/>
<linearGradient id="SVGID_1_" gradientUnits="userSpaceOnUse" x1="-9.094947e-12" y1="0.7648" x2="1.121523e-12" y2="100.0812">
	<stop  offset="0" style="stop-color:#808080"/>
	<stop  offset="0.2937" style="stop-color:#C0C0C0"/>
	<stop  offset="1" style="stop-color:#646464"/>
</linearGradient>
<rect y="80" class="st0" width="0" height="10"/>
<rect y="80" width="30" height="10"/>
<linearGradient id="SVGID_2_" gradientUnits="userSpaceOnUse" x1="15" y1="0.7648" x2="15" y2="100.0812">
	<stop  offset="0" style="stop-color:#808080"/>
	<stop  offset="0.2937" style="stop-color:#C0C0C0"/>
	<stop  offset="1" style="stop-color:#646464"/>
</linearGradient>
<rect y="80" class="st1" width="30" height="10"/>
<linearGradient id="SVGID_3_" gradientUnits="userSpaceOnUse" x1="-7.275958e-12" y1="0.7648" x2="2.940512e-12" y2="100.0812">
	<stop  offset="0" style="stop-color:#808080"/>
	<stop  offset="0.2937" style="stop-color:#C0C0C0"/>
	<stop  offset="1" style="stop-color:#646464"/>
</linearGradient>
<rect y="60" class="st2" width="0" height="10"/>
<rect y="60" width="20" height="10"/>
<linearGradient id="SVGID_4_" gradientUnits="userSpaceOnUse" x1="10" y1="0.7648" x2="10" y2="100.0812">
	<stop  offset="0" style="stop-color:#808080"/>
	<stop  offset="0.2937" style="stop-color:#C0C0C0"/>
	<stop  offset="1" style="stop-color:#646464"/>
</linearGradient>
<rect y="60" class="st3" width="20" height="10"/>
<linearGradient id="SVGID_5_" gradientUnits="userSpaceOnUse" x1="60" y1="0.7648" x2="60" y2="100.0812">
	<stop  offset="0" style="stop-color:#808080"/>
	<stop  offset="0.2937" style="stop-color:#C0C0C0"/>
	<stop  offset="1" style="stop-color:#646464"/>
</linearGradient>
<polygon class="st4" points="0,10 0,10 100,10 110,10 120,10 120,0 0,0 "/>
<polygon points="90,40 90,60 70,60 70,70 90,70 90,80 60,80 60,90 100,90 100,80 100,70 100,60 100,50 110,50 110,60 110,70 110,80 
	110,90 120,90 120,80 120,70 120,60 120,40 110,40 110,10 100,10 100,40 "/>
<linearGradient id="SVGID_6_" gradientUnits="userSpaceOnUse" x1="90" y1="0.7648" x2="90" y2="100.0812">
	<stop  offset="0" style="stop-color:#808080"/>
	<stop  offset="0.2937" style="stop-color:#C0C0C0"/>
	<stop  offset="1" style="stop-color:#646464"/>
</linearGradient>
<polygon class="st5" points="90,40 90,60 70,60 70,70 90,70 90,80 60,80 60,90 100,90 100,80 100,70 100,60 100,50 110,50 110,60 
	110,70 110,80 110,90 120,90 120,80 120,70 120,60 120,40 110,40 110,10 100,10 100,40 "/>
<linearGradient id="SVGID_7_" gradientUnits="userSpaceOnUse" x1="-2.728484e-12" y1="0.7648" x2="7.487986e-12" y2="100.0812">
	<stop  offset="0" style="stop-color:#808080"/>
	<stop  offset="0.2937" style="stop-color:#C0C0C0"/>
	<stop  offset="1" style="stop-color:#646464"/>
</linearGradient>
<rect y="20" class="st6" width="0" height="10"/>
<linearGradient id="SVGID_8_" gradientUnits="userSpaceOnUse" x1="60" y1="0.7648" x2="60" y2="100.0812">
	<stop  offset="0" style="stop-color:#808080"/>
	<stop  offset="0.2937" style="stop-color:#C0C0C0"/>
	<stop  offset="1" style="stop-color:#646464"/>
</linearGradient>
<polygon class="st7" points="50,100 40,100 0,100 0,100 0,110 120,110 120,100 "/>
<polygon points="60,70 60,50 80,50 80,40 60,40 60,30 90,30 90,20 50,20 50,30 50,40 50,50 50,60 40,60 40,50 40,40 40,30 40,20 
	0,20 0,30 30,30 30,40 10,40 10,50 30,50 30,70 40,70 40,100 50,100 50,70 "/>
<linearGradient id="SVGID_9_" gradientUnits="userSpaceOnUse" x1="45" y1="0.7648" x2="45" y2="100.0812">
	<stop  offset="0" style="stop-color:#808080"/>
	<stop  offset="0.2937" style="stop-color:#C0C0C0"/>
	<stop  offset="1" style="stop-color:#646464"/>
</linearGradient>
<polygon class="st8" points="60,70 60,50 80,50 80,40 60,40 60,30 90,30 90,20 50,20 50,30 50,40 50,50 50,60 40,60 40,50 40,40 
	40,30 40,20 0,20 0,30 30,30 30,40 10,40 10,50 30,50 30,70 40,70 40,100 50,100 50,70 "/>
</svg>
