<?xml version="1.0" encoding="utf-8"?>
<!-- Generator: Adobe Illustrator 25.0.1, SVG Export Plug-In . SVG Version: 6.00 Build 0)  -->
<svg version="1.1" id="Layer_1" xmlns="http://www.w3.org/2000/svg" xmlns:xlink="http://www.w3.org/1999/xlink" x="0px" y="0px"
	 viewBox="0 0 120 90" style="enable-background:new 0 0 120 90;" xml:space="preserve">
<style type="text/css">
	.st0{fill:url(#SVGID_1_);}
	.st1{fill:url(#SVGID_2_);}
	.st2{fill:url(#SVGID_3_);}
</style>
<polygon points="10,10 10,50 0,50 0,60 40,60 40,50 30,50 20,50 20,30 20,20 110,20 110,30 110,50 100,50 90,50 90,60 120,60 
	120,50 120,10 "/>
<polygon points="80,60 80,50 80,40 100,40 100,30 30,30 30,40 50,40 50,50 50,60 50,70 0,70 0,80 60,80 60,40 70,40 70,80 120,80 
	120,70 80,70 "/>
<polygon points="0,10 0,50 10,50 10,10 120,10 120,0 0,0 "/>
<linearGradient id="SVGID_1_" gradientUnits="userSpaceOnUse" x1="60" y1="5.886661e-02" x2="60" y2="82.6742">
	<stop  offset="0" style="stop-color:#808080"/>
	<stop  offset="0.2937" style="stop-color:#C0C0C0"/>
	<stop  offset="1" style="stop-color:#646464"/>
</linearGradient>
<polygon class="st0" points="0,10 0,50 10,50 10,10 120,10 120,0 0,0 "/>
<polygon points="70,80 70,40 60,40 60,80 0,80 0,90 120,90 120,80 "/>
<linearGradient id="SVGID_2_" gradientUnits="userSpaceOnUse" x1="60" y1="5.886661e-02" x2="60" y2="82.6742">
	<stop  offset="0" style="stop-color:#808080"/>
	<stop  offset="0.2937" style="stop-color:#C0C0C0"/>
	<stop  offset="1" style="stop-color:#646464"/>
</linearGradient>
<polygon class="st1" points="70,80 70,40 60,40 60,80 0,80 0,90 120,90 120,80 "/>
<polygon points="90,50 100,50 110,50 110,30 110,20 20,20 20,30 20,50 30,50 40,50 40,60 0,60 0,70 50,70 50,60 50,50 50,40 30,40 
	30,30 100,30 100,40 80,40 80,50 80,60 80,70 120,70 120,60 90,60 "/>
<linearGradient id="SVGID_3_" gradientUnits="userSpaceOnUse" x1="60" y1="5.886661e-02" x2="60" y2="82.6742">
	<stop  offset="0" style="stop-color:#808080"/>
	<stop  offset="0.2937" style="stop-color:#C0C0C0"/>
	<stop  offset="1" style="stop-color:#646464"/>
</linearGradient>
<polygon class="st2" points="90,50 100,50 110,50 110,30 110,20 20,20 20,30 20,50 30,50 40,50 40,60 0,60 0,70 50,70 50,60 50,50 
	50,40 30,40 30,30 100,30 100,40 80,40 80,50 80,60 80,70 120,70 120,60 90,60 "/>
</svg>
