<?xml version="1.0" encoding="utf-8"?>
<!-- Generator: Adobe Illustrator 25.0.1, SVG Export Plug-In . SVG Version: 6.00 Build 0)  -->
<svg version="1.1" id="Layer_1" xmlns="http://www.w3.org/2000/svg" xmlns:xlink="http://www.w3.org/1999/xlink" x="0px" y="0px"
	 viewBox="0 0 256 256" style="enable-background:new 0 0 256 256;" xml:space="preserve">
<style type="text/css">
	.st0{fill:#FFFFFF;}
</style>
<path class="st0" d="M209.1,0.5H46.9C21,0.5,0,21.5,0,47.4v162.3c0,25.9,21,46.9,46.9,46.9h162.3c25.9,0,46.9-21,46.9-46.9V47.4
	C256,21.5,235,0.5,209.1,0.5z M192.4,101.7c-4,27.5-8.6,55-13.2,82.5c-1.7,13.2-8.6,20.1-22.9,12l-44.7-31.5
	c-6.3-5.2-4.6-9.2,0.6-14.3l41.3-39c10.9-10.9,5.7-14.9-6.9-6.3l-56.8,38.4c-8,5.7-16.6,5.7-25.8,2.9l-19.5-6.9
	c-12.6-4.6-2.9-9.7,3.4-12.6c35.5-14.9,78.5-36.1,115.8-50.4C198.1,63.8,197.6,67.3,192.4,101.7z"/>
</svg>
