<?xml version="1.0" encoding="utf-8"?>
<!-- Generator: Adobe Illustrator 25.0.1, SVG Export Plug-In . SVG Version: 6.00 Build 0)  -->
<svg version="1.1" id="Layer_1" xmlns="http://www.w3.org/2000/svg" xmlns:xlink="http://www.w3.org/1999/xlink" x="0px" y="0px"
	 viewBox="0 0 256 256" style="enable-background:new 0 0 256 256;" xml:space="preserve">
<style type="text/css">
	.st0{fill:#FFFFFF;}
</style>
<path class="st0" d="M209.1,0.5H46.9C21,0.5,0,21.5,0,47.4v162.3c0,25.9,21,46.9,46.9,46.9h162.3c25.9,0,46.9-21,46.9-46.9V47.4
	C256,21.5,235,0.5,209.1,0.5z M199.3,98c0,1.5,0.1,3,0.1,4.5c0,46.3-35.3,99.6-99.6,99.6c-19.7,0-38.2-5.8-53.7-15.7
	c2.8,0.3,5.5,0.4,8.4,0.4c16.4,0,31.5-5.7,43.6-15c-15.4-0.3-28.3-10.5-32.7-24.4c2.2,0.4,4.4,0.6,6.5,0.6c3.2,0,6.2-0.4,9.3-1.2
	c-16-3.2-28.2-17.4-28.2-34.4c0-0.1,0-0.3,0-0.4c4.8,2.6,10.2,4.2,15.8,4.4c-9.4-6.2-15.5-17-15.5-29.2c0-6.4,1.7-12.5,4.8-17.6
	c17.3,21.2,43.1,35.1,72.2,36.6c-0.6-2.6-0.9-5.2-0.9-8c0-19.3,15.7-35,35-35c10,0,19.2,4.2,25.6,11c8-1.6,15.5-4.5,22.2-8.6
	c-2.6,8.1-8.1,15.1-15.4,19.3c7.1-0.9,13.8-2.8,20.2-5.5C212.1,87,206.1,93.1,199.3,98z"/>
</svg>
